<?xml version="1.0" encoding="UTF-8" standalone="no"?>
<svg xmlns="http://www.w3.org/2000/svg" version="1.2" baseProfile="tiny" viewBox="0 0 154 153">
<g stroke-width="2.00" fill="none" stroke-linecap="butt">
<path stroke="#0a192d" vector-effect="non-scaling-stroke" d="
  M 12.25 59.46
  Q 11.21 58.91 11.03 59.76
  A 1.38 0.69 46.6 0 0 11.30 60.65
  Q 11.99 61.70 12.00 63.00"
/>
<path stroke="#0a192d" vector-effect="non-scaling-stroke" d="
  M 12.00 63.00
  C 13.29 63.88 13.79 69.77 14.13 71.57
  Q 14.42 73.06 14.82 72.02
  L 15.49 70.24
  A 0.99 0.98 40.7 0 0 15.42 69.37
  Q 13.99 66.85 14.71 64.00"
/>
<path stroke="#4c6668" vector-effect="non-scaling-stroke" d="
  M 8.71 60.75
  C 9.08 61.67 9.16 62.70 8.67 63.66
  Q 4.71 71.27 1.42 79.32
  A 1.44 0.99 -52.5 0 0 1.37 80.26
  Q 1.93 81.67 4.00 80.96"
/>
<path stroke="#19334e" vector-effect="non-scaling-stroke" d="
  M 4.00 80.96
  Q 5.70 81.23 7.32 80.70
  A 0.82 0.78 85.6 0 0 7.86 80.04
  Q 8.76 73.82 8.23 67.44"
/>
<path stroke="#4c6668" vector-effect="non-scaling-stroke" d="
  M 8.23 67.44
  Q 10.98 64.02 9.00 60.37"
/>
<path stroke="#5d5d5d" vector-effect="non-scaling-stroke" d="
  M 65.94 71.72
  C 71.57 79.30 82.03 79.28 90.25 76.46"
/>
<path stroke="#4d4d4d" vector-effect="non-scaling-stroke" d="
  M 90.25 76.46
  Q 95.82 75.20 100.59 71.99
  Q 101.01 71.70 100.51 71.57
  Q 97.78 70.85 94.92 71.43
  C 90.00 72.41 80.25 71.74 77.68 66.54
  A 0.81 0.77 75.5 0 0 76.96 66.09
  C 73.15 66.12 67.68 66.86 64.31 64.94
  Q 57.77 61.20 51.69 56.33
  A 1.52 1.48 32.0 0 1 51.25 54.51
  Q 53.27 50.21 53.77 45.51
  Q 54.06 42.79 51.28 43.32
  L 47.02 44.12
  A 0.95 0.39 -8.9 0 0 46.24 44.59
  C 46.19 45.39 48.35 45.69 47.73 47.59
  Q 47.50 48.28 47.17 47.56
  L 46.72 46.55
  A 1.34 0.60 2.5 0 0 45.73 46.05
  Q 42.58 45.59 39.74 46.95
  Q 38.84 47.38 40.02 47.75
  L 41.51 48.21
  A 1.30 0.53 10.4 0 1 42.29 48.71
  Q 43.24 50.68 45.24 50.00
  Q 45.65 49.86 45.45 50.48
  Q 44.62 53.07 47.26 54.98
  Q 55.93 61.26 65.94 71.72"
/>
<path stroke="#aaa9a9" vector-effect="non-scaling-stroke" d="
  M 90.25 76.46
  Q 90.09 75.92 89.59 75.42
  A 0.84 0.74 -31.7 0 0 88.75 75.28
  C 83.12 77.42 77.09 75.37 71.55 74.29
  Q 71.08 74.20 70.68 73.86
  Q 68.61 72.12 65.94 71.72"
/>
<path stroke="#4d4d4d" vector-effect="non-scaling-stroke" d="
  M 84.08 63.76
  Q 80.09 57.53 77.29 51.00"
/>
<path stroke="#5d5d5d" vector-effect="non-scaling-stroke" d="
  M 77.29 51.00
  L 74.17 45.80
  Q 73.10 44.01 73.01 46.12
  C 72.78 51.70 76.03 59.43 78.40 64.50
  C 80.88 69.80 87.38 71.26 92.75 70.71"
/>
<path stroke="#4d4d4d" vector-effect="non-scaling-stroke" d="
  M 92.75 70.71
  Q 97.53 69.87 98.44 70.06
  Q 106.82 71.86 115.29 70.50"
/>
<path stroke="#444444" vector-effect="non-scaling-stroke" d="
  M 115.29 70.50
  C 117.39 70.33 140.23 66.98 139.68 65.34
  A 0.69 0.54 -7.5 0 0 139.06 64.97
  Q 127.96 64.98 117.01 66.85
  A 3.76 2.58 -27.1 0 1 114.83 66.57
  C 113.83 66.02 115.13 65.45 115.63 65.37
  Q 124.59 63.89 133.19 59.85
  Q 135.80 58.62 133.01 57.90
  Q 132.08 57.65 129.63 58.18
  Q 118.99 60.47 108.92 64.55
  C 107.51 65.12 108.21 64.08 108.53 63.88
  Q 115.12 59.68 120.56 53.99
  A 1.26 1.01 -29.0 0 0 120.92 53.12
  Q 120.82 51.49 118.70 52.48
  Q 109.34 56.84 102.56 64.75"
/>
<path stroke="#4d4d4d" vector-effect="non-scaling-stroke" d="
  M 102.56 64.75
  C 101.76 65.59 100.98 65.68 101.37 64.34
  C 103.21 57.98 104.92 52.17 104.78 46.60"
/>
<path stroke="#5d5d5d" vector-effect="non-scaling-stroke" d="
  M 104.78 46.60
  C 104.02 46.13 103.32 45.93 102.73 46.80
  Q 97.62 54.30 94.96 63.00"
/>
<path stroke="#4d4d4d" vector-effect="non-scaling-stroke" d="
  M 94.96 63.00
  C 94.48 65.38 93.22 63.83 92.82 62.84
  Q 89.31 54.17 85.79 45.50"
/>
<path stroke="#5d5d5d" vector-effect="non-scaling-stroke" d="
  M 85.79 45.50
  Q 85.76 44.35 84.93 43.71
  A 0.59 0.55 -49.5 0 0 84.16 43.80
  Q 82.83 45.26 82.98 47.24
  Q 83.54 54.93 84.08 63.76"
/>
<path stroke="#aaa9a9" vector-effect="non-scaling-stroke" d="
  M 85.79 45.50
  Q 84.45 49.56 85.30 53.63
  C 86.07 57.31 86.09 59.39 85.92 62.69
  Q 85.89 63.16 84.08 63.76"
/>
<path stroke="#aaa9a9" vector-effect="non-scaling-stroke" d="
  M 94.96 63.00
  Q 95.39 63.38 95.89 63.28
  A 1.05 0.73 -81.0 0 0 96.52 62.62
  C 98.02 58.45 99.50 54.21 102.14 50.56
  Q 103.53 48.64 104.78 46.60"
/>
<path stroke="#919191" vector-effect="non-scaling-stroke" d="
  M 102.56 64.75
  L 114.34 68.79
  A 1.02 0.95 2.4 0 1 114.97 69.43
  L 115.29 70.50"
/>
<path stroke="#aaa9a9" vector-effect="non-scaling-stroke" d="
  M 77.29 51.00
  C 75.20 52.40 76.55 55.85 77.54 57.57
  C 79.09 60.28 80.30 62.87 81.27 65.81
  Q 81.85 67.55 83.69 68.06
  Q 87.65 69.14 91.74 69.14
  A 1.31 1.06 -17.6 0 1 92.63 69.49
  Q 93.13 70.03 92.75 70.71"
/>
<path stroke="#444444" vector-effect="non-scaling-stroke" d="
  M 33.86 47.09
  C 34.16 43.56 31.85 48.94 33.45 47.87
  A 1.09 0.84 80.0 0 0 33.86 47.09"
/>
<path stroke="#5d5d5d" vector-effect="non-scaling-stroke" d="
  M 37.5081 50.7396
  A 1.68 0.52 88.7 0 0 37.9899 49.0482
  A 1.68 0.52 88.7 0 0 37.4319 47.3804
  A 1.68 0.52 88.7 0 0 36.9501 49.0718
  A 1.68 0.52 88.7 0 0 37.5081 50.7396"
/>
<path stroke="#7e4913" vector-effect="non-scaling-stroke" d="
  M 42.99 54.60
  Q 35.81 54.07 28.65 55.17
  C 28.41 55.21 28.24 55.35 28.22 55.59
  A 0.49 0.36 1.5 0 0 28.72 55.98
  L 43.00 55.96"
/>
<path stroke="#7f6303" vector-effect="non-scaling-stroke" d="
  M 43.00 55.96
  Q 44.78 56.23 45.15 55.07
  A 1.17 0.92 44.3 0 0 45.04 54.21
  Q 43.37 51.12 40.43 49.03
  A 0.86 0.83 22.8 0 0 39.09 49.55
  Q 38.50 53.03 36.26 50.81
  A 1.46 0.45 -86.8 0 1 36.00 49.75
  L 35.96 48.56
  A 0.64 0.35 -22.9 0 0 35.10 48.48
  Q 33.21 49.53 29.98 50.45
  Q 18.70 53.66 12.05 55.22
  C 9.46 55.83 12.45 55.99 12.53 55.98
  Q 19.02 55.05 25.56 54.62
  C 30.71 54.29 36.12 53.05 41.16 52.59
  A 1.44 1.26 -25.9 0 1 42.08 52.84
  Q 43.30 53.78 42.99 54.60"
/>
<path stroke="#fdac16" vector-effect="non-scaling-stroke" d="
  M 43.00 55.96
  L 42.99 54.60"
/>
<path stroke="#444444" vector-effect="non-scaling-stroke" d="
  M 63.96 51.96
  Q 64.36 58.27 66.94 64.06
  A 1.28 0.66 72.0 0 0 67.74 64.85
  L 70.25 65.05
  A 0.57 0.56 -10.1 0 0 70.81 64.25
  L 64.92 51.64
  Q 63.79 49.22 63.96 51.96"
/>
<path stroke="#444444" vector-effect="non-scaling-stroke" d="
  M 72.74 64.76
  L 76.50 65.06
  Q 77.37 65.13 76.76 64.26
  L 71.09 56.17
  A 0.81 0.68 59.9 0 0 70.19 55.85
  C 69.39 56.22 71.49 62.63 71.76 63.42
  A 1.82 0.67 74.2 0 0 72.74 64.76"
/>
<path stroke="#444444" vector-effect="non-scaling-stroke" d="
  M 132.8369 63.1761
  A 2.47 0.37 -5.9 0 0 130.3420 63.0620
  A 2.47 0.37 -5.9 0 0 127.9231 63.6839
  A 2.47 0.37 -5.9 0 0 130.4180 63.7980
  A 2.47 0.37 -5.9 0 0 132.8369 63.1761"
/>
<path stroke="#4d4d4d" vector-effect="non-scaling-stroke" d="
  M 152.75 67.13
  C 152.64 65.01 136.67 67.75 134.86 68.16
  A 0.78 0.43 -5.0 0 0 134.29 68.54
  Q 134.19 68.84 135.00 68.78
  Q 139.89 68.38 144.51 70.02
  Q 146.47 70.71 148.31 69.12
  Q 150.04 67.63 152.23 67.75
  A 0.59 0.50 89.8 0 0 152.75 67.13"
/>
<path stroke="#804d4d" vector-effect="non-scaling-stroke" d="
  M 19.00 80.96
  Q 29.64 80.79 25.94 71.93
  C 25.17 70.08 23.75 69.75 21.93 69.74"
/>
<path stroke="#806666" vector-effect="non-scaling-stroke" d="
  M 21.93 69.74
  Q 18.64 68.44 16.44 71.34
  A 1.46 0.55 -44.8 0 0 16.06 72.17
  Q 16.02 74.45 14.49 75.94
  A 1.16 0.95 -28.1 0 0 14.15 76.76
  Q 14.46 81.25 19.00 80.96"
/>
<path stroke="#ffb3b2" vector-effect="non-scaling-stroke" d="
  M 21.93 69.74
  Q 23.14 75.22 19.65 78.92"
/>
<path stroke="#806666" vector-effect="non-scaling-stroke" d="
  M 19.65 78.92
  Q 17.17 78.27 16.93 76.79
  A 0.68 0.42 84.0 0 1 17.30 76.02
  Q 18.67 76.05 18.70 75.27
  Q 18.73 74.68 17.51 75.35
  Q 14.00 77.26 18.25 79.04"
/>
<path stroke="#ffb3b2" vector-effect="non-scaling-stroke" d="
  M 18.25 79.04
  Q 19.35 79.65 19.00 80.96"
/>
<path stroke="#804d4d" vector-effect="non-scaling-stroke" d="
  M 18.25 79.04
  L 19.65 78.92"
/>
<path stroke="#19334e" vector-effect="non-scaling-stroke" d="
  M 9.18 80.19
  L 9.03 80.29
  Q 8.31 80.79 9.44 80.81
  L 14.50 80.91
  A 0.41 0.33 74.0 0 0 14.75 80.32
  C 13.65 78.24 8.89 73.63 9.41 79.65
  A 0.63 0.57 71.0 0 1 9.18 80.19"
/>
<path stroke="#59270d" vector-effect="non-scaling-stroke" d="
  M 1.00 82.76
  Q 0.88 83.35 1.31 83.70
  A 0.76 0.38 -72.1 0 0 2.00 82.99
  Q 2.12 82.41 1.69 82.05
  A 0.76 0.37 -72.0 0 0 1.00 82.76"
/>
<path stroke="#77440d" vector-effect="non-scaling-stroke" d="
  M 3.35 82.40
  C 2.71 83.61 13.32 84.98 12.05 82.60
  A 1.01 0.89 74.3 0 0 11.25 82.08
  L 4.25 81.97
  A 1.08 0.79 10.7 0 0 3.35 82.40"
/>
<path stroke="#59270d" vector-effect="non-scaling-stroke" d="
  M 18.29 83.25
  Q 23.27 81.90 18.25 82.79"
/>
<path stroke="#77440d" vector-effect="non-scaling-stroke" d="
  M 18.25 82.79
  C 17.04 82.12 14.39 81.40 13.24 82.49
  C 10.99 84.63 17.14 84.04 18.29 83.25"
/>
<path stroke="#d06b1a" vector-effect="non-scaling-stroke" d="
  M 18.25 82.79
  L 18.29 83.25"
/>
<path stroke="#59270d" vector-effect="non-scaling-stroke" d="
  M 22.12 82.65
  C 22.74 83.56 25.11 81.83 22.40 82.26
  A 0.33 0.24 -18.3 0 0 22.12 82.65"
/>
<path stroke="#77440d" vector-effect="non-scaling-stroke" d="
  M 23.7146 84.5795
  A 3.01 0.99 -8.8 0 0 20.5885 84.0617
  A 3.01 0.99 -8.8 0 0 17.7654 85.5005
  A 3.01 0.99 -8.8 0 0 20.8915 86.0183
  A 3.01 0.99 -8.8 0 0 23.7146 84.5795"
/>
<path stroke="#7e4913" vector-effect="non-scaling-stroke" d="
  M 6.07 84.89
  Q 4.85 84.38 3.50 84.22
  A 0.58 0.45 -85.6 0 0 2.99 84.78
  Q 2.87 87.50 5.77 87.00
  Q 9.54 86.35 6.07 84.89"
/>
<path stroke="#77440d" vector-effect="non-scaling-stroke" d="
  M 11.00 86.00
  C 11.04 87.58 8.48 86.69 7.21 87.50"
/>
<path stroke="#59270d" vector-effect="non-scaling-stroke" d="
  M 7.21 87.50
  L 5.40 88.29
  Q 4.20 88.82 5.49 88.82
  Q 6.57 88.82 7.05 89.68
  A 1.05 0.94 -8.4 0 0 7.81 90.18
  Q 8.68 90.29 9.05 89.53
  Q 9.37 88.86 8.34 89.06
  Q 6.60 89.41 7.29 88.00"
/>
<path stroke="#77440d" vector-effect="non-scaling-stroke" d="
  M 7.29 88.00
  Q 10.42 87.94 13.34 86.72
  C 14.22 86.35 14.70 85.37 13.46 85.03
  A 1.31 1.23 -51.1 0 0 12.51 85.16
  L 11.00 86.00"
/>
<path stroke="#59270d" vector-effect="non-scaling-stroke" d="
  M 11.00 86.00
  Q 10.05 84.66 8.31 84.76
  A 0.35 0.33 -16.0 0 0 8.02 85.26
  Q 8.84 86.67 11.00 86.00"
/>
<path stroke="#d06b1a" vector-effect="non-scaling-stroke" d="
  M 7.29 88.00
  L 7.21 87.50"
/>
<path stroke="#77440d" vector-effect="non-scaling-stroke" d="
  M 15.71 85.20
  A 0.79 0.79 74.7 0 0 15.05 86.36
  C 15.95 88.07 19.25 85.04 15.71 85.20"
/>
<path stroke="#77440d" vector-effect="non-scaling-stroke" d="
  M 20.36 87.29
  C 19.07 86.51 15.90 87.23 16.14 89.20
  A 0.44 0.44 -16.5 0 0 16.77 89.54
  L 20.41 87.88
  Q 20.93 87.64 20.36 87.29"
/>
<path stroke="#7e4913" vector-effect="non-scaling-stroke" d="
  M 15.02 89.39
  C 16.05 86.54 10.89 88.29 10.02 89.59
  Q 8.93 91.22 10.77 90.82
  L 14.26 90.07
  A 1.07 1.02 -85.6 0 0 15.02 89.39"
/>
<path stroke="#4d4d4d" vector-effect="non-scaling-stroke" d="
  M 43.68 47.46
  Q 43.10 47.81 42.98 48.48
  Q 42.81 49.46 43.80 48.81
  Q 44.54 48.33 44.78 47.49
  Q 45.02 46.67 43.68 47.46"
/>
<path stroke="#6599b6" vector-effect="non-scaling-stroke" d="
  M 8.23 67.44
  Q 5.20 73.98 4.00 80.96"
/>
</g>
<path fill="#000000" d="
  M 154.02 66.27
  L 154.00 67.81
  Q 152.34 69.09 150.19 69.18
  A 1.40 1.40 23.3 0 0 149.33 69.52
  C 145.75 72.54 143.55 70.04 140.03 69.91
  Q 130.62 69.56 121.35 71.04
  Q 116.94 71.75 114.09 71.85
  C 110.15 71.99 105.66 71.40 102.01 72.99
  C 92.10 77.31 85.81 79.88 76.43 79.10
  C 66.93 78.31 63.35 70.16 57.15 65.05
  C 54.63 62.98 48.44 55.46 45.20 56.88
  Q 44.70 57.09 44.26 57.08
  Q 27.86 56.56 13.32 57.82
  Q 11.87 57.94 12.25 59.46
  Q 11.21 58.91 11.03 59.76
  A 1.38 0.69 46.6 0 0 11.30 60.65
  Q 11.99 61.70 12.00 63.00
  Q 11.14 62.78 11.04 63.26
  Q 9.97 68.20 9.34 75.45
  A 0.50 0.42 -86.9 0 0 9.74 75.99
  L 12.30 76.03
  Q 14.81 76.07 13.86 73.60
  Q 11.83 68.32 12.00 63.00
  C 13.29 63.88 13.79 69.77 14.13 71.57
  Q 14.42 73.06 14.82 72.02
  L 15.49 70.24
  A 0.99 0.98 40.7 0 0 15.42 69.37
  Q 13.99 66.85 14.71 64.00
  L 16.14 68.32
  A 0.85 0.48 76.9 0 0 16.68 68.91
  Q 18.39 69.04 20.13 65.93
  A 1.14 0.73 -57.7 0 1 21.44 65.32
  Q 21.89 65.67 21.73 66.25
  A 0.98 0.89 30.3 0 0 22.02 67.17
  C 25.88 70.77 31.41 74.28 25.88 79.94
  A 1.28 1.23 68.4 0 0 25.53 80.79
  Q 25.47 83.30 24.06 85.27
  C 17.33 94.67 4.85 93.96 0.00 83.19
  L -0.02 81.93
  C 1.81 74.12 6.05 68.13 8.71 60.75
  C 9.08 61.67 9.16 62.70 8.67 63.66
  Q 4.71 71.27 1.42 79.32
  A 1.44 0.99 -52.5 0 0 1.37 80.26
  Q 1.93 81.67 4.00 80.96
  Q 5.70 81.23 7.32 80.70
  A 0.82 0.78 85.6 0 0 7.86 80.04
  Q 8.76 73.82 8.23 67.44
  Q 10.98 64.02 9.00 60.37
  Q 11.21 57.20 7.82 56.55
  Q 7.33 56.45 7.72 56.16
  C 10.65 53.91 14.19 53.91 16.86 53.17
  Q 23.18 51.42 30.75 49.29
  A 2.20 1.82 88.4 0 0 32.10 47.57
  Q 32.72 43.42 35.29 46.72
  A 0.88 0.67 -26.0 0 0 36.18 46.90
  C 40.64 45.45 45.31 43.04 49.97 42.97
  A 0.50 0.33 -8.6 0 0 50.50 42.50
  L 50.25 42.00
  A 0.45 0.43 -11.3 0 1 50.69 41.38
  L 53.25 41.52
  A 1.14 0.53 68.7 0 1 53.95 42.19
  C 55.43 45.13 54.76 51.50 52.53 54.35
  A 0.52 0.49 -51.3 0 0 52.58 55.05
  C 54.27 56.47 64.21 64.41 64.92 62.27
  A 1.49 1.41 43.3 0 0 64.86 61.23
  Q 62.71 56.44 63.01 51.27
  Q 63.14 49.16 64.78 50.39
  C 65.56 50.97 68.58 55.76 68.63 55.76
  A 0.44 0.33 -86.3 0 0 68.97 55.36
  C 69.43 50.46 73.84 58.92 74.03 59.33
  A 0.56 0.48 65.7 0 0 74.70 59.64
  C 75.66 59.18 74.53 58.32 74.30 57.81
  Q 71.77 52.23 71.96 46.07
  C 72.26 36.13 81.78 56.70 81.85 56.87
  Q 83.31 60.35 82.73 56.62
  C 82.02 52.02 80.68 46.27 83.78 42.52
  Q 85.52 40.41 86.46 42.88
  L 93.17 60.69
  Q 93.98 62.85 94.58 60.80
  Q 96.98 52.60 102.49 45.98
  Q 104.94 43.04 105.86 46.76
  C 106.71 50.19 105.02 56.43 104.17 60.05
  Q 103.78 61.67 104.94 60.47
  C 106.34 59.01 122.48 45.07 122.07 53.81
  A 1.31 0.29 -89.8 0 1 121.84 54.84
  L 116.82 59.57
  A 1.14 0.05 -8.3 0 1 115.76 59.77
  Q 114.68 59.94 115.16 60.80
  A 0.76 0.56 -24.1 0 0 116.03 60.99
  Q 124.43 57.54 133.48 56.83
  A 1.86 1.15 -20.8 0 1 134.51 57.03
  Q 137.67 59.01 134.15 60.94
  A 1.11 0.16 -26.7 0 0 133.42 61.45
  C 132.29 63.73 136.71 64.07 138.21 63.99
  A 1.72 1.62 58.3 0 1 139.15 64.24
  C 144.69 67.67 148.46 62.93 154.02 66.27
  Z
  M 65.94 71.72
  C 71.57 79.30 82.03 79.28 90.25 76.46
  Q 95.82 75.20 100.59 71.99
  Q 101.01 71.70 100.51 71.57
  Q 97.78 70.85 94.92 71.43
  C 90.00 72.41 80.25 71.74 77.68 66.54
  A 0.81 0.77 75.5 0 0 76.96 66.09
  C 73.15 66.12 67.68 66.86 64.31 64.94
  Q 57.77 61.20 51.69 56.33
  A 1.52 1.48 32.0 0 1 51.25 54.51
  Q 53.27 50.21 53.77 45.51
  Q 54.06 42.79 51.28 43.32
  L 47.02 44.12
  A 0.95 0.39 -8.9 0 0 46.24 44.59
  C 46.19 45.39 48.35 45.69 47.73 47.59
  Q 47.50 48.28 47.17 47.56
  L 46.72 46.55
  A 1.34 0.60 2.5 0 0 45.73 46.05
  Q 42.58 45.59 39.74 46.95
  Q 38.84 47.38 40.02 47.75
  L 41.51 48.21
  A 1.30 0.53 10.4 0 1 42.29 48.71
  Q 43.24 50.68 45.24 50.00
  Q 45.65 49.86 45.45 50.48
  Q 44.62 53.07 47.26 54.98
  Q 55.93 61.26 65.94 71.72
  Z
  M 84.08 63.76
  Q 80.09 57.53 77.29 51.00
  L 74.17 45.80
  Q 73.10 44.01 73.01 46.12
  C 72.78 51.70 76.03 59.43 78.40 64.50
  C 80.88 69.80 87.38 71.26 92.75 70.71
  Q 97.53 69.87 98.44 70.06
  Q 106.82 71.86 115.29 70.50
  C 117.39 70.33 140.23 66.98 139.68 65.34
  A 0.69 0.54 -7.5 0 0 139.06 64.97
  Q 127.96 64.98 117.01 66.85
  A 3.76 2.58 -27.1 0 1 114.83 66.57
  C 113.83 66.02 115.13 65.45 115.63 65.37
  Q 124.59 63.89 133.19 59.85
  Q 135.80 58.62 133.01 57.90
  Q 132.08 57.65 129.63 58.18
  Q 118.99 60.47 108.92 64.55
  C 107.51 65.12 108.21 64.08 108.53 63.88
  Q 115.12 59.68 120.56 53.99
  A 1.26 1.01 -29.0 0 0 120.92 53.12
  Q 120.82 51.49 118.70 52.48
  Q 109.34 56.84 102.56 64.75
  C 101.76 65.59 100.98 65.68 101.37 64.34
  C 103.21 57.98 104.92 52.17 104.78 46.60
  C 104.02 46.13 103.32 45.93 102.73 46.80
  Q 97.62 54.30 94.96 63.00
  C 94.48 65.38 93.22 63.83 92.82 62.84
  Q 89.31 54.17 85.79 45.50
  Q 85.76 44.35 84.93 43.71
  A 0.59 0.55 -49.5 0 0 84.16 43.80
  Q 82.83 45.26 82.98 47.24
  Q 83.54 54.93 84.08 63.76
  Z
  M 33.86 47.09
  C 34.16 43.56 31.85 48.94 33.45 47.87
  A 1.09 0.84 80.0 0 0 33.86 47.09
  Z
  M 37.5081 50.7396
  A 1.68 0.52 88.7 0 0 37.9899 49.0482
  A 1.68 0.52 88.7 0 0 37.4319 47.3804
  A 1.68 0.52 88.7 0 0 36.9501 49.0718
  A 1.68 0.52 88.7 0 0 37.5081 50.7396
  Z
  M 42.99 54.60
  Q 35.81 54.07 28.65 55.17
  C 28.41 55.21 28.24 55.35 28.22 55.59
  A 0.49 0.36 1.5 0 0 28.72 55.98
  L 43.00 55.96
  Q 44.78 56.23 45.15 55.07
  A 1.17 0.92 44.3 0 0 45.04 54.21
  Q 43.37 51.12 40.43 49.03
  A 0.86 0.83 22.8 0 0 39.09 49.55
  Q 38.50 53.03 36.26 50.81
  A 1.46 0.45 -86.8 0 1 36.00 49.75
  L 35.96 48.56
  A 0.64 0.35 -22.9 0 0 35.10 48.48
  Q 33.21 49.53 29.98 50.45
  Q 18.70 53.66 12.05 55.22
  C 9.46 55.83 12.45 55.99 12.53 55.98
  Q 19.02 55.05 25.56 54.62
  C 30.71 54.29 36.12 53.05 41.16 52.59
  A 1.44 1.26 -25.9 0 1 42.08 52.84
  Q 43.30 53.78 42.99 54.60
  Z
  M 63.96 51.96
  Q 64.36 58.27 66.94 64.06
  A 1.28 0.66 72.0 0 0 67.74 64.85
  L 70.25 65.05
  A 0.57 0.56 -10.1 0 0 70.81 64.25
  L 64.92 51.64
  Q 63.79 49.22 63.96 51.96
  Z
  M 72.74 64.76
  L 76.50 65.06
  Q 77.37 65.13 76.76 64.26
  L 71.09 56.17
  A 0.81 0.68 59.9 0 0 70.19 55.85
  C 69.39 56.22 71.49 62.63 71.76 63.42
  A 1.82 0.67 74.2 0 0 72.74 64.76
  Z
  M 132.8369 63.1761
  A 2.47 0.37 -5.9 0 0 130.3420 63.0620
  A 2.47 0.37 -5.9 0 0 127.9231 63.6839
  A 2.47 0.37 -5.9 0 0 130.4180 63.7980
  A 2.47 0.37 -5.9 0 0 132.8369 63.1761
  Z
  M 152.75 67.13
  C 152.64 65.01 136.67 67.75 134.86 68.16
  A 0.78 0.43 -5.0 0 0 134.29 68.54
  Q 134.19 68.84 135.00 68.78
  Q 139.89 68.38 144.51 70.02
  Q 146.47 70.71 148.31 69.12
  Q 150.04 67.63 152.23 67.75
  A 0.59 0.50 89.8 0 0 152.75 67.13
  Z
  M 19.00 80.96
  Q 29.64 80.79 25.94 71.93
  C 25.17 70.08 23.75 69.75 21.93 69.74
  Q 18.64 68.44 16.44 71.34
  A 1.46 0.55 -44.8 0 0 16.06 72.17
  Q 16.02 74.45 14.49 75.94
  A 1.16 0.95 -28.1 0 0 14.15 76.76
  Q 14.46 81.25 19.00 80.96
  Z
  M 9.18 80.19
  L 9.03 80.29
  Q 8.31 80.79 9.44 80.81
  L 14.50 80.91
  A 0.41 0.33 74.0 0 0 14.75 80.32
  C 13.65 78.24 8.89 73.63 9.41 79.65
  A 0.63 0.57 71.0 0 1 9.18 80.19
  Z
  M 1.00 82.76
  Q 0.88 83.35 1.31 83.70
  A 0.76 0.38 -72.1 0 0 2.00 82.99
  Q 2.12 82.41 1.69 82.05
  A 0.76 0.37 -72.0 0 0 1.00 82.76
  Z
  M 3.35 82.40
  C 2.71 83.61 13.32 84.98 12.05 82.60
  A 1.01 0.89 74.3 0 0 11.25 82.08
  L 4.25 81.97
  A 1.08 0.79 10.7 0 0 3.35 82.40
  Z
  M 18.29 83.25
  Q 23.27 81.90 18.25 82.79
  C 17.04 82.12 14.39 81.40 13.24 82.49
  C 10.99 84.63 17.14 84.04 18.29 83.25
  Z
  M 22.12 82.65
  C 22.74 83.56 25.11 81.83 22.40 82.26
  A 0.33 0.24 -18.3 0 0 22.12 82.65
  Z
  M 23.7146 84.5795
  A 3.01 0.99 -8.8 0 0 20.5885 84.0617
  A 3.01 0.99 -8.8 0 0 17.7654 85.5005
  A 3.01 0.99 -8.8 0 0 20.8915 86.0183
  A 3.01 0.99 -8.8 0 0 23.7146 84.5795
  Z
  M 6.07 84.89
  Q 4.85 84.38 3.50 84.22
  A 0.58 0.45 -85.6 0 0 2.99 84.78
  Q 2.87 87.50 5.77 87.00
  Q 9.54 86.35 6.07 84.89
  Z
  M 11.00 86.00
  C 11.04 87.58 8.48 86.69 7.21 87.50
  L 5.40 88.29
  Q 4.20 88.82 5.49 88.82
  Q 6.57 88.82 7.05 89.68
  A 1.05 0.94 -8.4 0 0 7.81 90.18
  Q 8.68 90.29 9.05 89.53
  Q 9.37 88.86 8.34 89.06
  Q 6.60 89.41 7.29 88.00
  Q 10.42 87.94 13.34 86.72
  C 14.22 86.35 14.70 85.37 13.46 85.03
  A 1.31 1.23 -51.1 0 0 12.51 85.16
  L 11.00 86.00
  Q 10.05 84.66 8.31 84.76
  A 0.35 0.33 -16.0 0 0 8.02 85.26
  Q 8.84 86.67 11.00 86.00
  Z
  M 15.71 85.20
  A 0.79 0.79 74.7 0 0 15.05 86.36
  C 15.95 88.07 19.25 85.04 15.71 85.20
  Z
  M 20.36 87.29
  C 19.07 86.51 15.90 87.23 16.14 89.20
  A 0.44 0.44 -16.5 0 0 16.77 89.54
  L 20.41 87.88
  Q 20.93 87.64 20.36 87.29
  Z
  M 15.02 89.39
  C 16.05 86.54 10.89 88.29 10.02 89.59
  Q 8.93 91.22 10.77 90.82
  L 14.26 90.07
  A 1.07 1.02 -85.6 0 0 15.02 89.39
  Z"
/>
<path fill="#999999" d="
  M 90.25 76.46
  Q 90.09 75.92 89.59 75.42
  A 0.84 0.74 -31.7 0 0 88.75 75.28
  C 83.12 77.42 77.09 75.37 71.55 74.29
  Q 71.08 74.20 70.68 73.86
  Q 68.61 72.12 65.94 71.72
  Q 55.93 61.26 47.26 54.98
  Q 44.62 53.07 45.45 50.48
  Q 45.65 49.86 45.24 50.00
  Q 43.24 50.68 42.29 48.71
  A 1.30 0.53 10.4 0 0 41.51 48.21
  L 40.02 47.75
  Q 38.84 47.38 39.74 46.95
  Q 42.58 45.59 45.73 46.05
  A 1.34 0.60 2.5 0 1 46.72 46.55
  L 47.17 47.56
  Q 47.50 48.28 47.73 47.59
  C 48.35 45.69 46.19 45.39 46.24 44.59
  A 0.95 0.39 -8.9 0 1 47.02 44.12
  L 51.28 43.32
  Q 54.06 42.79 53.77 45.51
  Q 53.27 50.21 51.25 54.51
  A 1.52 1.48 32.0 0 0 51.69 56.33
  Q 57.77 61.20 64.31 64.94
  C 67.68 66.86 73.15 66.12 76.96 66.09
  A 0.81 0.77 75.5 0 1 77.68 66.54
  C 80.25 71.74 90.00 72.41 94.92 71.43
  Q 97.78 70.85 100.51 71.57
  Q 101.01 71.70 100.59 71.99
  Q 95.82 75.20 90.25 76.46
  Z
  M 43.68 47.46
  Q 43.10 47.81 42.98 48.48
  Q 42.81 49.46 43.80 48.81
  Q 44.54 48.33 44.78 47.49
  Q 45.02 46.67 43.68 47.46
  Z"
/>
<path fill="#bab9b9" d="
  M 85.79 45.50
  Q 84.45 49.56 85.30 53.63
  C 86.07 57.31 86.09 59.39 85.92 62.69
  Q 85.89 63.16 84.08 63.76
  Q 83.54 54.93 82.98 47.24
  Q 82.83 45.26 84.16 43.80
  A 0.59 0.55 -49.5 0 1 84.93 43.71
  Q 85.76 44.35 85.79 45.50
  Z"
/>
<path fill="#bab9b9" d="
  M 77.29 51.00
  C 75.20 52.40 76.55 55.85 77.54 57.57
  C 79.09 60.28 80.30 62.87 81.27 65.81
  Q 81.85 67.55 83.69 68.06
  Q 87.65 69.14 91.74 69.14
  A 1.31 1.06 -17.6 0 1 92.63 69.49
  Q 93.13 70.03 92.75 70.71
  C 87.38 71.26 80.88 69.80 78.40 64.50
  C 76.03 59.43 72.78 51.70 73.01 46.12
  Q 73.10 44.01 74.17 45.80
  L 77.29 51.00
  Z"
/>
<path fill="#999999" d="
  M 85.79 45.50
  Q 89.31 54.17 92.82 62.84
  C 93.22 63.83 94.48 65.38 94.96 63.00
  Q 95.39 63.38 95.89 63.28
  A 1.05 0.73 -81.0 0 0 96.52 62.62
  C 98.02 58.45 99.50 54.21 102.14 50.56
  Q 103.53 48.64 104.78 46.60
  C 104.92 52.17 103.21 57.98 101.37 64.34
  C 100.98 65.68 101.76 65.59 102.56 64.75
  L 114.34 68.79
  A 1.02 0.95 2.4 0 1 114.97 69.43
  L 115.29 70.50
  Q 106.82 71.86 98.44 70.06
  Q 97.53 69.87 92.75 70.71
  Q 93.13 70.03 92.63 69.49
  A 1.31 1.06 -17.6 0 0 91.74 69.14
  Q 87.65 69.14 83.69 68.06
  Q 81.85 67.55 81.27 65.81
  C 80.30 62.87 79.09 60.28 77.54 57.57
  C 76.55 55.85 75.20 52.40 77.29 51.00
  Q 80.09 57.53 84.08 63.76
  Q 85.89 63.16 85.92 62.69
  C 86.09 59.39 86.07 57.31 85.30 53.63
  Q 84.45 49.56 85.79 45.50
  Z"
/>
<path fill="#888888" d="
  M 33.45 47.87
  C 31.85 48.94 34.16 43.56 33.86 47.09
  A 1.09 0.84 80.0 0 1 33.45 47.87
  Z"
/>
<path fill="#bab9b9" d="
  M 104.78 46.60
  Q 103.53 48.64 102.14 50.56
  C 99.50 54.21 98.02 58.45 96.52 62.62
  A 1.05 0.73 -81.0 0 1 95.89 63.28
  Q 95.39 63.38 94.96 63.00
  Q 97.62 54.30 102.73 46.80
  C 103.32 45.93 104.02 46.13 104.78 46.60
  Z"
/>
<path fill="#000000" d="
  M 44.78 47.49
  Q 44.54 48.33 43.80 48.81
  Q 42.81 49.46 42.98 48.48
  Q 43.10 47.81 43.68 47.46
  Q 45.02 46.67 44.78 47.49
  Z"
/>
<ellipse fill="#bab9b9" cx="0.00" cy="0.00" transform="translate(37.47,49.06) rotate(88.7)" rx="1.68" ry="0.52"/>
<path fill="#fec505" d="
  M 43.00 55.96
  L 42.99 54.60
  Q 43.30 53.78 42.08 52.84
  A 1.44 1.26 -25.9 0 0 41.16 52.59
  C 36.12 53.05 30.71 54.29 25.56 54.62
  Q 19.02 55.05 12.53 55.98
  C 12.45 55.99 9.46 55.83 12.05 55.22
  Q 18.70 53.66 29.98 50.45
  Q 33.21 49.53 35.10 48.48
  A 0.64 0.35 -22.9 0 1 35.96 48.56
  L 36.00 49.75
  A 1.46 0.45 -86.8 0 0 36.26 50.81
  Q 38.50 53.03 39.09 49.55
  A 0.86 0.83 22.8 0 1 40.43 49.03
  Q 43.37 51.12 45.04 54.21
  A 1.17 0.92 44.3 0 1 45.15 55.07
  Q 44.78 56.23 43.00 55.96
  Z"
/>
<path fill="#888888" d="
  M 63.96 51.96
  Q 63.79 49.22 64.92 51.64
  L 70.81 64.25
  A 0.57 0.56 -10.1 0 1 70.25 65.05
  L 67.74 64.85
  A 1.28 0.66 72.0 0 1 66.94 64.06
  Q 64.36 58.27 63.96 51.96
  Z"
/>
<path fill="#888888" d="
  M 115.29 70.50
  L 114.97 69.43
  A 1.02 0.95 2.4 0 0 114.34 68.79
  L 102.56 64.75
  Q 109.34 56.84 118.70 52.48
  Q 120.82 51.49 120.92 53.12
  A 1.26 1.01 -29.0 0 1 120.56 53.99
  Q 115.12 59.68 108.53 63.88
  C 108.21 64.08 107.51 65.12 108.92 64.55
  Q 118.99 60.47 129.63 58.18
  Q 132.08 57.65 133.01 57.90
  Q 135.80 58.62 133.19 59.85
  Q 124.59 63.89 115.63 65.37
  C 115.13 65.45 113.83 66.02 114.83 66.57
  A 3.76 2.58 -27.1 0 0 117.01 66.85
  Q 127.96 64.98 139.06 64.97
  A 0.69 0.54 -7.5 0 1 139.68 65.34
  C 140.23 66.98 117.39 70.33 115.29 70.50
  Z"
/>
<path fill="#fb9226" d="
  M 42.99 54.60
  L 43.00 55.96
  L 28.72 55.98
  A 0.49 0.36 1.5 0 1 28.22 55.59
  C 28.24 55.35 28.41 55.21 28.65 55.17
  Q 35.81 54.07 42.99 54.60
  Z"
/>
<path fill="#888888" d="
  M 72.74 64.76
  A 1.82 0.67 74.2 0 1 71.76 63.42
  C 71.49 62.63 69.39 56.22 70.19 55.85
  A 0.81 0.68 59.9 0 1 71.09 56.17
  L 76.76 64.26
  Q 77.37 65.13 76.50 65.06
  L 72.74 64.76
  Z"
/>
<path fill="#14325b" fill-opacity="0.996" d="
  M 12.25 59.46
  L 14.71 64.00
  Q 13.99 66.85 15.42 69.37
  A 0.99 0.98 40.7 0 1 15.49 70.24
  L 14.82 72.02
  Q 14.42 73.06 14.13 71.57
  C 13.79 69.77 13.29 63.88 12.00 63.00
  Q 11.99 61.70 11.30 60.65
  A 1.38 0.69 46.6 0 1 11.03 59.76
  Q 11.21 58.91 12.25 59.46
  Z"
/>
<path fill="#98ccd0" d="
  M 9.00 60.37
  Q 10.98 64.02 8.23 67.44
  Q 5.20 73.98 4.00 80.96
  Q 1.93 81.67 1.37 80.26
  A 1.44 0.99 -52.5 0 1 1.42 79.32
  Q 4.71 71.27 8.67 63.66
  C 9.16 62.70 9.08 61.67 8.71 60.75
  L 9.00 60.37
  Z"
/>
<ellipse fill="#888888" cx="0.00" cy="0.00" transform="translate(130.38,63.43) rotate(-5.9)" rx="2.47" ry="0.37"/>
<path fill="#999999" d="
  M 134.86 68.16
  C 136.67 67.75 152.64 65.01 152.75 67.13
  A 0.59 0.50 89.8 0 1 152.23 67.75
  Q 150.04 67.63 148.31 69.12
  Q 146.47 70.71 144.51 70.02
  Q 139.89 68.38 135.00 68.78
  Q 134.19 68.84 134.29 68.54
  A 0.78 0.43 -5.0 0 1 134.86 68.16
  Z"
/>
<path fill="#31669b" d="
  M 8.23 67.44
  Q 8.76 73.82 7.86 80.04
  A 0.82 0.78 85.6 0 1 7.32 80.70
  Q 5.70 81.23 4.00 80.96
  Q 5.20 73.98 8.23 67.44
  Z"
/>
<path fill="#ffcccb" d="
  M 21.93 69.74
  Q 23.14 75.22 19.65 78.92
  Q 17.17 78.27 16.93 76.79
  A 0.68 0.42 84.0 0 1 17.30 76.02
  Q 18.67 76.05 18.70 75.27
  Q 18.73 74.68 17.51 75.35
  Q 14.00 77.26 18.25 79.04
  Q 19.35 79.65 19.00 80.96
  Q 14.46 81.25 14.15 76.76
  A 1.16 0.95 -28.1 0 1 14.49 75.94
  Q 16.02 74.45 16.06 72.17
  A 1.46 0.55 -44.8 0 1 16.44 71.34
  Q 18.64 68.44 21.93 69.74
  Z"
/>
<path fill="#ff9999" d="
  M 21.93 69.74
  C 23.75 69.75 25.17 70.08 25.94 71.93
  Q 29.64 80.79 19.00 80.96
  Q 19.35 79.65 18.25 79.04
  L 19.65 78.92
  Q 23.14 75.22 21.93 69.74
  Z"
/>
<path fill="#bab9b9" d="
  M 90.25 76.46
  C 82.03 79.28 71.57 79.30 65.94 71.72
  Q 68.61 72.12 70.68 73.86
  Q 71.08 74.20 71.55 74.29
  C 77.09 75.37 83.12 77.42 88.75 75.28
  A 0.84 0.74 -31.7 0 1 89.59 75.42
  Q 90.09 75.92 90.25 76.46
  Z"
/>
<path fill="#000000" d="
  M 19.65 78.92
  L 18.25 79.04
  Q 14.00 77.26 17.51 75.35
  Q 18.73 74.68 18.70 75.27
  Q 18.67 76.05 17.30 76.02
  A 0.68 0.42 84.0 0 0 16.93 76.79
  Q 17.17 78.27 19.65 78.92
  Z"
/>
<path fill="#31669b" d="
  M 9.41 79.65
  C 8.89 73.63 13.65 78.24 14.75 80.32
  A 0.41 0.33 74.0 0 1 14.50 80.91
  L 9.44 80.81
  Q 8.31 80.79 9.03 80.29
  L 9.18 80.19
  A 0.63 0.57 71.0 0 0 9.41 79.65
  Z"
/>
<path fill="#b24e1a" d="
  M 1.69 82.05
  Q 2.12 82.41 2.00 82.99
  A 0.76 0.38 -72.1 0 1 1.31 83.70
  Q 0.88 83.35 1.00 82.76
  A 0.76 0.37 -72.0 0 1 1.69 82.05
  Z"
/>
<path fill="#ee8819" d="
  M 12.05 82.60
  C 13.32 84.98 2.71 83.61 3.35 82.40
  A 1.08 0.79 10.7 0 1 4.25 81.97
  L 11.25 82.08
  A 1.01 0.89 74.3 0 1 12.05 82.60
  Z"
/>
<path fill="#ee8819" d="
  M 18.25 82.79
  L 18.29 83.25
  C 17.14 84.04 10.99 84.63 13.24 82.49
  C 14.39 81.40 17.04 82.12 18.25 82.79
  Z"
/>
<path fill="#b24e1a" d="
  M 22.40 82.26
  C 25.11 81.83 22.74 83.56 22.12 82.65
  A 0.33 0.24 -18.3 0 1 22.40 82.26
  Z"
/>
<path fill="#b24e1a" d="
  M 18.29 83.25
  L 18.25 82.79
  Q 23.27 81.90 18.29 83.25
  Z"
/>
<ellipse fill="#ee8819" cx="0.00" cy="0.00" transform="translate(20.74,85.04) rotate(-8.8)" rx="3.01" ry="0.99"/>
<path fill="#fb9226" d="
  M 6.07 84.89
  Q 9.54 86.35 5.77 87.00
  Q 2.87 87.50 2.99 84.78
  A 0.58 0.45 -85.6 0 1 3.50 84.22
  Q 4.85 84.38 6.07 84.89
  Z"
/>
<path fill="#b24e1a" d="
  M 11.00 86.00
  Q 8.84 86.67 8.02 85.26
  A 0.35 0.33 -16.0 0 1 8.31 84.76
  Q 10.05 84.66 11.00 86.00
  Z"
/>
<path fill="#ee8819" d="
  M 7.29 88.00
  L 7.21 87.50
  C 8.48 86.69 11.04 87.58 11.00 86.00
  L 12.51 85.16
  A 1.31 1.23 -51.1 0 1 13.46 85.03
  C 14.70 85.37 14.22 86.35 13.34 86.72
  Q 10.42 87.94 7.29 88.00
  Z"
/>
<path fill="#ee8819" d="
  M 15.71 85.20
  C 19.25 85.04 15.95 88.07 15.05 86.36
  A 0.79 0.79 74.7 0 1 15.71 85.20
  Z"
/>
<path fill="#ee8819" d="
  M 16.14 89.20
  C 15.90 87.23 19.07 86.51 20.36 87.29
  Q 20.93 87.64 20.41 87.88
  L 16.77 89.54
  A 0.44 0.44 -16.5 0 1 16.14 89.20
  Z"
/>
<path fill="#b24e1a" d="
  M 7.21 87.50
  L 7.29 88.00
  Q 6.60 89.41 8.34 89.06
  Q 9.37 88.86 9.05 89.53
  Q 8.68 90.29 7.81 90.18
  A 1.05 0.94 -8.4 0 1 7.05 89.68
  Q 6.57 88.82 5.49 88.82
  Q 4.20 88.82 5.40 88.29
  L 7.21 87.50
  Z"
/>
<path fill="#fb9226" d="
  M 10.02 89.59
  C 10.89 88.29 16.05 86.54 15.02 89.39
  A 1.07 1.02 -85.6 0 1 14.26 90.07
  L 10.77 90.82
  Q 8.93 91.22 10.02 89.59
  Z"
/>
</svg>
