<?xml version="1.0" encoding="UTF-8" standalone="no"?>
<svg xmlns="http://www.w3.org/2000/svg" version="1.2" baseProfile="tiny" viewBox="0 0 154 153">
<g stroke-width="2.00" fill="none" stroke-linecap="butt">
<path stroke="#494949" vector-effect="non-scaling-stroke" d="
  M 116.71 86.25
  C 111.12 82.39 102.38 83.02 97.05 82.98
  Q 96.47 82.97 96.87 82.59
  Q 97.27 82.21 97.77 82.23
  Q 104.48 82.45 111.04 80.86
  A 0.31 0.30 -28.2 0 0 111.20 80.36
  C 108.86 77.87 96.12 79.63 96.01 78.37
  A 0.39 0.32 -2.0 0 1 96.40 78.02
  C 97.46 78.01 107.70 78.27 107.69 77.55
  A 0.75 0.35 12.6 0 0 107.11 77.10
  Q 102.32 75.78 97.29 75.74
  Q 96.77 75.74 97.25 75.56
  Q 99.86 74.58 102.70 75.05
  C 103.17 75.13 104.33 74.66 103.26 74.23
  Q 99.83 72.82 93.24 73.01
  C 93.24 73.01 90.53 72.33 92.94 72.30
  Q 96.82 72.25 100.82 71.75
  Q 101.33 71.69 100.87 71.46
  Q 96.90 69.45 92.38 70.05
  C 92.09 70.09 89.64 69.77 91.48 69.04
  Q 92.66 68.57 97.75 69.24
  C 98.30 69.32 98.24 68.55 97.77 68.29
  Q 94.40 66.42 90.50 66.93
  Q 88.59 67.18 89.17 66.54
  C 89.73 65.93 92.54 65.95 93.36 65.97
  A 0.81 0.54 12.3 0 0 93.94 65.74
  C 94.99 64.38 81.26 64.20 79.73 64.33"
/>
<path stroke="#5f5f5f" vector-effect="non-scaling-stroke" d="
  M 79.73 64.33
  Q 78.50 64.51 77.65 65.15
  A 0.53 0.50 53.0 0 0 77.57 65.87
  C 80.82 70.38 89.97 82.92 89.70 88.22
  C 89.29 96.50 88.42 103.72 89.84 112.83"
/>
<path stroke="#494949" vector-effect="non-scaling-stroke" d="
  M 89.84 112.83
  C 89.72 116.98 89.47 121.14 91.24 125.05
  C 95.68 134.86 101.55 144.08 109.90 151.04
  Q 110.89 151.87 110.31 150.71
  Q 103.84 137.73 95.54 125.86
  Q 95.14 125.28 94.86 124.77
  Q 92.49 120.33 95.88 123.52
  Q 96.29 123.90 96.68 124.42
  Q 107.10 138.04 122.98 144.73
  Q 123.59 144.99 123.70 144.54
  A 1.04 0.67 35.6 0 0 123.36 143.69
  C 117.45 137.74 110.07 131.88 104.79 127.14
  C 102.76 125.32 94.72 118.50 97.46 118.04
  A 1.35 1.08 52.8 0 1 98.37 118.27
  Q 111.24 127.17 117.04 129.48
  C 119.24 130.36 127.07 133.40 127.54 132.90
  A 0.55 0.43 40.1 0 0 127.39 132.19
  Q 114.96 122.55 100.50 116.47
  C 97.05 115.02 100.46 114.88 101.24 115.11
  Q 115.18 119.20 129.44 121.95
  C 130.20 122.09 131.55 121.66 129.96 121.15
  Q 124.76 119.48 119.71 117.43
  C 112.44 114.50 106.13 112.59 99.20 110.35
  C 96.66 109.53 98.70 108.79 99.99 109.08
  C 109.12 111.13 118.85 111.63 128.16 110.79
  Q 129.02 110.71 128.52 110.25
  Q 127.86 109.63 123.75 109.26
  Q 112.87 108.27 102.11 106.33
  C 100.39 106.02 101.08 104.93 102.23 105.12
  C 106.59 105.86 126.41 106.66 126.76 105.52
  A 0.36 0.25 13.6 0 0 126.45 105.17
  L 117.00 103.46"
/>
<path stroke="#000000" vector-effect="non-scaling-stroke" d="
  M 117.00 103.46
  L 117.75 103.04"
/>
<path stroke="#0a192d" vector-effect="non-scaling-stroke" d="
  M 12.25 59.46
  Q 11.21 58.91 11.03 59.76
  A 1.38 0.69 46.6 0 0 11.30 60.65
  Q 11.99 61.70 12.00 63.00"
/>
<path stroke="#0a192d" vector-effect="non-scaling-stroke" d="
  M 12.00 63.00
  C 13.29 63.88 13.79 69.77 14.13 71.57
  A 0.33 0.30 65.9 0 0 14.63 71.79
  Q 15.36 71.19 15.60 70.29
  A 1.43 1.00 44.0 0 0 15.42 69.37
  Q 13.99 66.85 14.71 64.00"
/>
<path stroke="#4c6668" vector-effect="non-scaling-stroke" d="
  M 8.71 60.75
  C 9.08 61.67 9.16 62.70 8.67 63.66
  Q 4.71 71.27 1.42 79.32
  A 1.44 0.99 -52.5 0 0 1.37 80.26
  Q 1.93 81.67 4.00 80.96"
/>
<path stroke="#19334e" vector-effect="non-scaling-stroke" d="
  M 4.00 80.96
  Q 5.70 81.23 7.32 80.70
  A 0.82 0.78 85.6 0 0 7.86 80.04
  Q 8.76 73.82 8.23 67.44"
/>
<path stroke="#4c6668" vector-effect="non-scaling-stroke" d="
  M 8.23 67.44
  Q 10.98 64.02 9.00 60.37"
/>
<path stroke="#444444" vector-effect="non-scaling-stroke" d="
  M 81.25 77.96
  Q 82.22 78.10 83.06 77.73
  A 0.52 0.49 65.9 0 0 83.30 77.05
  Q 80.97 71.79 76.59 66.99"
/>
<path stroke="#4f4f4f" vector-effect="non-scaling-stroke" d="
  M 76.59 66.99
  Q 71.90 65.54 66.24 65.79
  A 1.75 1.49 54.1 0 1 65.38 65.58
  Q 57.89 61.42 51.28 55.99
  A 0.87 0.78 33.2 0 1 51.02 55.01
  Q 53.19 50.47 53.75 45.52
  Q 54.07 42.70 51.51 43.17
  L 46.76 44.03
  Q 45.71 44.22 46.40 44.85
  L 47.45 45.80
  A 1.33 0.73 33.4 0 1 47.95 46.75
  Q 47.63 49.32 46.73 46.52
  A 1.22 0.51 3.4 0 0 45.75 46.04
  Q 42.58 45.63 39.77 47.01
  Q 38.97 47.40 39.65 47.60
  L 41.31 48.09
  A 1.33 0.53 9.2 0 1 42.13 48.58
  Q 43.11 50.40 44.99 50.08
  A 0.43 0.38 -83.8 0 1 45.39 50.65
  C 44.14 54.37 50.23 56.84 52.40 58.95
  Q 57.48 63.85 62.94 68.30
  C 64.85 69.85 66.58 73.31 69.14 75.07
  Q 74.48 78.74 81.25 77.96"
/>
<path stroke="#939393" vector-effect="non-scaling-stroke" d="
  M 76.59 66.99
  Q 76.82 73.33 81.25 77.96"
/>
<path stroke="#0a192d" vector-effect="non-scaling-stroke" d="
  M 33.85 47.08
  C 34.06 43.47 31.87 48.93 33.45 47.87
  A 1.09 0.86 78.7 0 0 33.85 47.08"
/>
<path stroke="#4f4f4f" vector-effect="non-scaling-stroke" d="
  M 37.5081 50.7396
  A 1.68 0.52 88.7 0 0 37.9899 49.0482
  A 1.68 0.52 88.7 0 0 37.4319 47.3804
  A 1.68 0.52 88.7 0 0 36.9501 49.0718
  A 1.68 0.52 88.7 0 0 37.5081 50.7396"
/>
<path stroke="#7b470f" vector-effect="non-scaling-stroke" d="
  M 43.00 54.60
  Q 35.81 54.07 28.65 55.17
  C 28.41 55.21 28.25 55.35 28.22 55.58
  A 0.45 0.32 1.9 0 0 28.69 55.94
  L 43.75 55.79"
/>
<path stroke="#7f6303" vector-effect="non-scaling-stroke" d="
  M 43.75 55.79
  C 48.65 56.63 40.95 49.37 40.44 49.04
  A 0.89 0.83 22.2 0 0 39.09 49.55
  Q 38.50 53.03 36.26 50.81
  A 1.50 0.52 -85.7 0 1 35.98 49.76
  L 35.94 48.56
  A 0.63 0.34 -22.9 0 0 35.10 48.48
  Q 33.21 49.53 29.98 50.45
  Q 18.70 53.66 12.05 55.22
  C 9.46 55.83 12.45 55.99 12.53 55.98
  Q 19.02 55.04 25.56 54.62
  C 30.71 54.29 36.11 53.00 41.16 52.59
  A 1.37 1.22 -26.5 0 1 42.08 52.84
  Q 43.30 53.78 43.00 54.60"
/>
<path stroke="#faa911" vector-effect="non-scaling-stroke" d="
  M 43.75 55.79
  Q 42.81 56.20 43.00 54.60"
/>
<path stroke="#494949" vector-effect="non-scaling-stroke" d="
  M 105.06 67.29
  C 105.15 67.00 129.08 65.12 131.38 65.14
  Q 133.49 65.15 132.57 63.59
  A 0.84 0.77 -16.9 0 0 131.79 63.22
  Q 122.40 64.09 112.98 64.28
  C 107.65 64.39 102.67 65.34 97.49 66.10
  A 0.34 0.33 -20.1 0 0 97.25 66.60
  C 100.81 72.26 105.07 70.38 110.43 69.59
  C 119.58 68.25 130.07 68.95 139.37 68.97
  C 141.84 68.98 144.14 69.98 146.79 70.04
  A 1.20 1.02 18.6 0 0 147.69 69.68
  Q 149.49 67.67 152.24 67.74
  A 0.74 0.68 10.3 0 0 152.95 67.29
  Q 153.19 66.60 152.04 66.15
  A 3.88 3.83 -40.6 0 0 149.74 65.99
  C 143.97 67.39 138.44 67.56 132.54 66.49
  Q 130.34 66.09 127.49 66.44
  Q 118.58 67.56 105.48 67.68
  A 0.40 0.31 5.5 0 1 105.06 67.29"
/>
<path stroke="#804d4d" vector-effect="non-scaling-stroke" d="
  M 16.92 80.91
  C 20.75 81.56 24.95 81.06 26.60 77.02
  Q 28.76 71.73 21.97 69.53"
/>
<path stroke="#806666" vector-effect="non-scaling-stroke" d="
  M 21.97 69.53
  Q 18.64 68.54 16.44 71.35
  A 1.56 0.52 -46.3 0 0 15.99 72.30
  Q 16.04 74.63 14.33 76.06
  A 0.96 0.89 65.7 0 0 14.03 76.96
  Q 14.54 79.61 16.92 80.91"
/>
<path stroke="#ffb3b2" vector-effect="non-scaling-stroke" d="
  M 21.97 69.53
  Q 23.13 75.13 19.66 78.93"
/>
<path stroke="#806666" vector-effect="non-scaling-stroke" d="
  M 19.66 78.93
  Q 17.16 78.25 16.94 76.80
  A 0.67 0.55 -15.6 0 1 17.40 76.15
  Q 19.90 75.31 18.20 75.24
  C 15.49 75.12 15.48 77.54 17.54 79.00"
/>
<path stroke="#ffb3b2" vector-effect="non-scaling-stroke" d="
  M 17.54 79.00
  Q 19.33 80.62 16.92 80.91"
/>
<path stroke="#804d4d" vector-effect="non-scaling-stroke" d="
  M 17.54 79.00
  L 19.66 78.93"
/>
<path stroke="#19334e" vector-effect="non-scaling-stroke" d="
  M 9.21 80.09
  L 9.01 80.32
  Q 8.57 80.80 9.44 80.81
  L 14.51 80.91
  A 0.41 0.33 73.7 0 0 14.75 80.32
  C 13.65 78.24 8.89 73.63 9.41 79.65
  A 0.67 0.36 -37.5 0 1 9.21 80.09"
/>
<path stroke="#444444" vector-effect="non-scaling-stroke" d="
  M 85.66 106.18
  Q 85.90 106.52 85.94 107.01
  Q 86.90 117.98 88.16 128.97
  Q 88.22 129.49 88.52 129.07
  C 90.88 125.83 89.06 123.33 88.97 120.23
  Q 88.72 112.49 87.53 104.79
  A 1.85 0.78 -88.1 0 0 87.16 103.82
  Q 85.88 102.43 85.42 100.58
  Q 85.26 99.93 85.76 100.29
  C 86.48 100.82 86.99 102.75 87.49 102.90
  A 0.42 0.40 6.5 0 0 88.04 102.49
  L 87.74 99.00
  A 0.83 0.45 11.7 0 0 87.15 98.50
  Q 85.54 98.01 85.51 96.46
  Q 85.49 95.57 85.99 96.33
  Q 88.80 100.61 87.89 94.50
  A 1.26 1.11 -80.0 0 0 87.38 93.66
  C 86.78 93.27 85.06 92.15 85.38 91.43
  A 0.47 0.33 40.9 0 1 86.05 91.50
  Q 89.12 95.06 88.08 89.65
  A 0.83 0.63 4.9 0 0 87.49 89.12
  Q 84.54 88.39 87.78 87.91
  A 0.62 0.42 84.4 0 0 88.12 87.28
  C 87.63 79.72 82.56 79.99 76.68 80.02
  A 0.82 0.77 75.4 0 0 76.04 81.21
  L 78.06 85.23
  A 2.65 2.03 -38.3 0 1 77.38 87.92
  C 72.53 92.80 69.62 100.41 67.95 105.99
  C 65.82 113.14 61.30 117.66 55.64 122.96
  A 1.05 0.73 -32.6 0 0 55.29 123.80
  Q 55.44 124.54 56.56 124.10
  C 63.52 121.40 70.70 110.12 73.96 102.99
  C 75.29 100.10 74.99 104.15 74.84 104.57
  Q 70.58 116.61 63.50 127.23
  C 63.03 127.92 62.84 129.91 64.14 128.14
  C 68.59 122.07 77.47 111.39 77.01 103.67
  C 76.83 100.62 78.49 102.83 78.26 104.54
  Q 76.42 118.21 72.12 131.31
  A 0.38 0.08 -70.9 0 0 72.07 131.69
  Q 72.27 131.78 72.51 131.76
  A 0.64 0.37 -75.1 0 0 72.90 131.37
  C 75.54 125.08 77.31 118.60 79.56 112.00
  Q 81.28 106.96 82.45 101.73
  Q 82.56 101.22 82.66 101.72
  C 83.37 105.44 81.64 107.97 81.76 111.39
  Q 82.14 121.96 81.98 132.54
  A 0.17 0.12 -83.2 0 0 82.06 132.69
  L 82.25 132.75
  A 0.38 0.28 -70.2 0 0 82.63 132.49
  Q 85.99 123.77 85.88 121.76
  Q 85.45 114.02 85.32 106.31
  Q 85.31 105.66 85.66 106.18"
/>
<path stroke="#59270d" vector-effect="non-scaling-stroke" d="
  M 1.00 82.76
  Q 0.88 83.35 1.31 83.70
  A 0.76 0.38 -72.1 0 0 2.00 82.99
  Q 2.12 82.41 1.69 82.05
  A 0.76 0.37 -72.0 0 0 1.00 82.76"
/>
<path stroke="#7b470f" vector-effect="non-scaling-stroke" d="
  M 12.5331 83.0763
  A 4.74 0.94 3.1 0 0 7.8508 81.8814
  A 4.74 0.94 3.1 0 0 3.0669 82.5637
  A 4.74 0.94 3.1 0 0 7.7492 83.7586
  A 4.74 0.94 3.1 0 0 12.5331 83.0763"
/>
<path stroke="#59270d" vector-effect="non-scaling-stroke" d="
  M 18.29 83.25
  Q 23.27 81.90 18.25 82.79"
/>
<path stroke="#7b470f" vector-effect="non-scaling-stroke" d="
  M 18.25 82.79
  C 17.04 82.12 14.39 81.40 13.24 82.49
  C 10.99 84.63 17.14 84.04 18.29 83.25"
/>
<path stroke="#d46e1c" vector-effect="non-scaling-stroke" d="
  M 18.25 82.79
  L 18.29 83.25"
/>
<path stroke="#59270d" vector-effect="non-scaling-stroke" d="
  M 22.12 82.65
  C 22.74 83.56 25.11 81.83 22.40 82.26
  A 0.33 0.24 -18.3 0 0 22.12 82.65"
/>
<path stroke="#7b470f" vector-effect="non-scaling-stroke" d="
  M 23.7146 84.5795
  A 3.01 0.99 -8.8 0 0 20.5885 84.0617
  A 3.01 0.99 -8.8 0 0 17.7654 85.5005
  A 3.01 0.99 -8.8 0 0 20.8915 86.0183
  A 3.01 0.99 -8.8 0 0 23.7146 84.5795"
/>
<path stroke="#7b470f" vector-effect="non-scaling-stroke" d="
  M 6.06 84.94
  Q 4.87 84.29 3.55 84.28
  A 0.56 0.52 1.1 0 0 2.99 84.78
  Q 2.87 87.50 5.77 87.01
  Q 8.88 86.47 6.06 84.94"
/>
<path stroke="#7b470f" vector-effect="non-scaling-stroke" d="
  M 11.00 86.00
  C 11.04 87.58 8.48 86.69 7.21 87.50"
/>
<path stroke="#59270d" vector-effect="non-scaling-stroke" d="
  M 7.21 87.50
  L 5.40 88.29
  Q 4.94 88.49 5.44 88.66
  Q 6.41 88.99 7.11 89.65
  A 1.11 0.17 45.6 0 0 7.81 90.18
  Q 8.68 90.29 9.05 89.53
  Q 9.37 88.86 8.34 89.06
  Q 6.60 89.41 7.29 88.00"
/>
<path stroke="#7b470f" vector-effect="non-scaling-stroke" d="
  M 7.29 88.00
  Q 10.42 87.94 13.34 86.72
  C 14.22 86.35 14.70 85.37 13.46 85.03
  A 1.31 1.23 -51.1 0 0 12.51 85.16
  L 11.00 86.00"
/>
<path stroke="#59270d" vector-effect="non-scaling-stroke" d="
  M 11.00 86.00
  Q 10.05 84.66 8.31 84.76
  A 0.35 0.33 -16.0 0 0 8.02 85.26
  Q 8.84 86.67 11.00 86.00"
/>
<path stroke="#d46e1c" vector-effect="non-scaling-stroke" d="
  M 7.29 88.00
  L 7.21 87.50"
/>
<path stroke="#7b470f" vector-effect="non-scaling-stroke" d="
  M 15.71 85.20
  A 0.79 0.79 74.7 0 0 15.05 86.36
  C 15.95 88.07 19.25 85.04 15.71 85.20"
/>
<path stroke="#7b470f" vector-effect="non-scaling-stroke" d="
  M 20.36 87.29
  C 19.07 86.51 15.90 87.23 16.14 89.20
  A 0.46 0.46 74.3 0 0 16.78 89.56
  L 20.41 87.89
  Q 20.95 87.65 20.36 87.29"
/>
<path stroke="#7b470f" vector-effect="non-scaling-stroke" d="
  M 15.1777 88.5507
  A 2.76 1.24 -16.4 0 0 12.1799 88.1405
  A 2.76 1.24 -16.4 0 0 9.8823 90.1093
  A 2.76 1.24 -16.4 0 0 12.8801 90.5195
  A 2.76 1.24 -16.4 0 0 15.1777 88.5507"
/>
<path stroke="#4f4f4f" vector-effect="non-scaling-stroke" d="
  M 43.1159 48.8352
  A 1.11 0.60 133.5 0 0 44.3152 48.4430
  A 1.11 0.60 133.5 0 0 44.6441 47.2248
  A 1.11 0.60 133.5 0 0 43.4448 47.6170
  A 1.11 0.60 133.5 0 0 43.1159 48.8352"
/>
<path stroke="#6599b6" vector-effect="non-scaling-stroke" d="
  M 8.23 67.44
  Q 5.20 73.98 4.00 80.96"
/>
<path stroke="#494949" vector-effect="non-scaling-stroke" d="
  M 116.25 87.04
  C 114.57 87.01 99.97 86.61 99.89 87.62
  A 0.57 0.42 0.0 0 0 100.49 88.07
  Q 109.92 87.52 119.27 88.98
  C 120.38 89.15 121.32 90.04 119.49 90.52
  Q 115.78 91.49 102.82 92.22
  C 101.98 92.27 100.78 93.29 103.26 92.92
  Q 106.09 92.51 120.20 94.33
  Q 120.70 94.40 120.22 94.53
  Q 111.25 97.00 101.99 98.08
  C 100.39 98.27 100.40 99.09 102.51 99.03
  C 104.31 98.97 124.96 98.41 124.70 99.56
  A 1.00 0.57 -6.6 0 1 123.98 100.09
  Q 121.57 100.66 119.16 101.20
  C 113.64 102.42 107.20 102.11 101.54 102.08
  A 0.40 0.32 -10.8 0 0 101.13 102.55
  C 101.43 103.12 115.29 103.36 117.00 103.46"
/>
<path stroke="#a8a8a8" vector-effect="non-scaling-stroke" d="
  M 89.84 112.83
  Q 91.48 107.64 90.32 102.23
  Q 90.21 101.74 90.36 101.26
  C 91.72 96.77 90.75 92.96 91.38 88.54
  C 92.18 82.99 88.92 78.28 84.66 73.59
  Q 82.10 70.78 79.73 64.33"
/>
</g>
<path fill="#000000" d="
  M 154.02 66.26
  L 154.00 67.81
  Q 152.25 69.09 150.03 69.25
  A 1.56 1.54 -66.1 0 0 149.14 69.60
  C 145.80 72.36 143.51 70.18 140.18 70.05
  C 134.15 69.83 107.27 68.88 103.52 72.14
  A 0.56 0.56 44.4 0 0 103.53 72.99
  Q 104.57 73.83 105.13 75.10
  A 1.32 0.74 5.7 0 0 105.93 75.66
  C 108.45 76.37 109.67 78.18 111.88 79.01
  C 120.77 82.31 109.19 82.00 108.68 82.00
  A 0.67 0.45 0.6 0 0 108.03 82.42
  C 107.96 83.36 117.55 82.42 116.71 86.25
  C 111.12 82.39 102.38 83.02 97.05 82.98
  Q 96.47 82.97 96.87 82.59
  Q 97.27 82.21 97.77 82.23
  Q 104.48 82.45 111.04 80.86
  A 0.31 0.30 -28.2 0 0 111.20 80.36
  C 108.86 77.87 96.12 79.63 96.01 78.37
  A 0.39 0.32 -2.0 0 1 96.40 78.02
  C 97.46 78.01 107.70 78.27 107.69 77.55
  A 0.75 0.35 12.6 0 0 107.11 77.10
  Q 102.32 75.78 97.29 75.74
  Q 96.77 75.74 97.25 75.56
  Q 99.86 74.58 102.70 75.05
  C 103.17 75.13 104.33 74.66 103.26 74.23
  Q 99.83 72.82 93.24 73.01
  C 93.24 73.01 90.53 72.33 92.94 72.30
  Q 96.82 72.25 100.82 71.75
  Q 101.33 71.69 100.87 71.46
  Q 96.90 69.45 92.38 70.05
  C 92.09 70.09 89.64 69.77 91.48 69.04
  Q 92.66 68.57 97.75 69.24
  C 98.30 69.32 98.24 68.55 97.77 68.29
  Q 94.40 66.42 90.50 66.93
  Q 88.59 67.18 89.17 66.54
  C 89.73 65.93 92.54 65.95 93.36 65.97
  A 0.81 0.54 12.3 0 0 93.94 65.74
  C 94.99 64.38 81.26 64.20 79.73 64.33
  Q 78.50 64.51 77.65 65.15
  A 0.53 0.50 53.0 0 0 77.57 65.87
  C 80.82 70.38 89.97 82.92 89.70 88.22
  C 89.29 96.50 88.42 103.72 89.84 112.83
  C 89.72 116.98 89.47 121.14 91.24 125.05
  C 95.68 134.86 101.55 144.08 109.90 151.04
  Q 110.89 151.87 110.31 150.71
  Q 103.84 137.73 95.54 125.86
  Q 95.14 125.28 94.86 124.77
  Q 92.49 120.33 95.88 123.52
  Q 96.29 123.90 96.68 124.42
  Q 107.10 138.04 122.98 144.73
  Q 123.59 144.99 123.70 144.54
  A 1.04 0.67 35.6 0 0 123.36 143.69
  C 117.45 137.74 110.07 131.88 104.79 127.14
  C 102.76 125.32 94.72 118.50 97.46 118.04
  A 1.35 1.08 52.8 0 1 98.37 118.27
  Q 111.24 127.17 117.04 129.48
  C 119.24 130.36 127.07 133.40 127.54 132.90
  A 0.55 0.43 40.1 0 0 127.39 132.19
  Q 114.96 122.55 100.50 116.47
  C 97.05 115.02 100.46 114.88 101.24 115.11
  Q 115.18 119.20 129.44 121.95
  C 130.20 122.09 131.55 121.66 129.96 121.15
  Q 124.76 119.48 119.71 117.43
  C 112.44 114.50 106.13 112.59 99.20 110.35
  C 96.66 109.53 98.70 108.79 99.99 109.08
  C 109.12 111.13 118.85 111.63 128.16 110.79
  Q 129.02 110.71 128.52 110.25
  Q 127.86 109.63 123.75 109.26
  Q 112.87 108.27 102.11 106.33
  C 100.39 106.02 101.08 104.93 102.23 105.12
  C 106.59 105.86 126.41 106.66 126.76 105.52
  A 0.36 0.25 13.6 0 0 126.45 105.17
  L 117.00 103.46
  L 117.75 103.04
  C 119.39 103.13 131.18 103.97 127.14 106.72
  A 1.63 0.57 6.6 0 1 126.25 106.92
  L 117.51 107.10
  A 0.44 0.34 -3.1 0 0 117.07 107.48
  L 117.11 107.81
  A 0.70 0.46 -3.9 0 0 117.83 108.22
  C 119.46 108.13 131.36 107.81 129.72 111.52
  A 0.88 0.72 9.1 0 1 128.97 111.96
  Q 120.60 112.17 112.25 111.78
  Q 111.03 111.72 111.28 112.59
  A 1.00 0.76 3.8 0 0 111.96 113.18
  C 117.14 114.60 121.74 117.05 126.82 118.82
  Q 130.13 119.98 133.27 121.59
  A 1.00 0.66 18.5 0 1 133.82 122.29
  C 133.85 124.91 115.85 120.45 113.98 119.87
  A 1.15 0.24 18.6 0 0 112.99 119.75
  Q 112.27 120.27 111.82 119.43
  A 1.05 0.74 -7.5 0 0 111.00 119.00
  Q 110.40 118.96 110.25 119.50
  A 0.92 0.37 18.7 0 0 110.99 120.13
  C 116.36 121.96 121.99 126.64 127.75 130.80
  Q 132.71 134.38 127.20 134.06
  C 121.76 133.74 114.66 130.22 110.13 127.29
  A 1.84 0.95 -12.4 0 0 109.23 127.05
  C 108.03 126.98 107.11 125.13 105.51 124.70
  A 1.46 1.27 -6.4 0 1 104.74 124.17
  Q 103.54 122.37 103.42 123.69
  A 0.92 0.79 21.0 0 0 103.84 124.47
  Q 107.41 126.81 108.15 127.58
  Q 111.01 130.61 113.21 132.35
  C 117.85 136.03 121.50 139.58 125.02 144.43
  A 0.93 0.93 -22.8 0 1 124.42 145.90
  C 119.28 146.77 106.75 136.93 102.89 133.45
  A 0.61 0.23 47.5 0 0 102.50 133.25
  Q 102.31 133.27 102.18 133.44
  A 0.59 0.32 51.0 0 0 102.29 134.02
  Q 104.13 136.64 105.81 139.38
  C 106.89 141.14 107.57 143.73 109.49 145.98
  Q 111.80 148.69 111.76 152.99
  L 109.94 153.00
  Q 101.06 145.88 95.97 136.78
  C 94.57 134.28 91.92 128.66 90.70 129.03
  A 0.84 0.60 85.9 0 0 90.26 129.75
  Q 90.13 133.15 87.55 130.96
  A 1.69 1.42 -73.1 0 1 87.03 129.74
  Q 87.04 125.68 86.09 126.67
  Q 85.66 127.12 85.42 128.33
  Q 84.67 132.05 82.88 135.41
  A 1.10 0.55 -69.5 0 1 82.25 136.00
  Q 81.89 136.06 81.67 135.82
  A 1.38 0.32 44.0 0 1 81.14 135.00
  C 80.65 130.61 81.20 125.67 81.11 121.99
  Q 81.02 118.38 80.98 114.77
  A 0.27 0.23 90.0 0 0 80.75 114.50
  L 80.50 114.50
  A 0.59 0.59 12.8 0 0 79.99 114.82
  C 78.39 117.99 75.23 133.31 72.40 133.21
  A 1.55 1.52 -81.1 0 1 70.99 131.24
  L 75.90 113.98
  A 0.41 0.08 -74.7 0 0 75.93 113.56
  L 75.76 113.52
  A 0.55 0.51 -69.1 0 0 75.15 113.82
  Q 71.25 121.67 65.43 128.17
  Q 65.21 128.43 65.03 129.02
  Q 64.61 130.43 62.99 130.22
  Q 60.58 129.91 62.44 126.68
  L 70.16 113.26
  A 0.31 0.31 -59.3 0 0 70.05 112.83
  C 69.81 112.68 66.34 117.38 66.02 117.92
  Q 62.80 123.18 56.96 125.40
  C 54.80 126.22 51.81 125.67 53.95 122.46
  Q 54.87 121.07 60.08 116.31
  C 68.79 108.32 68.06 96.14 76.42 87.04
  A 1.07 0.26 -45.9 0 0 76.92 86.19
  L 74.14 79.64
  A 1.41 0.54 12.7 0 0 73.26 79.05
  C 67.40 77.10 66.07 73.66 62.31 69.85
  Q 59.24 66.74 55.82 64.01
  C 53.17 61.90 50.86 58.77 47.64 56.77
  A 1.57 1.38 55.9 0 0 46.72 56.53
  C 35.34 57.56 24.15 56.87 13.31 57.82
  Q 11.88 57.95 12.25 59.46
  Q 11.21 58.91 11.03 59.76
  A 1.38 0.69 46.6 0 0 11.30 60.65
  Q 11.99 61.70 12.00 63.00
  L 11.65 63.00
  A 0.49 0.42 -78.0 0 0 11.22 63.33
  Q 9.72 67.40 10.01 71.73
  A 2.02 0.85 75.4 0 1 9.85 72.83
  Q 7.56 77.05 12.51 75.93
  Q 14.54 75.47 13.79 73.50
  Q 11.86 68.42 12.00 63.00
  C 13.29 63.88 13.79 69.77 14.13 71.57
  A 0.33 0.30 65.9 0 0 14.63 71.79
  Q 15.36 71.19 15.60 70.29
  A 1.43 1.00 44.0 0 0 15.42 69.37
  Q 13.99 66.85 14.71 64.00
  L 16.14 68.32
  A 0.85 0.48 76.9 0 0 16.68 68.91
  Q 18.39 69.04 20.13 65.93
  A 1.14 0.73 -57.7 0 1 21.44 65.32
  Q 21.89 65.67 21.73 66.25
  A 0.98 0.89 30.3 0 0 22.02 67.17
  C 25.88 70.77 31.41 74.28 25.88 79.94
  A 1.28 1.23 68.4 0 0 25.53 80.79
  Q 25.47 83.30 24.06 85.27
  C 17.33 94.67 4.85 93.96 0.00 83.19
  L -0.02 81.93
  C 1.81 74.12 6.05 68.13 8.71 60.75
  C 9.08 61.67 9.16 62.70 8.67 63.66
  Q 4.71 71.27 1.42 79.32
  A 1.44 0.99 -52.5 0 0 1.37 80.26
  Q 1.93 81.67 4.00 80.96
  Q 5.70 81.23 7.32 80.70
  A 0.82 0.78 85.6 0 0 7.86 80.04
  Q 8.76 73.82 8.23 67.44
  Q 10.98 64.02 9.00 60.37
  Q 11.21 57.20 7.82 56.55
  Q 7.33 56.45 7.72 56.16
  C 10.65 53.91 14.19 53.91 16.86 53.17
  Q 23.18 51.42 30.75 49.29
  A 2.20 1.82 88.4 0 0 32.10 47.57
  Q 32.72 43.42 35.29 46.72
  A 0.87 0.65 -25.7 0 0 36.17 46.89
  L 46.83 43.13
  A 4.37 2.96 -37.7 0 1 49.25 42.98
  Q 50.55 43.38 50.46 42.34
  A 0.91 0.30 85.7 0 1 50.70 41.37
  L 53.50 41.50
  A 1.05 0.38 72.2 0 1 54.09 42.26
  C 55.62 46.39 54.26 48.18 53.82 52.21
  A 1.16 1.01 -17.0 0 1 53.34 52.98
  Q 51.55 54.22 53.07 55.67
  Q 56.01 58.47 65.24 63.70
  C 69.38 66.03 74.61 65.22 78.82 63.70
  C 83.89 61.88 89.77 63.78 94.45 64.39
  Q 97.70 64.82 101.55 64.26
  Q 111.88 62.77 122.32 62.80
  C 124.71 62.81 136.11 59.85 133.46 65.40
  A 0.34 0.32 -75.1 0 0 133.72 65.88
  Q 142.76 66.51 144.93 65.66
  Q 149.72 63.81 154.02 66.26
  Z
  M 81.25 77.96
  Q 82.22 78.10 83.06 77.73
  A 0.52 0.49 65.9 0 0 83.30 77.05
  Q 80.97 71.79 76.59 66.99
  Q 71.90 65.54 66.24 65.79
  A 1.75 1.49 54.1 0 1 65.38 65.58
  Q 57.89 61.42 51.28 55.99
  A 0.87 0.78 33.2 0 1 51.02 55.01
  Q 53.19 50.47 53.75 45.52
  Q 54.07 42.70 51.51 43.17
  L 46.76 44.03
  Q 45.71 44.22 46.40 44.85
  L 47.45 45.80
  A 1.33 0.73 33.4 0 1 47.95 46.75
  Q 47.63 49.32 46.73 46.52
  A 1.22 0.51 3.4 0 0 45.75 46.04
  Q 42.58 45.63 39.77 47.01
  Q 38.97 47.40 39.65 47.60
  L 41.31 48.09
  A 1.33 0.53 9.2 0 1 42.13 48.58
  Q 43.11 50.40 44.99 50.08
  A 0.43 0.38 -83.8 0 1 45.39 50.65
  C 44.14 54.37 50.23 56.84 52.40 58.95
  Q 57.48 63.85 62.94 68.30
  C 64.85 69.85 66.58 73.31 69.14 75.07
  Q 74.48 78.74 81.25 77.96
  Z
  M 33.85 47.08
  C 34.06 43.47 31.87 48.93 33.45 47.87
  A 1.09 0.86 78.7 0 0 33.85 47.08
  Z
  M 37.5081 50.7396
  A 1.68 0.52 88.7 0 0 37.9899 49.0482
  A 1.68 0.52 88.7 0 0 37.4319 47.3804
  A 1.68 0.52 88.7 0 0 36.9501 49.0718
  A 1.68 0.52 88.7 0 0 37.5081 50.7396
  Z
  M 43.00 54.60
  Q 35.81 54.07 28.65 55.17
  C 28.41 55.21 28.25 55.35 28.22 55.58
  A 0.45 0.32 1.9 0 0 28.69 55.94
  L 43.75 55.79
  C 48.65 56.63 40.95 49.37 40.44 49.04
  A 0.89 0.83 22.2 0 0 39.09 49.55
  Q 38.50 53.03 36.26 50.81
  A 1.50 0.52 -85.7 0 1 35.98 49.76
  L 35.94 48.56
  A 0.63 0.34 -22.9 0 0 35.10 48.48
  Q 33.21 49.53 29.98 50.45
  Q 18.70 53.66 12.05 55.22
  C 9.46 55.83 12.45 55.99 12.53 55.98
  Q 19.02 55.04 25.56 54.62
  C 30.71 54.29 36.11 53.00 41.16 52.59
  A 1.37 1.22 -26.5 0 1 42.08 52.84
  Q 43.30 53.78 43.00 54.60
  Z
  M 105.06 67.29
  C 105.15 67.00 129.08 65.12 131.38 65.14
  Q 133.49 65.15 132.57 63.59
  A 0.84 0.77 -16.9 0 0 131.79 63.22
  Q 122.40 64.09 112.98 64.28
  C 107.65 64.39 102.67 65.34 97.49 66.10
  A 0.34 0.33 -20.1 0 0 97.25 66.60
  C 100.81 72.26 105.07 70.38 110.43 69.59
  C 119.58 68.25 130.07 68.95 139.37 68.97
  C 141.84 68.98 144.14 69.98 146.79 70.04
  A 1.20 1.02 18.6 0 0 147.69 69.68
  Q 149.49 67.67 152.24 67.74
  A 0.74 0.68 10.3 0 0 152.95 67.29
  Q 153.19 66.60 152.04 66.15
  A 3.88 3.83 -40.6 0 0 149.74 65.99
  C 143.97 67.39 138.44 67.56 132.54 66.49
  Q 130.34 66.09 127.49 66.44
  Q 118.58 67.56 105.48 67.68
  A 0.40 0.31 5.5 0 1 105.06 67.29
  Z
  M 16.92 80.91
  C 20.75 81.56 24.95 81.06 26.60 77.02
  Q 28.76 71.73 21.97 69.53
  Q 18.64 68.54 16.44 71.35
  A 1.56 0.52 -46.3 0 0 15.99 72.30
  Q 16.04 74.63 14.33 76.06
  A 0.96 0.89 65.7 0 0 14.03 76.96
  Q 14.54 79.61 16.92 80.91
  Z
  M 9.21 80.09
  L 9.01 80.32
  Q 8.57 80.80 9.44 80.81
  L 14.51 80.91
  A 0.41 0.33 73.7 0 0 14.75 80.32
  C 13.65 78.24 8.89 73.63 9.41 79.65
  A 0.67 0.36 -37.5 0 1 9.21 80.09
  Z
  M 85.66 106.18
  Q 85.90 106.52 85.94 107.01
  Q 86.90 117.98 88.16 128.97
  Q 88.22 129.49 88.52 129.07
  C 90.88 125.83 89.06 123.33 88.97 120.23
  Q 88.72 112.49 87.53 104.79
  A 1.85 0.78 -88.1 0 0 87.16 103.82
  Q 85.88 102.43 85.42 100.58
  Q 85.26 99.93 85.76 100.29
  C 86.48 100.82 86.99 102.75 87.49 102.90
  A 0.42 0.40 6.5 0 0 88.04 102.49
  L 87.74 99.00
  A 0.83 0.45 11.7 0 0 87.15 98.50
  Q 85.54 98.01 85.51 96.46
  Q 85.49 95.57 85.99 96.33
  Q 88.80 100.61 87.89 94.50
  A 1.26 1.11 -80.0 0 0 87.38 93.66
  C 86.78 93.27 85.06 92.15 85.38 91.43
  A 0.47 0.33 40.9 0 1 86.05 91.50
  Q 89.12 95.06 88.08 89.65
  A 0.83 0.63 4.9 0 0 87.49 89.12
  Q 84.54 88.39 87.78 87.91
  A 0.62 0.42 84.4 0 0 88.12 87.28
  C 87.63 79.72 82.56 79.99 76.68 80.02
  A 0.82 0.77 75.4 0 0 76.04 81.21
  L 78.06 85.23
  A 2.65 2.03 -38.3 0 1 77.38 87.92
  C 72.53 92.80 69.62 100.41 67.95 105.99
  C 65.82 113.14 61.30 117.66 55.64 122.96
  A 1.05 0.73 -32.6 0 0 55.29 123.80
  Q 55.44 124.54 56.56 124.10
  C 63.52 121.40 70.70 110.12 73.96 102.99
  C 75.29 100.10 74.99 104.15 74.84 104.57
  Q 70.58 116.61 63.50 127.23
  C 63.03 127.92 62.84 129.91 64.14 128.14
  C 68.59 122.07 77.47 111.39 77.01 103.67
  C 76.83 100.62 78.49 102.83 78.26 104.54
  Q 76.42 118.21 72.12 131.31
  A 0.38 0.08 -70.9 0 0 72.07 131.69
  Q 72.27 131.78 72.51 131.76
  A 0.64 0.37 -75.1 0 0 72.90 131.37
  C 75.54 125.08 77.31 118.60 79.56 112.00
  Q 81.28 106.96 82.45 101.73
  Q 82.56 101.22 82.66 101.72
  C 83.37 105.44 81.64 107.97 81.76 111.39
  Q 82.14 121.96 81.98 132.54
  A 0.17 0.12 -83.2 0 0 82.06 132.69
  L 82.25 132.75
  A 0.38 0.28 -70.2 0 0 82.63 132.49
  Q 85.99 123.77 85.88 121.76
  Q 85.45 114.02 85.32 106.31
  Q 85.31 105.66 85.66 106.18
  Z
  M 1.00 82.76
  Q 0.88 83.35 1.31 83.70
  A 0.76 0.38 -72.1 0 0 2.00 82.99
  Q 2.12 82.41 1.69 82.05
  A 0.76 0.37 -72.0 0 0 1.00 82.76
  Z
  M 12.5331 83.0763
  A 4.74 0.94 3.1 0 0 7.8508 81.8814
  A 4.74 0.94 3.1 0 0 3.0669 82.5637
  A 4.74 0.94 3.1 0 0 7.7492 83.7586
  A 4.74 0.94 3.1 0 0 12.5331 83.0763
  Z
  M 18.29 83.25
  Q 23.27 81.90 18.25 82.79
  C 17.04 82.12 14.39 81.40 13.24 82.49
  C 10.99 84.63 17.14 84.04 18.29 83.25
  Z
  M 22.12 82.65
  C 22.74 83.56 25.11 81.83 22.40 82.26
  A 0.33 0.24 -18.3 0 0 22.12 82.65
  Z
  M 23.7146 84.5795
  A 3.01 0.99 -8.8 0 0 20.5885 84.0617
  A 3.01 0.99 -8.8 0 0 17.7654 85.5005
  A 3.01 0.99 -8.8 0 0 20.8915 86.0183
  A 3.01 0.99 -8.8 0 0 23.7146 84.5795
  Z
  M 6.06 84.94
  Q 4.87 84.29 3.55 84.28
  A 0.56 0.52 1.1 0 0 2.99 84.78
  Q 2.87 87.50 5.77 87.01
  Q 8.88 86.47 6.06 84.94
  Z
  M 11.00 86.00
  C 11.04 87.58 8.48 86.69 7.21 87.50
  L 5.40 88.29
  Q 4.94 88.49 5.44 88.66
  Q 6.41 88.99 7.11 89.65
  A 1.11 0.17 45.6 0 0 7.81 90.18
  Q 8.68 90.29 9.05 89.53
  Q 9.37 88.86 8.34 89.06
  Q 6.60 89.41 7.29 88.00
  Q 10.42 87.94 13.34 86.72
  C 14.22 86.35 14.70 85.37 13.46 85.03
  A 1.31 1.23 -51.1 0 0 12.51 85.16
  L 11.00 86.00
  Q 10.05 84.66 8.31 84.76
  A 0.35 0.33 -16.0 0 0 8.02 85.26
  Q 8.84 86.67 11.00 86.00
  Z
  M 15.71 85.20
  A 0.79 0.79 74.7 0 0 15.05 86.36
  C 15.95 88.07 19.25 85.04 15.71 85.20
  Z
  M 20.36 87.29
  C 19.07 86.51 15.90 87.23 16.14 89.20
  A 0.46 0.46 74.3 0 0 16.78 89.56
  L 20.41 87.89
  Q 20.95 87.65 20.36 87.29
  Z
  M 15.1777 88.5507
  A 2.76 1.24 -16.4 0 0 12.1799 88.1405
  A 2.76 1.24 -16.4 0 0 9.8823 90.1093
  A 2.76 1.24 -16.4 0 0 12.8801 90.5195
  A 2.76 1.24 -16.4 0 0 15.1777 88.5507
  Z"
/>
<path fill="#9e9d9d" d="
  M 76.59 66.99
  Q 76.82 73.33 81.25 77.96
  Q 74.48 78.74 69.14 75.07
  C 66.58 73.31 64.85 69.85 62.94 68.30
  Q 57.48 63.85 52.40 58.95
  C 50.23 56.84 44.14 54.37 45.39 50.65
  A 0.43 0.38 -83.8 0 0 44.99 50.08
  Q 43.11 50.40 42.13 48.58
  A 1.33 0.53 9.2 0 0 41.31 48.09
  L 39.65 47.60
  Q 38.97 47.40 39.77 47.01
  Q 42.58 45.63 45.75 46.04
  A 1.22 0.51 3.4 0 1 46.73 46.52
  Q 47.63 49.32 47.95 46.75
  A 1.33 0.73 33.4 0 0 47.45 45.80
  L 46.40 44.85
  Q 45.71 44.22 46.76 44.03
  L 51.51 43.17
  Q 54.07 42.70 53.75 45.52
  Q 53.19 50.47 51.02 55.01
  A 0.87 0.78 33.2 0 0 51.28 55.99
  Q 57.89 61.42 65.38 65.58
  A 1.75 1.49 54.1 0 0 66.24 65.79
  Q 71.90 65.54 76.59 66.99
  Z
  M 43.1159 48.8352
  A 1.11 0.60 133.5 0 0 44.3152 48.4430
  A 1.11 0.60 133.5 0 0 44.6441 47.2248
  A 1.11 0.60 133.5 0 0 43.4448 47.6170
  A 1.11 0.60 133.5 0 0 43.1159 48.8352
  Z"
/>
<path fill="#14325b" fill-opacity="0.996" d="
  M 33.45 47.87
  C 31.87 48.93 34.06 43.47 33.85 47.08
  A 1.09 0.86 78.7 0 1 33.45 47.87
  Z"
/>
<ellipse fill="#000000" cx="0.00" cy="0.00" transform="translate(43.88,48.03) rotate(133.5)" rx="1.11" ry="0.60"/>
<ellipse fill="#9e9d9d" cx="0.00" cy="0.00" transform="translate(37.47,49.06) rotate(88.7)" rx="1.68" ry="0.52"/>
<path fill="#fec505" d="
  M 43.75 55.79
  Q 42.81 56.20 43.00 54.60
  Q 43.30 53.78 42.08 52.84
  A 1.37 1.22 -26.5 0 0 41.16 52.59
  C 36.11 53.00 30.71 54.29 25.56 54.62
  Q 19.02 55.04 12.53 55.98
  C 12.45 55.99 9.46 55.83 12.05 55.22
  Q 18.70 53.66 29.98 50.45
  Q 33.21 49.53 35.10 48.48
  A 0.63 0.34 -22.9 0 1 35.94 48.56
  L 35.98 49.76
  A 1.50 0.52 -85.7 0 0 36.26 50.81
  Q 38.50 53.03 39.09 49.55
  A 0.89 0.83 22.2 0 1 40.44 49.04
  C 40.95 49.37 48.65 56.63 43.75 55.79
  Z"
/>
<path fill="#f58d1d" d="
  M 43.00 54.60
  Q 42.81 56.20 43.75 55.79
  L 28.69 55.94
  A 0.45 0.32 1.9 0 1 28.22 55.58
  C 28.25 55.35 28.41 55.21 28.65 55.17
  Q 35.81 54.07 43.00 54.60
  Z"
/>
<path fill="#14325b" fill-opacity="0.996" d="
  M 12.25 59.46
  L 14.71 64.00
  Q 13.99 66.85 15.42 69.37
  A 1.43 1.00 44.0 0 1 15.60 70.29
  Q 15.36 71.19 14.63 71.79
  A 0.33 0.30 65.9 0 1 14.13 71.57
  C 13.79 69.77 13.29 63.88 12.00 63.00
  Q 11.99 61.70 11.30 60.65
  A 1.38 0.69 46.6 0 1 11.03 59.76
  Q 11.21 58.91 12.25 59.46
  Z"
/>
<path fill="#98ccd0" d="
  M 9.00 60.37
  Q 10.98 64.02 8.23 67.44
  Q 5.20 73.98 4.00 80.96
  Q 1.93 81.67 1.37 80.26
  A 1.44 0.99 -52.5 0 1 1.42 79.32
  Q 4.71 71.27 8.67 63.66
  C 9.16 62.70 9.08 61.67 8.71 60.75
  L 9.00 60.37
  Z"
/>
<path fill="#929292" d="
  M 105.48 67.68
  Q 118.58 67.56 127.49 66.44
  Q 130.34 66.09 132.54 66.49
  C 138.44 67.56 143.97 67.39 149.74 65.99
  A 3.88 3.83 -40.6 0 1 152.04 66.15
  Q 153.19 66.60 152.95 67.29
  A 0.74 0.68 10.3 0 1 152.24 67.74
  Q 149.49 67.67 147.69 69.68
  A 1.20 1.02 18.6 0 1 146.79 70.04
  C 144.14 69.98 141.84 68.98 139.37 68.97
  C 130.07 68.95 119.58 68.25 110.43 69.59
  C 105.07 70.38 100.81 72.26 97.25 66.60
  A 0.34 0.33 -20.1 0 1 97.49 66.10
  C 102.67 65.34 107.65 64.39 112.98 64.28
  Q 122.40 64.09 131.79 63.22
  A 0.84 0.77 -16.9 0 1 132.57 63.59
  Q 133.49 65.15 131.38 65.14
  C 129.08 65.12 105.15 67.00 105.06 67.29
  A 0.40 0.31 5.5 0 0 105.48 67.68
  Z"
/>
<path fill="#929292" d="
  M 116.71 86.25
  L 116.25 87.04
  C 114.57 87.01 99.97 86.61 99.89 87.62
  A 0.57 0.42 0.0 0 0 100.49 88.07
  Q 109.92 87.52 119.27 88.98
  C 120.38 89.15 121.32 90.04 119.49 90.52
  Q 115.78 91.49 102.82 92.22
  C 101.98 92.27 100.78 93.29 103.26 92.92
  Q 106.09 92.51 120.20 94.33
  Q 120.70 94.40 120.22 94.53
  Q 111.25 97.00 101.99 98.08
  C 100.39 98.27 100.40 99.09 102.51 99.03
  C 104.31 98.97 124.96 98.41 124.70 99.56
  A 1.00 0.57 -6.6 0 1 123.98 100.09
  Q 121.57 100.66 119.16 101.20
  C 113.64 102.42 107.20 102.11 101.54 102.08
  A 0.40 0.32 -10.8 0 0 101.13 102.55
  C 101.43 103.12 115.29 103.36 117.00 103.46
  L 126.45 105.17
  A 0.36 0.25 13.6 0 1 126.76 105.52
  C 126.41 106.66 106.59 105.86 102.23 105.12
  C 101.08 104.93 100.39 106.02 102.11 106.33
  Q 112.87 108.27 123.75 109.26
  Q 127.86 109.63 128.52 110.25
  Q 129.02 110.71 128.16 110.79
  C 118.85 111.63 109.12 111.13 99.99 109.08
  C 98.70 108.79 96.66 109.53 99.20 110.35
  C 106.13 112.59 112.44 114.50 119.71 117.43
  Q 124.76 119.48 129.96 121.15
  C 131.55 121.66 130.20 122.09 129.44 121.95
  Q 115.18 119.20 101.24 115.11
  C 100.46 114.88 97.05 115.02 100.50 116.47
  Q 114.96 122.55 127.39 132.19
  A 0.55 0.43 40.1 0 1 127.54 132.90
  C 127.07 133.40 119.24 130.36 117.04 129.48
  Q 111.24 127.17 98.37 118.27
  A 1.35 1.08 52.8 0 0 97.46 118.04
  C 94.72 118.50 102.76 125.32 104.79 127.14
  C 110.07 131.88 117.45 137.74 123.36 143.69
  A 1.04 0.67 35.6 0 1 123.70 144.54
  Q 123.59 144.99 122.98 144.73
  Q 107.10 138.04 96.68 124.42
  Q 96.29 123.90 95.88 123.52
  Q 92.49 120.33 94.86 124.77
  Q 95.14 125.28 95.54 125.86
  Q 103.84 137.73 110.31 150.71
  Q 110.89 151.87 109.90 151.04
  C 101.55 144.08 95.68 134.86 91.24 125.05
  C 89.47 121.14 89.72 116.98 89.84 112.83
  Q 91.48 107.64 90.32 102.23
  Q 90.21 101.74 90.36 101.26
  C 91.72 96.77 90.75 92.96 91.38 88.54
  C 92.18 82.99 88.92 78.28 84.66 73.59
  Q 82.10 70.78 79.73 64.33
  C 81.26 64.20 94.99 64.38 93.94 65.74
  A 0.81 0.54 12.3 0 1 93.36 65.97
  C 92.54 65.95 89.73 65.93 89.17 66.54
  Q 88.59 67.18 90.50 66.93
  Q 94.40 66.42 97.77 68.29
  C 98.24 68.55 98.30 69.32 97.75 69.24
  Q 92.66 68.57 91.48 69.04
  C 89.64 69.77 92.09 70.09 92.38 70.05
  Q 96.90 69.45 100.87 71.46
  Q 101.33 71.69 100.82 71.75
  Q 96.82 72.25 92.94 72.30
  C 90.53 72.33 93.24 73.01 93.24 73.01
  Q 99.83 72.82 103.26 74.23
  C 104.33 74.66 103.17 75.13 102.70 75.05
  Q 99.86 74.58 97.25 75.56
  Q 96.77 75.74 97.29 75.74
  Q 102.32 75.78 107.11 77.10
  A 0.75 0.35 12.6 0 1 107.69 77.55
  C 107.70 78.27 97.46 78.01 96.40 78.02
  A 0.39 0.32 -2.0 0 0 96.01 78.37
  C 96.12 79.63 108.86 77.87 111.20 80.36
  A 0.31 0.30 -28.2 0 1 111.04 80.86
  Q 104.48 82.45 97.77 82.23
  Q 97.27 82.21 96.87 82.59
  Q 96.47 82.97 97.05 82.98
  C 102.38 83.02 111.12 82.39 116.71 86.25
  Z"
/>
<path fill="#bebebe" d="
  M 79.73 64.33
  Q 82.10 70.78 84.66 73.59
  C 88.92 78.28 92.18 82.99 91.38 88.54
  C 90.75 92.96 91.72 96.77 90.36 101.26
  Q 90.21 101.74 90.32 102.23
  Q 91.48 107.64 89.84 112.83
  C 88.42 103.72 89.29 96.50 89.70 88.22
  C 89.97 82.92 80.82 70.38 77.57 65.87
  A 0.53 0.50 53.0 0 1 77.65 65.15
  Q 78.50 64.51 79.73 64.33
  Z"
/>
<path fill="#888888" d="
  M 76.59 66.99
  Q 80.97 71.79 83.30 77.05
  A 0.52 0.49 65.9 0 1 83.06 77.73
  Q 82.22 78.10 81.25 77.96
  Q 76.82 73.33 76.59 66.99
  Z"
/>
<path fill="#31669b" d="
  M 8.23 67.44
  Q 8.76 73.82 7.86 80.04
  A 0.82 0.78 85.6 0 1 7.32 80.70
  Q 5.70 81.23 4.00 80.96
  Q 5.20 73.98 8.23 67.44
  Z"
/>
<path fill="#ffcccb" d="
  M 21.97 69.53
  Q 23.13 75.13 19.66 78.93
  Q 17.16 78.25 16.94 76.80
  A 0.67 0.55 -15.6 0 1 17.40 76.15
  Q 19.90 75.31 18.20 75.24
  C 15.49 75.12 15.48 77.54 17.54 79.00
  Q 19.33 80.62 16.92 80.91
  Q 14.54 79.61 14.03 76.96
  A 0.96 0.89 65.7 0 1 14.33 76.06
  Q 16.04 74.63 15.99 72.30
  A 1.56 0.52 -46.3 0 1 16.44 71.35
  Q 18.64 68.54 21.97 69.53
  Z"
/>
<path fill="#ff9999" d="
  M 21.97 69.53
  Q 28.76 71.73 26.60 77.02
  C 24.95 81.06 20.75 81.56 16.92 80.91
  Q 19.33 80.62 17.54 79.00
  L 19.66 78.93
  Q 23.13 75.13 21.97 69.53
  Z"
/>
<path fill="#000000" d="
  M 19.66 78.93
  L 17.54 79.00
  C 15.48 77.54 15.49 75.12 18.20 75.24
  Q 19.90 75.31 17.40 76.15
  A 0.67 0.55 -15.6 0 0 16.94 76.80
  Q 17.16 78.25 19.66 78.93
  Z"
/>
<path fill="#31669b" d="
  M 9.41 79.65
  C 8.89 73.63 13.65 78.24 14.75 80.32
  A 0.41 0.33 73.7 0 1 14.51 80.91
  L 9.44 80.81
  Q 8.57 80.80 9.01 80.32
  L 9.21 80.09
  A 0.67 0.36 -37.5 0 0 9.41 79.65
  Z"
/>
<path fill="#888888" d="
  M 85.32 106.31
  Q 85.45 114.02 85.88 121.76
  Q 85.99 123.77 82.63 132.49
  A 0.38 0.28 -70.2 0 1 82.25 132.75
  L 82.06 132.69
  A 0.17 0.12 -83.2 0 1 81.98 132.54
  Q 82.14 121.96 81.76 111.39
  C 81.64 107.97 83.37 105.44 82.66 101.72
  Q 82.56 101.22 82.45 101.73
  Q 81.28 106.96 79.56 112.00
  C 77.31 118.60 75.54 125.08 72.90 131.37
  A 0.64 0.37 -75.1 0 1 72.51 131.76
  Q 72.27 131.78 72.07 131.69
  A 0.38 0.08 -70.9 0 1 72.12 131.31
  Q 76.42 118.21 78.26 104.54
  C 78.49 102.83 76.83 100.62 77.01 103.67
  C 77.47 111.39 68.59 122.07 64.14 128.14
  C 62.84 129.91 63.03 127.92 63.50 127.23
  Q 70.58 116.61 74.84 104.57
  C 74.99 104.15 75.29 100.10 73.96 102.99
  C 70.70 110.12 63.52 121.40 56.56 124.10
  Q 55.44 124.54 55.29 123.80
  A 1.05 0.73 -32.6 0 1 55.64 122.96
  C 61.30 117.66 65.82 113.14 67.95 105.99
  C 69.62 100.41 72.53 92.80 77.38 87.92
  A 2.65 2.03 -38.3 0 0 78.06 85.23
  L 76.04 81.21
  A 0.82 0.77 75.4 0 1 76.68 80.02
  C 82.56 79.99 87.63 79.72 88.12 87.28
  A 0.62 0.42 84.4 0 1 87.78 87.91
  Q 84.54 88.39 87.49 89.12
  A 0.83 0.63 4.9 0 1 88.08 89.65
  Q 89.12 95.06 86.05 91.50
  A 0.47 0.33 40.9 0 0 85.38 91.43
  C 85.06 92.15 86.78 93.27 87.38 93.66
  A 1.26 1.11 -80.0 0 1 87.89 94.50
  Q 88.80 100.61 85.99 96.33
  Q 85.49 95.57 85.51 96.46
  Q 85.54 98.01 87.15 98.50
  A 0.83 0.45 11.7 0 1 87.74 99.00
  L 88.04 102.49
  A 0.42 0.40 6.5 0 1 87.49 102.90
  C 86.99 102.75 86.48 100.82 85.76 100.29
  Q 85.26 99.93 85.42 100.58
  Q 85.88 102.43 87.16 103.82
  A 1.85 0.78 -88.1 0 1 87.53 104.79
  Q 88.72 112.49 88.97 120.23
  C 89.06 123.33 90.88 125.83 88.52 129.07
  Q 88.22 129.49 88.16 128.97
  Q 86.90 117.98 85.94 107.01
  Q 85.90 106.52 85.66 106.18
  Q 85.31 105.66 85.32 106.31
  Z"
/>
<path fill="#b24e1a" d="
  M 1.69 82.05
  Q 2.12 82.41 2.00 82.99
  A 0.76 0.38 -72.1 0 1 1.31 83.70
  Q 0.88 83.35 1.00 82.76
  A 0.76 0.37 -72.0 0 1 1.69 82.05
  Z"
/>
<ellipse fill="#f58d1d" cx="0.00" cy="0.00" transform="translate(7.80,82.82) rotate(3.1)" rx="4.74" ry="0.94"/>
<path fill="#f58d1d" d="
  M 18.25 82.79
  L 18.29 83.25
  C 17.14 84.04 10.99 84.63 13.24 82.49
  C 14.39 81.40 17.04 82.12 18.25 82.79
  Z"
/>
<path fill="#b24e1a" d="
  M 22.40 82.26
  C 25.11 81.83 22.74 83.56 22.12 82.65
  A 0.33 0.24 -18.3 0 1 22.40 82.26
  Z"
/>
<path fill="#b24e1a" d="
  M 18.29 83.25
  L 18.25 82.79
  Q 23.27 81.90 18.29 83.25
  Z"
/>
<ellipse fill="#f58d1d" cx="0.00" cy="0.00" transform="translate(20.74,85.04) rotate(-8.8)" rx="3.01" ry="0.99"/>
<path fill="#f58d1d" d="
  M 6.06 84.94
  Q 8.88 86.47 5.77 87.01
  Q 2.87 87.50 2.99 84.78
  A 0.56 0.52 1.1 0 1 3.55 84.28
  Q 4.87 84.29 6.06 84.94
  Z"
/>
<path fill="#b24e1a" d="
  M 11.00 86.00
  Q 8.84 86.67 8.02 85.26
  A 0.35 0.33 -16.0 0 1 8.31 84.76
  Q 10.05 84.66 11.00 86.00
  Z"
/>
<path fill="#f58d1d" d="
  M 7.29 88.00
  L 7.21 87.50
  C 8.48 86.69 11.04 87.58 11.00 86.00
  L 12.51 85.16
  A 1.31 1.23 -51.1 0 1 13.46 85.03
  C 14.70 85.37 14.22 86.35 13.34 86.72
  Q 10.42 87.94 7.29 88.00
  Z"
/>
<path fill="#f58d1d" d="
  M 15.71 85.20
  C 19.25 85.04 15.95 88.07 15.05 86.36
  A 0.79 0.79 74.7 0 1 15.71 85.20
  Z"
/>
<path fill="#f58d1d" d="
  M 16.14 89.20
  C 15.90 87.23 19.07 86.51 20.36 87.29
  Q 20.95 87.65 20.41 87.89
  L 16.78 89.56
  A 0.46 0.46 74.3 0 1 16.14 89.20
  Z"
/>
<path fill="#000000" d="
  M 116.25 87.04
  L 116.25 87.39
  A 0.49 0.34 -0.2 0 0 116.75 87.74
  Q 119.34 87.66 121.56 88.93
  Q 123.64 90.11 121.17 90.88
  Q 118.15 91.83 115.01 91.89
  A 0.77 0.70 5.8 0 0 114.29 92.42
  C 114.04 93.38 119.16 92.94 121.03 93.14
  A 1.06 0.84 -7.5 0 1 121.80 93.60
  C 123.17 96.21 116.50 96.70 115.19 96.85
  A 1.15 0.66 1.1 0 0 114.32 97.33
  L 114.25 97.50
  A 0.43 0.32 13.4 0 0 114.63 97.95
  Q 117.76 98.39 121.65 97.71
  Q 123.30 97.42 124.72 98.29
  C 129.91 101.48 118.66 102.07 117.83 102.04
  A 0.63 0.49 2.0 0 0 117.20 102.50
  Q 117.16 102.97 117.75 103.04
  L 117.00 103.46
  C 115.29 103.36 101.43 103.12 101.13 102.55
  A 0.40 0.32 -10.8 0 1 101.54 102.08
  C 107.20 102.11 113.64 102.42 119.16 101.20
  Q 121.57 100.66 123.98 100.09
  A 1.00 0.57 -6.6 0 0 124.70 99.56
  C 124.96 98.41 104.31 98.97 102.51 99.03
  C 100.40 99.09 100.39 98.27 101.99 98.08
  Q 111.25 97.00 120.22 94.53
  Q 120.70 94.40 120.20 94.33
  Q 106.09 92.51 103.26 92.92
  C 100.78 93.29 101.98 92.27 102.82 92.22
  Q 115.78 91.49 119.49 90.52
  C 121.32 90.04 120.38 89.15 119.27 88.98
  Q 109.92 87.52 100.49 88.07
  A 0.57 0.42 0.0 0 1 99.89 87.62
  C 99.97 86.61 114.57 87.01 116.25 87.04
  Z"
/>
<path fill="#b24e1a" d="
  M 7.21 87.50
  L 7.29 88.00
  Q 6.60 89.41 8.34 89.06
  Q 9.37 88.86 9.05 89.53
  Q 8.68 90.29 7.81 90.18
  A 1.11 0.17 45.6 0 1 7.11 89.65
  Q 6.41 88.99 5.44 88.66
  Q 4.94 88.49 5.40 88.29
  L 7.21 87.50
  Z"
/>
<ellipse fill="#f58d1d" cx="0.00" cy="0.00" transform="translate(12.53,89.33) rotate(-16.4)" rx="2.76" ry="1.24"/>
</svg>
