<?xml version="1.0" encoding="UTF-8" standalone="no"?>
<svg xmlns="http://www.w3.org/2000/svg" version="1.2" baseProfile="tiny" viewBox="0 0 154 153">
<g stroke-width="2.00" fill="none" stroke-linecap="butt">
<path stroke="#0a192d" vector-effect="non-scaling-stroke" d="
  M 12.25 59.46
  Q 11.21 58.91 11.03 59.76
  A 1.38 0.69 46.6 0 0 11.30 60.65
  Q 11.99 61.70 12.00 63.00"
/>
<path stroke="#0a192d" vector-effect="non-scaling-stroke" d="
  M 12.00 63.00
  C 13.29 63.88 13.79 69.77 14.13 71.57
  A 0.33 0.30 65.9 0 0 14.63 71.79
  Q 15.36 71.19 15.60 70.29
  A 1.43 1.00 44.0 0 0 15.42 69.37
  Q 13.99 66.85 14.71 64.00"
/>
<path stroke="#4c6668" vector-effect="non-scaling-stroke" d="
  M 8.71 60.75
  C 9.08 61.67 9.16 62.70 8.67 63.66
  Q 4.71 71.27 1.42 79.32
  A 1.44 0.99 -52.5 0 0 1.37 80.26
  Q 1.93 81.67 4.00 80.96"
/>
<path stroke="#19334e" vector-effect="non-scaling-stroke" d="
  M 4.00 80.96
  Q 5.70 81.23 7.32 80.70
  A 0.82 0.78 85.6 0 0 7.86 80.04
  Q 8.76 73.82 8.23 67.44"
/>
<path stroke="#4c6668" vector-effect="non-scaling-stroke" d="
  M 8.23 67.44
  Q 10.98 64.02 9.00 60.37"
/>
<path stroke="#5f5f60" vector-effect="non-scaling-stroke" d="
  M 86.29 54.00
  Q 87.95 56.73 85.94 58.69
  Q 83.10 61.46 76.25 65.54"
/>
<path stroke="#4d4d4d" vector-effect="non-scaling-stroke" d="
  M 76.25 65.54
  C 71.81 66.35 67.64 66.67 63.47 64.38
  Q 56.97 60.81 51.31 55.85
  A 0.84 0.58 36.3 0 1 51.02 55.01
  Q 53.14 50.60 53.74 45.76
  Q 54.12 42.67 51.02 43.26
  L 47.01 44.03
  A 0.96 0.53 -7.0 0 0 46.24 44.59
  C 46.18 45.38 48.35 45.69 47.73 47.59
  Q 47.57 48.05 47.30 47.62
  L 46.61 46.55
  A 1.30 1.03 -8.2 0 0 45.74 46.04
  Q 42.58 45.62 39.77 47.01
  Q 39.05 47.36 39.64 47.57
  L 41.46 48.19
  A 1.32 0.45 13.4 0 1 42.27 48.70
  Q 43.17 50.45 45.00 50.08
  A 0.37 0.28 -84.9 0 1 45.30 50.55
  Q 44.61 52.99 46.39 54.35
  Q 58.48 63.62 66.35 72.68"
/>
<path stroke="#5f5f60" vector-effect="non-scaling-stroke" d="
  M 66.35 72.68
  Q 77.19 82.11 91.05 75.98"
/>
<path stroke="#4d4d4d" vector-effect="non-scaling-stroke" d="
  M 91.05 75.98
  Q 96.88 74.36 102.46 71.47
  C 105.91 69.67 112.87 69.04 116.61 68.93
  C 126.55 68.63 136.73 68.26 146.55 70.06
  A 1.01 0.62 19.6 0 0 147.39 69.88
  Q 149.30 67.74 152.24 67.75
  A 0.68 0.53 -2.2 0 0 152.93 67.17
  Q 152.84 66.37 150.74 66.05
  Q 150.00 65.93 149.27 66.11
  C 141.70 67.97 135.00 66.30 127.67 66.65
  Q 116.22 67.20 104.74 67.63"
/>
<path stroke="#444444" vector-effect="non-scaling-stroke" d="
  M 104.74 67.63
  C 113.86 65.60 123.07 66.11 132.30 64.86
  A 0.69 0.59 -2.8 0 0 132.88 64.31
  Q 133.01 62.95 131.23 63.12
  C 122.91 63.91 115.26 63.59 107.47 64.73
  Q 97.92 66.12 88.25 66.04"
/>
<path stroke="#4d4d4d" vector-effect="non-scaling-stroke" d="
  M 88.25 66.04
  Q 90.34 64.91 92.75 64.96"
/>
<path stroke="#444444" vector-effect="non-scaling-stroke" d="
  M 92.75 64.96
  C 99.16 65.32 101.95 62.98 107.00 62.79"
/>
<path stroke="#444444" vector-effect="non-scaling-stroke" d="
  M 107.71 62.75
  Q 108.29 62.23 109.74 61.93
  Q 119.64 59.88 133.19 55.77
  Q 133.97 55.54 133.50 55.18
  C 130.94 53.18 104.29 61.90 103.24 60.76
  A 0.47 0.36 -29.0 0 1 103.51 60.13
  C 104.62 59.69 105.76 59.03 106.89 58.77
  Q 120.70 55.55 134.04 50.71
  Q 134.55 50.52 134.04 50.36
  Q 132.92 49.99 131.99 50.26
  Q 119.58 53.85 106.95 56.96
  A 0.51 0.44 -10.9 0 1 106.33 56.60
  C 106.18 55.46 122.45 48.28 131.23 43.82
  Q 131.77 43.55 131.24 43.33
  C 129.41 42.55 120.74 46.70 118.89 47.63
  C 114.45 49.89 109.77 50.78 105.23 52.76
  C 104.10 53.25 101.53 53.10 104.01 51.52
  C 111.21 46.95 118.58 44.17 124.89 38.77
  C 126.43 37.45 125.77 37.01 123.78 37.36
  Q 122.69 37.56 121.57 38.15
  L 102.25 48.45"
/>
<path stroke="#4d4d4d" vector-effect="non-scaling-stroke" d="
  M 102.25 48.45
  L 98.11 50.48
  A 1.54 0.80 -38.0 0 1 97.19 50.65
  Q 95.89 50.36 97.15 49.13
  Q 109.00 37.60 120.70 25.88
  A 0.41 0.36 -53.8 0 0 120.64 25.25
  C 118.25 24.13 107.18 33.65 105.11 35.66
  Q 101.14 39.52 96.59 42.82"
/>
<path stroke="#444444" vector-effect="non-scaling-stroke" d="
  M 96.59 42.82
  Q 99.46 37.23 101.38 32.16
  Q 102.40 29.50 108.45 18.50
  Q 108.71 18.03 108.18 18.06
  C 105.26 18.21 98.16 28.36 96.75 30.96"
/>
<path stroke="#4d4d4d" vector-effect="non-scaling-stroke" d="
  M 96.75 30.96
  Q 93.55 35.35 91.70 40.41
  C 91.28 41.56 89.91 41.79 90.36 40.08
  Q 93.65 27.53 97.02 14.99
  Q 97.78 12.14 95.89 14.37
  Q 87.46 24.31 86.74 37.29
  A 1.00 0.74 81.5 0 1 86.33 38.06
  C 84.60 39.05 82.93 24.62 82.68 23.06
  Q 82.18 19.99 83.24 17.50
  Q 83.95 15.82 83.74 14.01
  Q 83.66 13.34 83.16 13.72
  C 79.91 16.13 79.72 28.18 80.28 31.87
  Q 82.01 43.25 86.29 54.00"
/>
<path stroke="#919191" vector-effect="non-scaling-stroke" d="
  M 96.75 30.96
  Q 98.50 31.92 97.28 33.37
  A 1.47 1.08 70.8 0 0 97.01 34.25
  L 97.14 38.99
  A 1.36 0.41 83.6 0 1 96.96 39.96
  C 95.89 41.22 94.59 41.08 96.59 42.82"
/>
<path stroke="#919191" vector-effect="non-scaling-stroke" d="
  M 102.25 48.45
  Q 101.99 52.13 98.55 53.27
  A 0.74 0.49 -19.7 0 0 98.00 54.00
  Q 98.60 55.41 99.97 56.05
  A 0.59 0.41 28.4 0 1 100.33 56.75
  Q 99.91 57.32 98.78 56.91
  A 0.63 0.63 -73.3 0 0 97.95 57.36
  Q 97.54 59.12 96.43 59.04
  A 1.05 0.52 10.0 0 0 95.53 59.30
  Q 94.70 60.65 96.25 61.02
  A 0.96 0.63 5.2 0 1 96.92 61.55
  C 97.62 64.31 93.13 61.71 92.75 64.96"
/>
<path stroke="#919191" vector-effect="non-scaling-stroke" d="
  M 88.25 66.04
  Q 86.40 66.33 84.90 67.53
  A 1.78 1.59 -64.7 0 1 84.02 67.90
  L 78.54 68.44
  Q 78.04 68.49 78.54 68.60
  Q 91.75 71.44 104.74 67.63"
/>
<path stroke="#acabac" vector-effect="non-scaling-stroke" d="
  M 91.05 75.98
  Q 88.18 75.55 85.30 75.83
  C 79.91 76.36 75.82 75.44 70.86 74.07
  A 1.70 1.27 71.6 0 1 70.08 73.53
  Q 68.56 71.60 66.35 72.68"
/>
<path stroke="#acabac" vector-effect="non-scaling-stroke" d="
  M 76.25 65.54
  Q 81.68 64.50 86.62 60.90
  Q 88.41 59.60 88.05 58.03
  Q 87.80 56.93 88.34 56.08
  A 1.21 0.56 61.0 0 0 88.27 55.13
  Q 87.75 53.84 86.29 54.00"
/>
<path stroke="#444444" vector-effect="non-scaling-stroke" d="
  M 79.20 49.60
  C 74.40 43.25 70.07 39.16 66.34 30.76
  C 66.30 30.67 62.77 25.58 64.77 30.42
  Q 70.64 44.56 82.24 54.50
  Q 84.04 56.05 82.79 57.49
  L 80.57 60.06
  A 0.87 0.45 -42.7 0 0 80.32 60.74
  C 80.89 62.42 85.31 56.89 85.50 56.52
  A 1.28 1.17 51.8 0 0 85.57 55.60
  Q 82.46 46.06 78.08 37.07
  C 76.39 33.59 74.46 28.62 72.08 24.65
  A 0.66 0.49 58.5 0 0 71.33 24.35
  C 69.16 25.65 78.80 46.87 79.99 49.03
  Q 80.25 49.50 79.94 49.77
  A 0.57 0.45 50.8 0 1 79.20 49.60"
/>
<path stroke="#0a192d" vector-effect="non-scaling-stroke" d="
  M 33.1794 47.9588
  A 0.91 0.54 107.3 0 0 33.9656 47.2506
  A 0.91 0.54 107.3 0 0 33.7206 46.2212
  A 0.91 0.54 107.3 0 0 32.9344 46.9294
  A 0.91 0.54 107.3 0 0 33.1794 47.9588"
/>
<path stroke="#4d4d4d" vector-effect="non-scaling-stroke" d="
  M 37.5081 50.7396
  A 1.68 0.52 88.7 0 0 37.9899 49.0482
  A 1.68 0.52 88.7 0 0 37.4319 47.3804
  A 1.68 0.52 88.7 0 0 36.9501 49.0718
  A 1.68 0.52 88.7 0 0 37.5081 50.7396"
/>
<path stroke="#7b470f" vector-effect="non-scaling-stroke" d="
  M 42.96 55.00
  C 39.44 53.09 32.85 55.01 28.74 55.19
  A 0.48 0.14 0.2 0 0 28.31 55.31
  L 28.25 55.50
  A 0.43 0.34 6.1 0 0 28.70 55.94
  L 43.50 55.79"
/>
<path stroke="#7f6303" vector-effect="non-scaling-stroke" d="
  M 43.50 55.79
  C 48.97 57.05 40.92 49.39 40.40 49.02
  A 0.81 0.74 43.8 0 0 39.50 49.00
  Q 39.00 49.37 39.01 50.01
  A 1.48 1.43 65.5 0 1 38.68 50.94
  Q 37.10 52.81 36.26 50.48
  Q 36.02 49.80 36.00 49.50
  L 35.94 48.56
  A 0.65 0.35 -23.8 0 0 35.08 48.49
  Q 33.38 49.46 30.74 50.24
  Q 19.93 53.41 12.05 55.23
  C 9.46 55.82 12.46 55.99 12.53 55.98
  Q 19.00 55.05 25.52 54.63
  C 27.63 54.49 29.99 53.70 32.39 53.69
  Q 34.79 53.69 36.55 53.29
  C 38.12 52.94 43.85 51.28 42.96 55.00"
/>
<path stroke="#faa911" vector-effect="non-scaling-stroke" d="
  M 43.50 55.79
  L 42.96 55.00"
/>
<path stroke="#804d4d" vector-effect="non-scaling-stroke" d="
  M 16.92 80.91
  C 20.75 81.56 24.95 81.06 26.60 77.02
  Q 28.76 71.73 21.97 69.53"
/>
<path stroke="#806666" vector-effect="non-scaling-stroke" d="
  M 21.97 69.53
  Q 18.64 68.54 16.44 71.35
  A 1.56 0.52 -46.3 0 0 15.99 72.30
  Q 16.04 74.63 14.33 76.06
  A 0.96 0.89 65.7 0 0 14.03 76.96
  Q 14.54 79.61 16.92 80.91"
/>
<path stroke="#ffb3b2" vector-effect="non-scaling-stroke" d="
  M 21.97 69.53
  Q 23.13 75.13 19.66 78.93"
/>
<path stroke="#806666" vector-effect="non-scaling-stroke" d="
  M 19.66 78.93
  Q 17.16 78.25 16.94 76.80
  A 0.67 0.55 -15.6 0 1 17.40 76.15
  Q 19.90 75.31 18.20 75.24
  C 15.49 75.12 15.48 77.54 17.54 79.00"
/>
<path stroke="#ffb3b2" vector-effect="non-scaling-stroke" d="
  M 17.54 79.00
  Q 19.33 80.62 16.92 80.91"
/>
<path stroke="#804d4d" vector-effect="non-scaling-stroke" d="
  M 17.54 79.00
  L 19.66 78.93"
/>
<path stroke="#19334e" vector-effect="non-scaling-stroke" d="
  M 9.21 80.09
  L 9.01 80.32
  Q 8.57 80.80 9.44 80.81
  L 14.51 80.91
  A 0.41 0.33 73.7 0 0 14.75 80.32
  C 13.65 78.24 8.89 73.63 9.41 79.65
  A 0.67 0.36 -37.5 0 1 9.21 80.09"
/>
<path stroke="#59270d" vector-effect="non-scaling-stroke" d="
  M 1.00 82.76
  Q 0.88 83.35 1.31 83.70
  A 0.76 0.38 -72.1 0 0 2.00 82.99
  Q 2.12 82.41 1.69 82.05
  A 0.76 0.37 -72.0 0 0 1.00 82.76"
/>
<path stroke="#7b470f" vector-effect="non-scaling-stroke" d="
  M 3.35 82.40
  C 2.71 83.61 13.32 84.98 12.05 82.60
  A 0.94 0.86 -12.3 0 0 11.26 82.14
  L 4.25 82.04
  A 1.11 0.64 8.3 0 0 3.35 82.40"
/>
<path stroke="#59270d" vector-effect="non-scaling-stroke" d="
  M 18.29 83.25
  Q 23.27 81.90 18.25 82.79"
/>
<path stroke="#7b470f" vector-effect="non-scaling-stroke" d="
  M 18.25 82.79
  C 17.04 82.12 14.39 81.40 13.24 82.49
  C 10.99 84.63 17.14 84.04 18.29 83.25"
/>
<path stroke="#d46e1c" vector-effect="non-scaling-stroke" d="
  M 18.25 82.79
  L 18.29 83.25"
/>
<path stroke="#59270d" vector-effect="non-scaling-stroke" d="
  M 22.12 82.65
  C 22.74 83.56 25.11 81.83 22.40 82.26
  A 0.33 0.24 -18.3 0 0 22.12 82.65"
/>
<path stroke="#7b470f" vector-effect="non-scaling-stroke" d="
  M 23.7146 84.5795
  A 3.01 0.99 -8.8 0 0 20.5885 84.0617
  A 3.01 0.99 -8.8 0 0 17.7654 85.5005
  A 3.01 0.99 -8.8 0 0 20.8915 86.0183
  A 3.01 0.99 -8.8 0 0 23.7146 84.5795"
/>
<path stroke="#7b470f" vector-effect="non-scaling-stroke" d="
  M 6.06 84.94
  Q 4.87 84.29 3.55 84.28
  A 0.56 0.52 1.1 0 0 2.99 84.78
  Q 2.87 87.50 5.77 87.01
  Q 8.88 86.47 6.06 84.94"
/>
<path stroke="#7b470f" vector-effect="non-scaling-stroke" d="
  M 11.00 86.00
  C 11.04 87.58 8.48 86.69 7.21 87.50"
/>
<path stroke="#59270d" vector-effect="non-scaling-stroke" d="
  M 7.21 87.50
  L 5.40 88.29
  Q 4.94 88.49 5.44 88.66
  Q 6.41 88.99 7.11 89.65
  A 1.11 0.17 45.6 0 0 7.81 90.18
  Q 8.68 90.29 9.05 89.53
  Q 9.37 88.86 8.34 89.06
  Q 6.60 89.41 7.29 88.00"
/>
<path stroke="#7b470f" vector-effect="non-scaling-stroke" d="
  M 7.29 88.00
  Q 10.42 87.94 13.34 86.72
  C 14.22 86.35 14.70 85.37 13.46 85.03
  A 1.31 1.23 -51.1 0 0 12.51 85.16
  L 11.00 86.00"
/>
<path stroke="#59270d" vector-effect="non-scaling-stroke" d="
  M 11.00 86.00
  Q 10.05 84.66 8.31 84.76
  A 0.35 0.33 -16.0 0 0 8.02 85.26
  Q 8.84 86.67 11.00 86.00"
/>
<path stroke="#d46e1c" vector-effect="non-scaling-stroke" d="
  M 7.29 88.00
  L 7.21 87.50"
/>
<path stroke="#7b470f" vector-effect="non-scaling-stroke" d="
  M 15.71 85.20
  A 0.79 0.79 74.7 0 0 15.05 86.36
  C 15.95 88.07 19.25 85.04 15.71 85.20"
/>
<path stroke="#7b470f" vector-effect="non-scaling-stroke" d="
  M 20.36 87.29
  C 19.07 86.51 15.90 87.23 16.14 89.20
  A 0.46 0.46 74.3 0 0 16.78 89.56
  L 20.41 87.89
  Q 20.95 87.65 20.36 87.29"
/>
<path stroke="#7b470f" vector-effect="non-scaling-stroke" d="
  M 15.1777 88.5507
  A 2.76 1.24 -16.4 0 0 12.1799 88.1405
  A 2.76 1.24 -16.4 0 0 9.8823 90.1093
  A 2.76 1.24 -16.4 0 0 12.8801 90.5195
  A 2.76 1.24 -16.4 0 0 15.1777 88.5507"
/>
<path stroke="#4d4d4d" vector-effect="non-scaling-stroke" d="
  M 43.1159 48.8352
  A 1.11 0.60 133.5 0 0 44.3152 48.4430
  A 1.11 0.60 133.5 0 0 44.6441 47.2248
  A 1.11 0.60 133.5 0 0 43.4448 47.6170
  A 1.11 0.60 133.5 0 0 43.1159 48.8352"
/>
<path stroke="#6599b6" vector-effect="non-scaling-stroke" d="
  M 8.23 67.44
  Q 5.20 73.98 4.00 80.96"
/>
</g>
<path fill="#000000" d="
  M 154.02 66.26
  L 154.00 67.81
  Q 152.22 69.04 150.03 69.25
  A 1.62 1.56 22.2 0 0 149.15 69.60
  C 145.65 72.43 143.54 70.09 140.07 70.00
  C 126.64 69.62 118.17 69.45 108.17 70.82
  Q 105.37 71.21 102.60 72.59
  C 93.50 77.11 81.38 81.91 71.37 77.88
  Q 67.61 76.37 66.66 75.09
  Q 62.05 68.89 56.02 64.14
  C 53.26 61.97 50.93 58.79 47.64 56.76
  A 1.60 1.42 55.7 0 0 46.72 56.53
  C 35.35 57.60 24.15 56.87 13.31 57.82
  Q 11.88 57.95 12.25 59.46
  Q 11.21 58.91 11.03 59.76
  A 1.38 0.69 46.6 0 0 11.30 60.65
  Q 11.99 61.70 12.00 63.00
  Q 11.14 62.78 11.04 63.26
  Q 9.97 68.20 9.34 75.45
  A 0.51 0.43 -87.0 0 0 9.76 76.00
  L 12.31 76.04
  Q 14.81 76.07 13.86 73.60
  Q 11.83 68.32 12.00 63.00
  C 13.29 63.88 13.79 69.77 14.13 71.57
  A 0.33 0.30 65.9 0 0 14.63 71.79
  Q 15.36 71.19 15.60 70.29
  A 1.43 1.00 44.0 0 0 15.42 69.37
  Q 13.99 66.85 14.71 64.00
  L 16.14 68.32
  A 0.85 0.48 76.9 0 0 16.68 68.91
  Q 18.39 69.04 20.13 65.93
  A 1.14 0.73 -57.7 0 1 21.44 65.32
  Q 21.89 65.67 21.73 66.25
  A 0.98 0.89 30.3 0 0 22.02 67.17
  C 25.88 70.77 31.41 74.28 25.88 79.94
  A 1.28 1.23 68.4 0 0 25.53 80.79
  Q 25.47 83.30 24.06 85.27
  C 17.33 94.67 4.85 93.96 0.00 83.19
  L -0.02 81.93
  C 1.81 74.12 6.05 68.13 8.71 60.75
  C 9.08 61.67 9.16 62.70 8.67 63.66
  Q 4.71 71.27 1.42 79.32
  A 1.44 0.99 -52.5 0 0 1.37 80.26
  Q 1.93 81.67 4.00 80.96
  Q 5.70 81.23 7.32 80.70
  A 0.82 0.78 85.6 0 0 7.86 80.04
  Q 8.76 73.82 8.23 67.44
  Q 10.98 64.02 9.00 60.37
  Q 11.21 57.20 7.82 56.55
  Q 7.33 56.45 7.72 56.16
  C 10.65 53.91 14.18 53.92 16.85 53.17
  Q 23.25 51.40 30.74 49.29
  A 2.18 1.81 88.6 0 0 32.10 47.57
  Q 32.71 43.42 35.29 46.72
  A 0.87 0.65 -25.7 0 0 36.17 46.89
  L 46.83 43.13
  A 4.37 3.03 -38.3 0 1 49.25 42.98
  Q 50.55 43.38 50.46 42.34
  A 0.91 0.31 85.7 0 1 50.71 41.37
  L 53.26 41.50
  A 1.11 0.49 68.6 0 1 53.95 42.18
  C 55.77 45.72 54.39 50.98 52.72 54.12
  A 1.25 1.24 -58.5 0 0 53.10 55.72
  Q 59.57 60.31 65.48 63.87
  C 68.21 65.51 70.69 65.06 73.69 64.97
  A 1.49 1.40 23.4 0 0 74.58 64.65
  Q 78.80 61.21 80.41 58.15
  C 81.64 55.80 80.15 54.57 78.57 53.09
  Q 67.57 42.83 62.93 28.52
  Q 62.19 26.25 64.00 26.94
  Q 66.23 27.81 67.01 29.97
  Q 68.22 33.33 73.68 41.35
  A 1.07 0.79 67.4 0 0 74.46 41.82
  Q 75.26 41.80 74.87 40.84
  Q 70.38 29.85 70.09 25.55
  C 69.62 18.73 73.56 23.71 74.30 25.50
  C 75.15 27.54 77.75 35.25 79.13 36.39
  Q 80.53 37.54 79.89 34.96
  C 78.62 29.79 78.04 14.71 84.06 11.95
  A 0.40 0.40 -17.6 0 1 84.62 12.24
  C 85.46 17.34 82.89 21.52 84.71 27.50
  C 85.15 28.93 84.86 30.13 85.15 31.58
  A 0.65 0.48 78.3 0 0 85.75 32.12
  Q 86.27 32.01 86.05 30.96
  A 1.97 1.52 54.7 0 1 86.09 30.00
  C 87.83 24.88 91.87 15.06 96.59 12.11
  C 97.78 11.37 99.20 11.82 98.69 13.48
  C 96.54 20.59 95.80 26.31 93.24 32.05
  A 0.75 0.41 -67.1 0 0 93.33 32.94
  Q 93.64 33.05 93.98 32.98
  A 1.17 0.57 -74.0 0 0 94.62 32.27
  Q 98.70 22.78 107.27 17.16
  C 108.36 16.45 110.96 16.35 109.79 18.58
  C 108.84 20.39 99.63 37.74 100.07 37.95
  A 0.81 0.60 -53.7 0 0 100.87 37.70
  Q 108.39 29.70 118.08 24.56
  C 119.84 23.62 125.51 22.72 121.41 27.16
  Q 117.50 31.41 102.18 46.26
  A 0.38 0.22 -44.2 0 0 102.06 46.69
  L 102.19 46.81
  A 0.21 0.19 53.9 0 0 102.43 46.86
  C 109.44 43.47 116.07 39.00 123.37 36.41
  C 126.66 35.24 128.61 36.96 125.79 39.78
  C 123.26 42.31 120.01 43.73 117.21 45.57
  C 116.77 45.85 111.17 48.34 112.45 49.06
  A 1.03 0.68 -41.4 0 0 113.36 48.93
  Q 120.70 44.34 129.06 42.24
  C 131.75 41.56 135.88 42.97 131.28 45.37
  Q 124.83 48.74 114.44 52.94
  Q 113.69 53.24 114.20 53.85
  A 0.76 0.67 -29.5 0 0 115.02 54.02
  Q 120.02 52.07 130.26 49.74
  Q 133.57 48.98 135.29 49.11
  A 0.78 0.72 -5.2 0 1 135.97 49.63
  C 136.84 52.52 129.38 52.76 129.98 53.51
  A 1.47 1.44 -19.8 0 0 131.16 54.05
  Q 136.10 53.91 134.77 56.08
  A 1.60 1.22 0.7 0 1 134.00 56.65
  Q 127.72 58.83 117.83 61.10
  Q 116.29 61.45 117.16 62.65
  A 0.99 0.89 -18.3 0 0 117.98 63.01
  Q 120.75 62.85 130.22 61.94
  Q 135.11 61.46 133.48 65.46
  A 0.35 0.34 -77.2 0 0 133.77 65.94
  Q 143.15 66.38 144.93 65.68
  Q 149.71 63.80 154.02 66.26
  Z
  M 86.29 54.00
  Q 87.95 56.73 85.94 58.69
  Q 83.10 61.46 76.25 65.54
  C 71.81 66.35 67.64 66.67 63.47 64.38
  Q 56.97 60.81 51.31 55.85
  A 0.84 0.58 36.3 0 1 51.02 55.01
  Q 53.14 50.60 53.74 45.76
  Q 54.12 42.67 51.02 43.26
  L 47.01 44.03
  A 0.96 0.53 -7.0 0 0 46.24 44.59
  C 46.18 45.38 48.35 45.69 47.73 47.59
  Q 47.57 48.05 47.30 47.62
  L 46.61 46.55
  A 1.30 1.03 -8.2 0 0 45.74 46.04
  Q 42.58 45.62 39.77 47.01
  Q 39.05 47.36 39.64 47.57
  L 41.46 48.19
  A 1.32 0.45 13.4 0 1 42.27 48.70
  Q 43.17 50.45 45.00 50.08
  A 0.37 0.28 -84.9 0 1 45.30 50.55
  Q 44.61 52.99 46.39 54.35
  Q 58.48 63.62 66.35 72.68
  Q 77.19 82.11 91.05 75.98
  Q 96.88 74.36 102.46 71.47
  C 105.91 69.67 112.87 69.04 116.61 68.93
  C 126.55 68.63 136.73 68.26 146.55 70.06
  A 1.01 0.62 19.6 0 0 147.39 69.88
  Q 149.30 67.74 152.24 67.75
  A 0.68 0.53 -2.2 0 0 152.93 67.17
  Q 152.84 66.37 150.74 66.05
  Q 150.00 65.93 149.27 66.11
  C 141.70 67.97 135.00 66.30 127.67 66.65
  Q 116.22 67.20 104.74 67.63
  C 113.86 65.60 123.07 66.11 132.30 64.86
  A 0.69 0.59 -2.8 0 0 132.88 64.31
  Q 133.01 62.95 131.23 63.12
  C 122.91 63.91 115.26 63.59 107.47 64.73
  Q 97.92 66.12 88.25 66.04
  Q 90.34 64.91 92.75 64.96
  C 99.16 65.32 101.95 62.98 107.00 62.79
  Q 106.49 63.79 107.27 64.12
  A 0.72 0.66 29.1 0 0 108.11 63.92
  Q 108.52 63.37 107.71 62.75
  Q 108.29 62.23 109.74 61.93
  Q 119.64 59.88 133.19 55.77
  Q 133.97 55.54 133.50 55.18
  C 130.94 53.18 104.29 61.90 103.24 60.76
  A 0.47 0.36 -29.0 0 1 103.51 60.13
  C 104.62 59.69 105.76 59.03 106.89 58.77
  Q 120.70 55.55 134.04 50.71
  Q 134.55 50.52 134.04 50.36
  Q 132.92 49.99 131.99 50.26
  Q 119.58 53.85 106.95 56.96
  A 0.51 0.44 -10.9 0 1 106.33 56.60
  C 106.18 55.46 122.45 48.28 131.23 43.82
  Q 131.77 43.55 131.24 43.33
  C 129.41 42.55 120.74 46.70 118.89 47.63
  C 114.45 49.89 109.77 50.78 105.23 52.76
  C 104.10 53.25 101.53 53.10 104.01 51.52
  C 111.21 46.95 118.58 44.17 124.89 38.77
  C 126.43 37.45 125.77 37.01 123.78 37.36
  Q 122.69 37.56 121.57 38.15
  L 102.25 48.45
  L 98.11 50.48
  A 1.54 0.80 -38.0 0 1 97.19 50.65
  Q 95.89 50.36 97.15 49.13
  Q 109.00 37.60 120.70 25.88
  A 0.41 0.36 -53.8 0 0 120.64 25.25
  C 118.25 24.13 107.18 33.65 105.11 35.66
  Q 101.14 39.52 96.59 42.82
  Q 99.46 37.23 101.38 32.16
  Q 102.40 29.50 108.45 18.50
  Q 108.71 18.03 108.18 18.06
  C 105.26 18.21 98.16 28.36 96.75 30.96
  Q 93.55 35.35 91.70 40.41
  C 91.28 41.56 89.91 41.79 90.36 40.08
  Q 93.65 27.53 97.02 14.99
  Q 97.78 12.14 95.89 14.37
  Q 87.46 24.31 86.74 37.29
  A 1.00 0.74 81.5 0 1 86.33 38.06
  C 84.60 39.05 82.93 24.62 82.68 23.06
  Q 82.18 19.99 83.24 17.50
  Q 83.95 15.82 83.74 14.01
  Q 83.66 13.34 83.16 13.72
  C 79.91 16.13 79.72 28.18 80.28 31.87
  Q 82.01 43.25 86.29 54.00
  Z
  M 79.20 49.60
  C 74.40 43.25 70.07 39.16 66.34 30.76
  C 66.30 30.67 62.77 25.58 64.77 30.42
  Q 70.64 44.56 82.24 54.50
  Q 84.04 56.05 82.79 57.49
  L 80.57 60.06
  A 0.87 0.45 -42.7 0 0 80.32 60.74
  C 80.89 62.42 85.31 56.89 85.50 56.52
  A 1.28 1.17 51.8 0 0 85.57 55.60
  Q 82.46 46.06 78.08 37.07
  C 76.39 33.59 74.46 28.62 72.08 24.65
  A 0.66 0.49 58.5 0 0 71.33 24.35
  C 69.16 25.65 78.80 46.87 79.99 49.03
  Q 80.25 49.50 79.94 49.77
  A 0.57 0.45 50.8 0 1 79.20 49.60
  Z
  M 33.1794 47.9588
  A 0.91 0.54 107.3 0 0 33.9656 47.2506
  A 0.91 0.54 107.3 0 0 33.7206 46.2212
  A 0.91 0.54 107.3 0 0 32.9344 46.9294
  A 0.91 0.54 107.3 0 0 33.1794 47.9588
  Z
  M 37.5081 50.7396
  A 1.68 0.52 88.7 0 0 37.9899 49.0482
  A 1.68 0.52 88.7 0 0 37.4319 47.3804
  A 1.68 0.52 88.7 0 0 36.9501 49.0718
  A 1.68 0.52 88.7 0 0 37.5081 50.7396
  Z
  M 42.96 55.00
  C 39.44 53.09 32.85 55.01 28.74 55.19
  A 0.48 0.14 0.2 0 0 28.31 55.31
  L 28.25 55.50
  A 0.43 0.34 6.1 0 0 28.70 55.94
  L 43.50 55.79
  C 48.97 57.05 40.92 49.39 40.40 49.02
  A 0.81 0.74 43.8 0 0 39.50 49.00
  Q 39.00 49.37 39.01 50.01
  A 1.48 1.43 65.5 0 1 38.68 50.94
  Q 37.10 52.81 36.26 50.48
  Q 36.02 49.80 36.00 49.50
  L 35.94 48.56
  A 0.65 0.35 -23.8 0 0 35.08 48.49
  Q 33.38 49.46 30.74 50.24
  Q 19.93 53.41 12.05 55.23
  C 9.46 55.82 12.46 55.99 12.53 55.98
  Q 19.00 55.05 25.52 54.63
  C 27.63 54.49 29.99 53.70 32.39 53.69
  Q 34.79 53.69 36.55 53.29
  C 38.12 52.94 43.85 51.28 42.96 55.00
  Z
  M 16.92 80.91
  C 20.75 81.56 24.95 81.06 26.60 77.02
  Q 28.76 71.73 21.97 69.53
  Q 18.64 68.54 16.44 71.35
  A 1.56 0.52 -46.3 0 0 15.99 72.30
  Q 16.04 74.63 14.33 76.06
  A 0.96 0.89 65.7 0 0 14.03 76.96
  Q 14.54 79.61 16.92 80.91
  Z
  M 9.21 80.09
  L 9.01 80.32
  Q 8.57 80.80 9.44 80.81
  L 14.51 80.91
  A 0.41 0.33 73.7 0 0 14.75 80.32
  C 13.65 78.24 8.89 73.63 9.41 79.65
  A 0.67 0.36 -37.5 0 1 9.21 80.09
  Z
  M 1.00 82.76
  Q 0.88 83.35 1.31 83.70
  A 0.76 0.38 -72.1 0 0 2.00 82.99
  Q 2.12 82.41 1.69 82.05
  A 0.76 0.37 -72.0 0 0 1.00 82.76
  Z
  M 3.35 82.40
  C 2.71 83.61 13.32 84.98 12.05 82.60
  A 0.94 0.86 -12.3 0 0 11.26 82.14
  L 4.25 82.04
  A 1.11 0.64 8.3 0 0 3.35 82.40
  Z
  M 18.29 83.25
  Q 23.27 81.90 18.25 82.79
  C 17.04 82.12 14.39 81.40 13.24 82.49
  C 10.99 84.63 17.14 84.04 18.29 83.25
  Z
  M 22.12 82.65
  C 22.74 83.56 25.11 81.83 22.40 82.26
  A 0.33 0.24 -18.3 0 0 22.12 82.65
  Z
  M 23.7146 84.5795
  A 3.01 0.99 -8.8 0 0 20.5885 84.0617
  A 3.01 0.99 -8.8 0 0 17.7654 85.5005
  A 3.01 0.99 -8.8 0 0 20.8915 86.0183
  A 3.01 0.99 -8.8 0 0 23.7146 84.5795
  Z
  M 6.06 84.94
  Q 4.87 84.29 3.55 84.28
  A 0.56 0.52 1.1 0 0 2.99 84.78
  Q 2.87 87.50 5.77 87.01
  Q 8.88 86.47 6.06 84.94
  Z
  M 11.00 86.00
  C 11.04 87.58 8.48 86.69 7.21 87.50
  L 5.40 88.29
  Q 4.94 88.49 5.44 88.66
  Q 6.41 88.99 7.11 89.65
  A 1.11 0.17 45.6 0 0 7.81 90.18
  Q 8.68 90.29 9.05 89.53
  Q 9.37 88.86 8.34 89.06
  Q 6.60 89.41 7.29 88.00
  Q 10.42 87.94 13.34 86.72
  C 14.22 86.35 14.70 85.37 13.46 85.03
  A 1.31 1.23 -51.1 0 0 12.51 85.16
  L 11.00 86.00
  Q 10.05 84.66 8.31 84.76
  A 0.35 0.33 -16.0 0 0 8.02 85.26
  Q 8.84 86.67 11.00 86.00
  Z
  M 15.71 85.20
  A 0.79 0.79 74.7 0 0 15.05 86.36
  C 15.95 88.07 19.25 85.04 15.71 85.20
  Z
  M 20.36 87.29
  C 19.07 86.51 15.90 87.23 16.14 89.20
  A 0.46 0.46 74.3 0 0 16.78 89.56
  L 20.41 87.89
  Q 20.95 87.65 20.36 87.29
  Z
  M 15.1777 88.5507
  A 2.76 1.24 -16.4 0 0 12.1799 88.1405
  A 2.76 1.24 -16.4 0 0 9.8823 90.1093
  A 2.76 1.24 -16.4 0 0 12.8801 90.5195
  A 2.76 1.24 -16.4 0 0 15.1777 88.5507
  Z"
/>
<path fill="#999999" d="
  M 96.75 30.96
  Q 98.50 31.92 97.28 33.37
  A 1.47 1.08 70.8 0 0 97.01 34.25
  L 97.14 38.99
  A 1.36 0.41 83.6 0 1 96.96 39.96
  C 95.89 41.22 94.59 41.08 96.59 42.82
  Q 101.14 39.52 105.11 35.66
  C 107.18 33.65 118.25 24.13 120.64 25.25
  A 0.41 0.36 -53.8 0 1 120.70 25.88
  Q 109.00 37.60 97.15 49.13
  Q 95.89 50.36 97.19 50.65
  A 1.54 0.80 -38.0 0 0 98.11 50.48
  L 102.25 48.45
  Q 101.99 52.13 98.55 53.27
  A 0.74 0.49 -19.7 0 0 98.00 54.00
  Q 98.60 55.41 99.97 56.05
  A 0.59 0.41 28.4 0 1 100.33 56.75
  Q 99.91 57.32 98.78 56.91
  A 0.63 0.63 -73.3 0 0 97.95 57.36
  Q 97.54 59.12 96.43 59.04
  A 1.05 0.52 10.0 0 0 95.53 59.30
  Q 94.70 60.65 96.25 61.02
  A 0.96 0.63 5.2 0 1 96.92 61.55
  C 97.62 64.31 93.13 61.71 92.75 64.96
  Q 90.34 64.91 88.25 66.04
  Q 86.40 66.33 84.90 67.53
  A 1.78 1.59 -64.7 0 1 84.02 67.90
  L 78.54 68.44
  Q 78.04 68.49 78.54 68.60
  Q 91.75 71.44 104.74 67.63
  Q 116.22 67.20 127.67 66.65
  C 135.00 66.30 141.70 67.97 149.27 66.11
  Q 150.00 65.93 150.74 66.05
  Q 152.84 66.37 152.93 67.17
  A 0.68 0.53 -2.2 0 1 152.24 67.75
  Q 149.30 67.74 147.39 69.88
  A 1.01 0.62 19.6 0 1 146.55 70.06
  C 136.73 68.26 126.55 68.63 116.61 68.93
  C 112.87 69.04 105.91 69.67 102.46 71.47
  Q 96.88 74.36 91.05 75.98
  Q 88.18 75.55 85.30 75.83
  C 79.91 76.36 75.82 75.44 70.86 74.07
  A 1.70 1.27 71.6 0 1 70.08 73.53
  Q 68.56 71.60 66.35 72.68
  Q 58.48 63.62 46.39 54.35
  Q 44.61 52.99 45.30 50.55
  A 0.37 0.28 -84.9 0 0 45.00 50.08
  Q 43.17 50.45 42.27 48.70
  A 1.32 0.45 13.4 0 0 41.46 48.19
  L 39.64 47.57
  Q 39.05 47.36 39.77 47.01
  Q 42.58 45.62 45.74 46.04
  A 1.30 1.03 -8.2 0 1 46.61 46.55
  L 47.30 47.62
  Q 47.57 48.05 47.73 47.59
  C 48.35 45.69 46.18 45.38 46.24 44.59
  A 0.96 0.53 -7.0 0 1 47.01 44.03
  L 51.02 43.26
  Q 54.12 42.67 53.74 45.76
  Q 53.14 50.60 51.02 55.01
  A 0.84 0.58 36.3 0 0 51.31 55.85
  Q 56.97 60.81 63.47 64.38
  C 67.64 66.67 71.81 66.35 76.25 65.54
  Q 81.68 64.50 86.62 60.90
  Q 88.41 59.60 88.05 58.03
  Q 87.80 56.93 88.34 56.08
  A 1.21 0.56 61.0 0 0 88.27 55.13
  Q 87.75 53.84 86.29 54.00
  Q 82.01 43.25 80.28 31.87
  C 79.72 28.18 79.91 16.13 83.16 13.72
  Q 83.66 13.34 83.74 14.01
  Q 83.95 15.82 83.24 17.50
  Q 82.18 19.99 82.68 23.06
  C 82.93 24.62 84.60 39.05 86.33 38.06
  A 1.00 0.74 81.5 0 0 86.74 37.29
  Q 87.46 24.31 95.89 14.37
  Q 97.78 12.14 97.02 14.99
  Q 93.65 27.53 90.36 40.08
  C 89.91 41.79 91.28 41.56 91.70 40.41
  Q 93.55 35.35 96.75 30.96
  Z
  M 43.1159 48.8352
  A 1.11 0.60 133.5 0 0 44.3152 48.4430
  A 1.11 0.60 133.5 0 0 44.6441 47.2248
  A 1.11 0.60 133.5 0 0 43.4448 47.6170
  A 1.11 0.60 133.5 0 0 43.1159 48.8352
  Z"
/>
<path fill="#888888" d="
  M 96.59 42.82
  C 94.59 41.08 95.89 41.22 96.96 39.96
  A 1.36 0.41 83.6 0 0 97.14 38.99
  L 97.01 34.25
  A 1.47 1.08 70.8 0 1 97.28 33.37
  Q 98.50 31.92 96.75 30.96
  C 98.16 28.36 105.26 18.21 108.18 18.06
  Q 108.71 18.03 108.45 18.50
  Q 102.40 29.50 101.38 32.16
  Q 99.46 37.23 96.59 42.82
  Z"
/>
<path fill="#888888" d="
  M 79.94 49.77
  Q 80.25 49.50 79.99 49.03
  C 78.80 46.87 69.16 25.65 71.33 24.35
  A 0.66 0.49 58.5 0 1 72.08 24.65
  C 74.46 28.62 76.39 33.59 78.08 37.07
  Q 82.46 46.06 85.57 55.60
  A 1.28 1.17 51.8 0 1 85.50 56.52
  C 85.31 56.89 80.89 62.42 80.32 60.74
  A 0.87 0.45 -42.7 0 1 80.57 60.06
  L 82.79 57.49
  Q 84.04 56.05 82.24 54.50
  Q 70.64 44.56 64.77 30.42
  C 62.77 25.58 66.30 30.67 66.34 30.76
  C 70.07 39.16 74.40 43.25 79.20 49.60
  A 0.57 0.45 50.8 0 0 79.94 49.77
  Z"
/>
<path fill="#888888" d="
  M 107.71 62.75
  L 107.00 62.79
  C 101.95 62.98 99.16 65.32 92.75 64.96
  C 93.13 61.71 97.62 64.31 96.92 61.55
  A 0.96 0.63 5.2 0 0 96.25 61.02
  Q 94.70 60.65 95.53 59.30
  A 1.05 0.52 10.0 0 1 96.43 59.04
  Q 97.54 59.12 97.95 57.36
  A 0.63 0.63 -73.3 0 1 98.78 56.91
  Q 99.91 57.32 100.33 56.75
  A 0.59 0.41 28.4 0 0 99.97 56.05
  Q 98.60 55.41 98.00 54.00
  A 0.74 0.49 -19.7 0 1 98.55 53.27
  Q 101.99 52.13 102.25 48.45
  L 121.57 38.15
  Q 122.69 37.56 123.78 37.36
  C 125.77 37.01 126.43 37.45 124.89 38.77
  C 118.58 44.17 111.21 46.95 104.01 51.52
  C 101.53 53.10 104.10 53.25 105.23 52.76
  C 109.77 50.78 114.45 49.89 118.89 47.63
  C 120.74 46.70 129.41 42.55 131.24 43.33
  Q 131.77 43.55 131.23 43.82
  C 122.45 48.28 106.18 55.46 106.33 56.60
  A 0.51 0.44 -10.9 0 0 106.95 56.96
  Q 119.58 53.85 131.99 50.26
  Q 132.92 49.99 134.04 50.36
  Q 134.55 50.52 134.04 50.71
  Q 120.70 55.55 106.89 58.77
  C 105.76 59.03 104.62 59.69 103.51 60.13
  A 0.47 0.36 -29.0 0 0 103.24 60.76
  C 104.29 61.90 130.94 53.18 133.50 55.18
  Q 133.97 55.54 133.19 55.77
  Q 119.64 59.88 109.74 61.93
  Q 108.29 62.23 107.71 62.75
  Z"
/>
<ellipse fill="#14325b" fill-opacity="0.996" cx="0.00" cy="0.00" transform="translate(33.45,47.09) rotate(107.3)" rx="0.91" ry="0.54"/>
<ellipse fill="#000000" cx="0.00" cy="0.00" transform="translate(43.88,48.03) rotate(133.5)" rx="1.11" ry="0.60"/>
<ellipse fill="#999999" cx="0.00" cy="0.00" transform="translate(37.47,49.06) rotate(88.7)" rx="1.68" ry="0.52"/>
<path fill="#fec505" d="
  M 43.50 55.79
  L 42.96 55.00
  C 43.85 51.28 38.12 52.94 36.55 53.29
  Q 34.79 53.69 32.39 53.69
  C 29.99 53.70 27.63 54.49 25.52 54.63
  Q 19.00 55.05 12.53 55.98
  C 12.46 55.99 9.46 55.82 12.05 55.23
  Q 19.93 53.41 30.74 50.24
  Q 33.38 49.46 35.08 48.49
  A 0.65 0.35 -23.8 0 1 35.94 48.56
  L 36.00 49.50
  Q 36.02 49.80 36.26 50.48
  Q 37.10 52.81 38.68 50.94
  A 1.48 1.43 65.5 0 0 39.01 50.01
  Q 39.00 49.37 39.50 49.00
  A 0.81 0.74 43.8 0 1 40.40 49.02
  C 40.92 49.39 48.97 57.05 43.50 55.79
  Z"
/>
<path fill="#f58d1d" d="
  M 42.96 55.00
  L 43.50 55.79
  L 28.70 55.94
  A 0.43 0.34 6.1 0 1 28.25 55.50
  L 28.31 55.31
  A 0.48 0.14 0.2 0 1 28.74 55.19
  C 32.85 55.01 39.44 53.09 42.96 55.00
  Z"
/>
<path fill="#bebdbf" d="
  M 86.29 54.00
  Q 87.75 53.84 88.27 55.13
  A 1.21 0.56 61.0 0 1 88.34 56.08
  Q 87.80 56.93 88.05 58.03
  Q 88.41 59.60 86.62 60.90
  Q 81.68 64.50 76.25 65.54
  Q 83.10 61.46 85.94 58.69
  Q 87.95 56.73 86.29 54.00
  Z"
/>
<path fill="#14325b" fill-opacity="0.996" d="
  M 12.25 59.46
  L 14.71 64.00
  Q 13.99 66.85 15.42 69.37
  A 1.43 1.00 44.0 0 1 15.60 70.29
  Q 15.36 71.19 14.63 71.79
  A 0.33 0.30 65.9 0 1 14.13 71.57
  C 13.79 69.77 13.29 63.88 12.00 63.00
  Q 11.99 61.70 11.30 60.65
  A 1.38 0.69 46.6 0 1 11.03 59.76
  Q 11.21 58.91 12.25 59.46
  Z"
/>
<path fill="#98ccd0" d="
  M 9.00 60.37
  Q 10.98 64.02 8.23 67.44
  Q 5.20 73.98 4.00 80.96
  Q 1.93 81.67 1.37 80.26
  A 1.44 0.99 -52.5 0 1 1.42 79.32
  Q 4.71 71.27 8.67 63.66
  C 9.16 62.70 9.08 61.67 8.71 60.75
  L 9.00 60.37
  Z"
/>
<path fill="#888888" d="
  M 104.74 67.63
  Q 91.75 71.44 78.54 68.60
  Q 78.04 68.49 78.54 68.44
  L 84.02 67.90
  A 1.78 1.59 -64.7 0 0 84.90 67.53
  Q 86.40 66.33 88.25 66.04
  Q 97.92 66.12 107.47 64.73
  C 115.26 63.59 122.91 63.91 131.23 63.12
  Q 133.01 62.95 132.88 64.31
  A 0.69 0.59 -2.8 0 1 132.30 64.86
  C 123.07 66.11 113.86 65.60 104.74 67.63
  Z"
/>
<path fill="#31669b" d="
  M 8.23 67.44
  Q 8.76 73.82 7.86 80.04
  A 0.82 0.78 85.6 0 1 7.32 80.70
  Q 5.70 81.23 4.00 80.96
  Q 5.20 73.98 8.23 67.44
  Z"
/>
<path fill="#ffcccb" d="
  M 21.97 69.53
  Q 23.13 75.13 19.66 78.93
  Q 17.16 78.25 16.94 76.80
  A 0.67 0.55 -15.6 0 1 17.40 76.15
  Q 19.90 75.31 18.20 75.24
  C 15.49 75.12 15.48 77.54 17.54 79.00
  Q 19.33 80.62 16.92 80.91
  Q 14.54 79.61 14.03 76.96
  A 0.96 0.89 65.7 0 1 14.33 76.06
  Q 16.04 74.63 15.99 72.30
  A 1.56 0.52 -46.3 0 1 16.44 71.35
  Q 18.64 68.54 21.97 69.53
  Z"
/>
<path fill="#ff9999" d="
  M 21.97 69.53
  Q 28.76 71.73 26.60 77.02
  C 24.95 81.06 20.75 81.56 16.92 80.91
  Q 19.33 80.62 17.54 79.00
  L 19.66 78.93
  Q 23.13 75.13 21.97 69.53
  Z"
/>
<path fill="#bebdbf" d="
  M 91.05 75.98
  Q 77.19 82.11 66.35 72.68
  Q 68.56 71.60 70.08 73.53
  A 1.70 1.27 71.6 0 0 70.86 74.07
  C 75.82 75.44 79.91 76.36 85.30 75.83
  Q 88.18 75.55 91.05 75.98
  Z"
/>
<path fill="#000000" d="
  M 19.66 78.93
  L 17.54 79.00
  C 15.48 77.54 15.49 75.12 18.20 75.24
  Q 19.90 75.31 17.40 76.15
  A 0.67 0.55 -15.6 0 0 16.94 76.80
  Q 17.16 78.25 19.66 78.93
  Z"
/>
<path fill="#31669b" d="
  M 9.41 79.65
  C 8.89 73.63 13.65 78.24 14.75 80.32
  A 0.41 0.33 73.7 0 1 14.51 80.91
  L 9.44 80.81
  Q 8.57 80.80 9.01 80.32
  L 9.21 80.09
  A 0.67 0.36 -37.5 0 0 9.41 79.65
  Z"
/>
<path fill="#b24e1a" d="
  M 1.69 82.05
  Q 2.12 82.41 2.00 82.99
  A 0.76 0.38 -72.1 0 1 1.31 83.70
  Q 0.88 83.35 1.00 82.76
  A 0.76 0.37 -72.0 0 1 1.69 82.05
  Z"
/>
<path fill="#f58d1d" d="
  M 12.05 82.60
  C 13.32 84.98 2.71 83.61 3.35 82.40
  A 1.11 0.64 8.3 0 1 4.25 82.04
  L 11.26 82.14
  A 0.94 0.86 -12.3 0 1 12.05 82.60
  Z"
/>
<path fill="#f58d1d" d="
  M 18.25 82.79
  L 18.29 83.25
  C 17.14 84.04 10.99 84.63 13.24 82.49
  C 14.39 81.40 17.04 82.12 18.25 82.79
  Z"
/>
<path fill="#b24e1a" d="
  M 22.40 82.26
  C 25.11 81.83 22.74 83.56 22.12 82.65
  A 0.33 0.24 -18.3 0 1 22.40 82.26
  Z"
/>
<path fill="#b24e1a" d="
  M 18.29 83.25
  L 18.25 82.79
  Q 23.27 81.90 18.29 83.25
  Z"
/>
<ellipse fill="#f58d1d" cx="0.00" cy="0.00" transform="translate(20.74,85.04) rotate(-8.8)" rx="3.01" ry="0.99"/>
<path fill="#f58d1d" d="
  M 6.06 84.94
  Q 8.88 86.47 5.77 87.01
  Q 2.87 87.50 2.99 84.78
  A 0.56 0.52 1.1 0 1 3.55 84.28
  Q 4.87 84.29 6.06 84.94
  Z"
/>
<path fill="#b24e1a" d="
  M 11.00 86.00
  Q 8.84 86.67 8.02 85.26
  A 0.35 0.33 -16.0 0 1 8.31 84.76
  Q 10.05 84.66 11.00 86.00
  Z"
/>
<path fill="#f58d1d" d="
  M 7.29 88.00
  L 7.21 87.50
  C 8.48 86.69 11.04 87.58 11.00 86.00
  L 12.51 85.16
  A 1.31 1.23 -51.1 0 1 13.46 85.03
  C 14.70 85.37 14.22 86.35 13.34 86.72
  Q 10.42 87.94 7.29 88.00
  Z"
/>
<path fill="#f58d1d" d="
  M 15.71 85.20
  C 19.25 85.04 15.95 88.07 15.05 86.36
  A 0.79 0.79 74.7 0 1 15.71 85.20
  Z"
/>
<path fill="#f58d1d" d="
  M 16.14 89.20
  C 15.90 87.23 19.07 86.51 20.36 87.29
  Q 20.95 87.65 20.41 87.89
  L 16.78 89.56
  A 0.46 0.46 74.3 0 1 16.14 89.20
  Z"
/>
<path fill="#b24e1a" d="
  M 7.21 87.50
  L 7.29 88.00
  Q 6.60 89.41 8.34 89.06
  Q 9.37 88.86 9.05 89.53
  Q 8.68 90.29 7.81 90.18
  A 1.11 0.17 45.6 0 1 7.11 89.65
  Q 6.41 88.99 5.44 88.66
  Q 4.94 88.49 5.40 88.29
  L 7.21 87.50
  Z"
/>
<ellipse fill="#f58d1d" cx="0.00" cy="0.00" transform="translate(12.53,89.33) rotate(-16.4)" rx="2.76" ry="1.24"/>
</svg>
