<?xml version="1.0" encoding="UTF-8" standalone="no"?>
<svg xmlns="http://www.w3.org/2000/svg" version="1.2" baseProfile="tiny" viewBox="0 0 154 153">
<g stroke-width="2.00" fill="none" stroke-linecap="butt">
<path stroke="#454545" vector-effect="non-scaling-stroke" d="
  M 113.00 93.71
  L 113.37 93.02
  A 1.04 0.62 48.7 0 0 113.20 92.12
  Q 108.96 85.76 103.87 80.08"
/>
<path stroke="#4c4c4c" vector-effect="non-scaling-stroke" d="
  M 103.87 80.08
  Q 112.28 84.02 117.92 90.28
  Q 118.66 91.10 119.26 90.79
  A 0.55 0.46 59.5 0 0 119.38 90.04
  Q 115.20 83.61 108.81 79.46
  C 108.53 79.28 107.70 78.46 108.20 78.31
  A 1.27 0.63 42.4 0 1 109.10 78.57
  C 109.71 78.99 116.52 83.58 116.57 81.71
  A 1.14 0.91 24.3 0 0 116.14 80.87
  L 108.06 74.45
  Q 107.38 73.91 108.26 74.05
  Q 110.17 74.35 111.52 75.70
  A 0.68 0.56 41.9 0 0 112.46 75.74
  C 113.09 74.91 107.77 71.56 107.02 70.99
  Q 105.85 70.09 101.29 69.95
  A 0.38 0.34 12.4 0 1 100.94 69.46
  C 101.57 68.17 109.73 70.54 103.69 66.42
  A 1.59 0.46 40.2 0 0 102.75 66.00
  L 96.25 66.02
  Q 95.54 66.02 96.14 65.60
  C 96.86 65.09 101.25 64.97 98.86 63.89
  C 88.97 59.41 86.16 61.03 77.44 65.27
  Q 76.99 65.49 77.47 65.77
  Q 84.33 69.90 90.54 74.97
  A 0.63 0.50 39.6 0 1 90.71 75.75
  L 89.75 76.96"
/>
<path stroke="#4d6668" vector-effect="non-scaling-stroke" d="
  M 89.75 76.96
  L 83.19 83.38"
/>
<path stroke="#4c4c4c" vector-effect="non-scaling-stroke" d="
  M 83.19 83.38
  Q 81.79 84.05 81.54 85.75"
/>
<path stroke="#4d6668" vector-effect="non-scaling-stroke" d="
  M 81.54 85.75
  Q 80.73 89.57 80.96 93.50"
/>
<path stroke="#4c4c4c" vector-effect="non-scaling-stroke" d="
  M 80.96 93.50
  L 80.25 98.50"
/>
<path stroke="#010100" stroke-opacity="0.667" vector-effect="non-scaling-stroke" d="
  M 68.00 98.75
  L 70.21 97.00"
/>
<path stroke="#454545" vector-effect="non-scaling-stroke" d="
  M 70.21 97.00
  C 69.98 101.76 66.83 106.96 64.26 112.24
  A 0.92 0.56 -58.2 0 0 64.25 113.13
  Q 64.89 113.79 66.80 110.44
  Q 67.34 109.48 67.86 108.08
  L 74.39 90.30
  Q 74.66 89.57 74.75 90.28
  C 75.70 97.39 73.92 105.02 73.01 111.01
  A 0.64 0.47 -81.3 0 0 73.38 111.72
  C 73.85 111.79 77.92 98.00 78.45 96.48
  C 79.90 92.28 78.90 86.58 81.47 83.20
  Q 82.90 81.32 84.59 79.67
  Q 85.00 79.26 84.33 79.43
  Q 77.80 81.02 71.67 78.36
  A 0.40 0.36 -77.6 0 0 71.16 78.72
  Q 70.84 85.46 67.70 90.71
  Q 60.93 102.02 50.66 112.16
  Q 50.32 112.50 50.59 112.65
  A 1.10 1.10 36.5 0 0 51.87 112.46
  C 58.94 105.51 66.75 98.82 71.08 90.33
  Q 71.19 90.11 71.38 90.05
  A 0.28 0.25 89.1 0 1 71.69 90.39
  L 70.38 96.56"
/>
<path stroke="#010100" stroke-opacity="0.667" vector-effect="non-scaling-stroke" d="
  M 70.38 96.56
  Q 67.85 95.95 68.00 98.75"
/>
<path stroke="#0a192d" vector-effect="non-scaling-stroke" d="
  M 12.25 59.46
  Q 11.21 58.91 11.03 59.76
  A 1.38 0.69 46.6 0 0 11.30 60.65
  Q 11.99 61.70 12.00 63.00"
/>
<path stroke="#0a192d" vector-effect="non-scaling-stroke" d="
  M 12.00 63.00
  C 13.29 63.88 13.79 69.77 14.13 71.57
  A 0.33 0.30 65.9 0 0 14.63 71.79
  Q 15.36 71.19 15.60 70.29
  A 1.43 1.00 44.0 0 0 15.42 69.37
  Q 13.99 66.85 14.71 64.00"
/>
<path stroke="#4d6668" vector-effect="non-scaling-stroke" d="
  M 8.71 60.75
  C 9.08 61.67 9.16 62.70 8.67 63.66
  Q 4.71 71.27 1.42 79.32
  A 1.44 0.99 -52.5 0 0 1.37 80.26
  Q 1.93 81.67 4.00 80.96"
/>
<path stroke="#19334e" vector-effect="non-scaling-stroke" d="
  M 4.00 80.96
  Q 5.70 81.23 7.32 80.70
  A 0.82 0.78 85.6 0 0 7.86 80.04
  Q 8.76 73.82 8.23 67.44"
/>
<path stroke="#4d6668" vector-effect="non-scaling-stroke" d="
  M 8.23 67.44
  Q 10.98 64.02 9.00 60.37"
/>
<path stroke="#454545" vector-effect="non-scaling-stroke" d="
  M 86.25 77.46
  Q 87.90 77.10 88.57 75.72
  A 0.67 0.63 32.3 0 0 88.37 74.94
  Q 82.41 70.20 75.75 66.54"
/>
<path stroke="#4c4c4c" vector-effect="non-scaling-stroke" d="
  M 75.75 66.54
  C 72.33 65.84 67.00 66.82 63.92 64.80"
/>
<path stroke="#4f4f4f" vector-effect="non-scaling-stroke" d="
  M 63.92 64.80
  Q 57.33 60.91 51.27 55.97
  A 0.83 0.77 32.5 0 1 51.02 55.01
  Q 53.19 50.48 53.75 45.51
  Q 54.07 42.71 51.52 43.17
  L 46.76 44.03
  A 0.53 0.51 -22.5 0 0 46.41 44.84
  Q 46.77 45.35 47.34 45.67
  A 1.04 0.94 15.3 0 1 47.88 46.51
  Q 47.91 49.51 46.70 46.54
  A 1.25 0.62 1.2 0 0 45.74 46.04
  Q 42.58 45.63 39.77 47.01
  Q 38.99 47.39 39.66 47.60
  L 41.47 48.16
  A 1.39 0.71 7.0 0 1 42.27 48.70
  Q 43.17 50.45 45.00 50.07
  Q 45.93 49.88 45.43 50.70
  L 45.05 51.32
  A 1.11 0.72 52.1 0 0 45.13 52.26
  Q 46.53 54.86 48.94 56.44
  C 53.35 59.32 56.86 63.23 60.90 66.62
  Q 62.62 68.07 65.03 71.00
  Q 72.85 80.53 86.25 77.46"
/>
<path stroke="#9b9b9b" vector-effect="non-scaling-stroke" d="
  M 63.92 64.80
  Q 64.71 71.51 70.98 73.71
  Q 77.42 75.96 84.75 75.96"
/>
<path stroke="#949494" vector-effect="non-scaling-stroke" d="
  M 84.75 75.96
  Q 85.94 76.32 86.25 77.46"
/>
<path stroke="#919090" vector-effect="non-scaling-stroke" d="
  M 75.75 66.54
  C 75.78 68.03 76.28 68.88 77.66 69.61
  Q 81.99 71.91 84.75 75.96"
/>
<path stroke="#6e3907" vector-effect="non-scaling-stroke" d="
  M 33.85 47.08
  C 34.06 43.47 31.87 48.93 33.45 47.87
  A 1.09 0.86 78.7 0 0 33.85 47.08"
/>
<path stroke="#4f4f4f" vector-effect="non-scaling-stroke" d="
  M 37.5081 50.7396
  A 1.68 0.52 88.7 0 0 37.9899 49.0482
  A 1.68 0.52 88.7 0 0 37.4319 47.3804
  A 1.68 0.52 88.7 0 0 36.9501 49.0718
  A 1.68 0.52 88.7 0 0 37.5081 50.7396"
/>
<path stroke="#7b4710" vector-effect="non-scaling-stroke" d="
  M 43.00 54.60
  Q 35.81 54.07 28.65 55.17
  C 28.41 55.21 28.25 55.35 28.22 55.58
  A 0.45 0.32 1.9 0 0 28.69 55.94
  L 43.75 55.79"
/>
<path stroke="#7f6303" vector-effect="non-scaling-stroke" d="
  M 43.75 55.79
  C 48.65 56.63 40.95 49.37 40.44 49.04
  A 0.89 0.83 22.2 0 0 39.09 49.55
  Q 38.50 53.03 36.26 50.81
  A 1.50 0.52 -85.7 0 1 35.98 49.76
  L 35.94 48.56
  A 0.63 0.34 -22.9 0 0 35.10 48.48
  Q 33.21 49.53 29.98 50.45
  Q 18.70 53.66 12.05 55.22
  C 9.46 55.83 12.45 55.99 12.53 55.98
  Q 19.02 55.04 25.56 54.62
  C 30.71 54.29 36.11 53.00 41.16 52.59
  A 1.37 1.22 -26.5 0 1 42.08 52.84
  Q 43.30 53.78 43.00 54.60"
/>
<path stroke="#faaa12" vector-effect="non-scaling-stroke" d="
  M 43.75 55.79
  Q 42.81 56.20 43.00 54.60"
/>
<path stroke="#454545" vector-effect="non-scaling-stroke" d="
  M 132.8403 64.1155
  A 0.98 0.98 0.0 0 0 131.8007 63.1989
  L 106.2712 64.8051
  A 0.98 0.98 0.0 0 0 105.3547 65.8447
  L 105.3597 65.9245
  A 0.98 0.98 0.0 0 0 106.3993 66.8411
  L 131.9288 65.2349
  A 0.98 0.98 0.0 0 0 132.8453 64.1953
  L 132.8403 64.1155"
/>
<path stroke="#4c4c4c" vector-effect="non-scaling-stroke" d="
  M 134.24 66.66
  C 127.92 65.68 121.97 67.36 115.60 67.28
  C 113.05 67.25 110.74 67.84 108.30 68.20
  Q 106.75 68.42 108.17 69.08
  C 110.13 69.99 111.68 69.00 113.28 69.00
  Q 126.45 68.99 139.62 69.01
  C 142.01 69.01 144.22 70.01 146.79 70.04
  A 1.25 1.04 18.0 0 0 147.69 69.68
  Q 149.47 67.63 152.25 67.75
  A 0.67 0.65 9.2 0 0 152.93 67.28
  Q 153.12 66.60 152.06 66.19
  A 4.00 3.96 -40.8 0 0 149.66 66.03
  C 144.46 67.26 139.79 67.53 134.24 66.66"
/>
<path stroke="#804d4d" vector-effect="non-scaling-stroke" d="
  M 16.92 80.91
  C 20.75 81.56 24.95 81.06 26.60 77.02
  Q 28.76 71.73 21.97 69.53"
/>
<path stroke="#806666" vector-effect="non-scaling-stroke" d="
  M 21.97 69.53
  Q 18.64 68.54 16.44 71.35
  A 1.56 0.52 -46.3 0 0 15.99 72.30
  Q 16.04 74.63 14.33 76.06
  A 0.96 0.89 65.7 0 0 14.03 76.96
  Q 14.54 79.61 16.92 80.91"
/>
<path stroke="#ffb3b2" vector-effect="non-scaling-stroke" d="
  M 21.97 69.53
  Q 23.13 75.13 19.66 78.93"
/>
<path stroke="#806666" vector-effect="non-scaling-stroke" d="
  M 19.66 78.93
  Q 17.16 78.25 16.94 76.80
  A 0.67 0.55 -15.6 0 1 17.40 76.15
  Q 19.90 75.31 18.20 75.24
  C 15.49 75.12 15.48 77.54 17.54 79.00"
/>
<path stroke="#ffb3b2" vector-effect="non-scaling-stroke" d="
  M 17.54 79.00
  Q 19.33 80.62 16.92 80.91"
/>
<path stroke="#804d4d" vector-effect="non-scaling-stroke" d="
  M 17.54 79.00
  L 19.66 78.93"
/>
<path stroke="#19334e" vector-effect="non-scaling-stroke" d="
  M 9.21 80.09
  L 9.01 80.32
  Q 8.57 80.80 9.44 80.81
  L 14.51 80.91
  A 0.41 0.33 73.7 0 0 14.75 80.32
  C 13.65 78.24 8.89 73.63 9.41 79.65
  A 0.67 0.36 -37.5 0 1 9.21 80.09"
/>
<path stroke="#6e3907" vector-effect="non-scaling-stroke" d="
  M 1.5000 83.7500
  A 0.87 0.53 90.0 0 0 2.0300 82.8800
  A 0.87 0.53 90.0 0 0 1.5000 82.0100
  A 0.87 0.53 90.0 0 0 0.9700 82.8800
  A 0.87 0.53 90.0 0 0 1.5000 83.7500"
/>
<path stroke="#7b4710" vector-effect="non-scaling-stroke" d="
  M 12.5331 83.0763
  A 4.74 0.94 3.1 0 0 7.8508 81.8814
  A 4.74 0.94 3.1 0 0 3.0669 82.5637
  A 4.74 0.94 3.1 0 0 7.7492 83.7586
  A 4.74 0.94 3.1 0 0 12.5331 83.0763"
/>
<path stroke="#6e3907" vector-effect="non-scaling-stroke" d="
  M 18.29 83.25
  Q 23.27 81.90 18.25 82.79"
/>
<path stroke="#7b4710" vector-effect="non-scaling-stroke" d="
  M 18.25 82.79
  C 17.04 82.12 14.39 81.40 13.24 82.49
  C 10.99 84.63 17.14 84.04 18.29 83.25"
/>
<path stroke="#e98017" vector-effect="non-scaling-stroke" d="
  M 18.25 82.79
  L 18.29 83.25"
/>
<path stroke="#6e3907" vector-effect="non-scaling-stroke" d="
  M 22.12 82.65
  C 22.74 83.56 25.11 81.83 22.40 82.26
  A 0.33 0.24 -18.3 0 0 22.12 82.65"
/>
<path stroke="#7b4710" vector-effect="non-scaling-stroke" d="
  M 23.7146 84.5795
  A 3.01 0.99 -8.8 0 0 20.5885 84.0617
  A 3.01 0.99 -8.8 0 0 17.7654 85.5005
  A 3.01 0.99 -8.8 0 0 20.8915 86.0183
  A 3.01 0.99 -8.8 0 0 23.7146 84.5795"
/>
<path stroke="#7b4710" vector-effect="non-scaling-stroke" d="
  M 6.06 84.94
  Q 4.87 84.29 3.55 84.28
  A 0.56 0.52 1.1 0 0 2.99 84.78
  Q 2.87 87.50 5.77 87.01
  Q 8.88 86.47 6.06 84.94"
/>
<path stroke="#6e3907" vector-effect="non-scaling-stroke" d="
  M 11.00 86.00
  L 10.88 86.51
  A 0.62 0.61 8.7 0 1 10.23 86.98
  Q 7.65 86.79 5.49 88.26
  A 0.31 0.30 44.8 0 0 5.50 88.77
  Q 5.84 88.99 6.25 89.00
  A 1.06 0.32 56.5 0 1 6.92 89.56
  Q 7.50 90.31 8.31 90.10
  A 0.79 0.15 -14.6 0 0 9.01 89.77
  L 8.94 89.06
  A 0.86 0.28 -13.9 0 0 8.00 88.99
  Q 7.33 89.16 6.99 88.78
  A 0.82 0.34 -18.6 0 1 7.77 88.10
  L 13.48 86.65
  A 0.91 0.89 -89.9 0 0 14.13 85.99
  C 14.66 83.88 11.44 85.72 11.00 86.00"
/>
<path stroke="#6e3907" vector-effect="non-scaling-stroke" d="
  M 11.00 86.00
  Q 10.05 84.66 8.31 84.76
  A 0.35 0.33 -16.0 0 0 8.02 85.26
  Q 8.84 86.67 11.00 86.00"
/>
<path stroke="#6e3907" vector-effect="non-scaling-stroke" d="
  M 16.75 85.31
  Q 15.26 84.53 14.97 85.96
  A 0.77 0.61 -78.6 0 0 15.42 86.85
  Q 16.40 87.04 17.07 86.33
  A 0.74 0.60 33.4 0 0 16.75 85.31"
/>
<path stroke="#7b4710" vector-effect="non-scaling-stroke" d="
  M 20.36 87.29
  C 19.07 86.51 15.90 87.23 16.14 89.20
  A 0.46 0.46 74.3 0 0 16.78 89.56
  L 20.41 87.89
  Q 20.95 87.65 20.36 87.29"
/>
<path stroke="#7b4710" vector-effect="non-scaling-stroke" d="
  M 15.1777 88.5507
  A 2.76 1.24 -16.4 0 0 12.1799 88.1405
  A 2.76 1.24 -16.4 0 0 9.8823 90.1093
  A 2.76 1.24 -16.4 0 0 12.8801 90.5195
  A 2.76 1.24 -16.4 0 0 15.1777 88.5507"
/>
<path stroke="#4f4f4f" vector-effect="non-scaling-stroke" d="
  M 43.1110 48.8108
  A 1.11 0.62 135.3 0 0 44.3361 48.4707
  A 1.11 0.62 135.3 0 0 44.6890 47.2492
  A 1.11 0.62 135.3 0 0 43.4639 47.5893
  A 1.11 0.62 135.3 0 0 43.1110 48.8108"
/>
<path stroke="#6599b5" vector-effect="non-scaling-stroke" d="
  M 8.23 67.44
  Q 5.20 73.98 4.00 80.96"
/>
<path stroke="#919090" vector-effect="non-scaling-stroke" d="
  M 103.87 80.08
  Q 103.03 79.13 101.68 78.83
  Q 99.99 78.46 101.03 79.96
  L 104.61 85.11
  A 0.57 0.39 56.6 0 1 104.60 85.84
  Q 103.93 86.22 103.00 86.04"
/>
<path stroke="#4c4c4c" vector-effect="non-scaling-stroke" d="
  M 103.00 86.04
  C 102.39 85.55 98.59 82.47 98.05 82.82
  A 0.60 0.43 51.3 0 0 98.09 83.60
  C 104.30 90.67 110.96 96.51 117.63 103.11
  A 0.25 0.14 50.6 0 1 117.69 103.44
  L 117.50 103.50
  A 0.60 0.38 52.4 0 1 117.01 103.32
  C 109.02 95.88 102.57 92.54 94.72 87.37
  C 94.24 87.06 93.37 87.20 93.93 87.98
  C 101.05 97.83 110.05 105.57 119.88 113.92
  A 2.58 2.55 -72.8 0 1 120.77 115.63
  C 120.82 116.28 119.93 116.01 119.59 115.71
  Q 111.72 108.67 102.82 102.94
  A 1.20 0.85 50.5 0 0 102.12 102.75
  L 101.75 102.79"
/>
<path stroke="#737271" stroke-opacity="0.667" vector-effect="non-scaling-stroke" d="
  M 101.75 102.79
  L 101.31 102.71"
/>
<path stroke="#4c4c4c" vector-effect="non-scaling-stroke" d="
  M 101.31 102.71
  Q 96.18 98.06 91.62 92.46
  C 91.43 92.23 90.94 92.11 90.79 92.42
  A 1.51 1.18 40.9 0 0 91.08 93.89
  Q 103.94 109.27 118.54 122.95
  A 0.69 0.43 34.9 0 1 118.78 123.51
  C 118.17 125.92 100.74 108.15 99.50 107.06
  Q 93.28 101.53 88.71 94.48
  A 0.48 0.39 51.2 0 0 88.03 94.33
  C 87.34 95.11 102.96 120.19 107.05 126.80
  A 0.52 0.40 63.8 0 1 106.91 127.52
  C 103.96 128.41 92.19 109.28 90.42 106.49
  C 88.95 104.18 87.99 101.50 86.71 98.91
  Q 86.38 98.25 86.52 98.97
  C 87.46 103.72 89.47 108.19 90.57 112.73
  Q 92.06 118.90 94.45 124.83
  C 94.88 125.89 93.78 125.39 93.58 124.98
  Q 86.73 111.62 83.13 97.02
  Q 83.01 96.53 83.00 97.03
  Q 82.77 104.40 82.91 117.43
  Q 82.92 117.82 82.68 117.94
  A 0.48 0.35 69.0 0 1 82.13 117.58
  C 81.17 114.28 81.05 110.89 80.42 107.51
  Q 79.60 103.06 80.25 98.50"
/>
<path stroke="#99b1b3" vector-effect="non-scaling-stroke" d="
  M 80.96 93.50
  Q 80.58 95.67 81.78 95.03
  A 1.07 0.88 82.9 0 0 82.27 94.26
  C 82.45 92.93 83.75 85.56 81.54 85.75"
/>
<path stroke="#99b1b3" vector-effect="non-scaling-stroke" d="
  M 83.19 83.38
  Q 85.11 84.14 86.45 82.43
  Q 88.17 80.26 90.04 79.21
  A 1.54 0.95 -14.2 0 0 90.69 78.54
  Q 91.20 77.26 89.75 76.96"
/>
<path stroke="#686867" stroke-opacity="0.667" vector-effect="non-scaling-stroke" d="
  M 70.21 97.00
  L 70.38 96.56"
/>
<path stroke="#454545" vector-effect="non-scaling-stroke" d="
  M 112.21 93.25
  Q 108.87 89.06 104.00 86.79"
/>
<path stroke="#686867" stroke-opacity="0.667" vector-effect="non-scaling-stroke" d="
  M 104.00 86.79
  L 103.75 86.71"
/>
<path stroke="#454545" vector-effect="non-scaling-stroke" d="
  M 103.75 86.71
  L 103.00 86.04"
/>
<path stroke="#010100" stroke-opacity="0.667" vector-effect="non-scaling-stroke" d="
  M 103.75 86.71
  C 100.78 86.65 107.63 92.22 107.96 92.50"
/>
<path stroke="#010100" stroke-opacity="0.667" vector-effect="non-scaling-stroke" d="
  M 99.75 91.96
  Q 96.97 89.95 99.21 92.75"
/>
<path stroke="#010100" stroke-opacity="0.667" vector-effect="non-scaling-stroke" d="
  M 105.75 106.96
  L 101.75 102.79"
/>
<path stroke="#010100" stroke-opacity="0.667" vector-effect="non-scaling-stroke" d="
  M 104.00 86.79
  Q 105.80 89.78 108.75 91.71"
/>
<path stroke="#010100" stroke-opacity="0.667" vector-effect="non-scaling-stroke" d="
  M 101.31 102.71
  Q 101.87 106.10 105.21 107.50"
/>
</g>
<path fill="#000000" d="
  M 154.02 66.26
  L 154.00 67.81
  Q 152.24 69.09 150.03 69.25
  A 1.78 1.24 14.7 0 0 149.08 69.60
  Q 146.08 72.22 142.49 70.19
  Q 142.14 69.99 141.44 69.99
  Q 126.79 69.99 112.15 70.01
  C 111.31 70.02 110.53 70.52 110.41 71.33
  A 0.87 0.57 19.9 0 0 110.95 72.05
  Q 113.94 73.43 114.24 76.75
  A 1.84 1.16 -78.5 0 0 114.59 77.67
  L 117.94 81.56
  Q 118.89 82.67 117.58 82.85
  Q 115.22 83.17 116.91 84.59
  Q 117.47 85.06 117.54 85.19
  C 117.95 86.00 124.81 93.95 118.27 91.90
  C 116.08 91.21 112.99 87.35 111.28 85.66
  A 1.16 0.71 55.1 0 0 110.43 85.29
  C 108.61 85.58 119.75 95.68 113.00 93.71
  L 113.37 93.02
  A 1.04 0.62 48.7 0 0 113.20 92.12
  Q 108.96 85.76 103.87 80.08
  Q 112.28 84.02 117.92 90.28
  Q 118.66 91.10 119.26 90.79
  A 0.55 0.46 59.5 0 0 119.38 90.04
  Q 115.20 83.61 108.81 79.46
  C 108.53 79.28 107.70 78.46 108.20 78.31
  A 1.27 0.63 42.4 0 1 109.10 78.57
  C 109.71 78.99 116.52 83.58 116.57 81.71
  A 1.14 0.91 24.3 0 0 116.14 80.87
  L 108.06 74.45
  Q 107.38 73.91 108.26 74.05
  Q 110.17 74.35 111.52 75.70
  A 0.68 0.56 41.9 0 0 112.46 75.74
  C 113.09 74.91 107.77 71.56 107.02 70.99
  Q 105.85 70.09 101.29 69.95
  A 0.38 0.34 12.4 0 1 100.94 69.46
  C 101.57 68.17 109.73 70.54 103.69 66.42
  A 1.59 0.46 40.2 0 0 102.75 66.00
  L 96.25 66.02
  Q 95.54 66.02 96.14 65.60
  C 96.86 65.09 101.25 64.97 98.86 63.89
  C 88.97 59.41 86.16 61.03 77.44 65.27
  Q 76.99 65.49 77.47 65.77
  Q 84.33 69.90 90.54 74.97
  A 0.63 0.50 39.6 0 1 90.71 75.75
  L 89.75 76.96
  L 83.19 83.38
  Q 81.79 84.05 81.54 85.75
  Q 80.73 89.57 80.96 93.50
  L 80.25 98.50
  Q 80.51 97.51 79.96 97.15
  A 0.59 0.49 -56.2 0 0 79.22 97.37
  C 77.90 99.29 78.32 101.29 77.70 103.07
  Q 76.23 107.31 75.09 111.64
  C 74.74 112.97 73.98 113.80 72.58 113.03
  A 1.02 0.91 -80.7 0 1 72.10 112.28
  C 71.54 107.65 73.48 102.91 74.09 96.50
  Q 74.19 95.50 73.51 95.48
  A 0.72 0.56 -82.4 0 0 72.92 96.06
  Q 71.03 105.08 66.70 113.29
  C 64.35 117.76 62.37 113.26 63.85 110.54
  C 64.80 108.78 69.04 100.34 68.00 98.75
  L 70.21 97.00
  C 69.98 101.76 66.83 106.96 64.26 112.24
  A 0.92 0.56 -58.2 0 0 64.25 113.13
  Q 64.89 113.79 66.80 110.44
  Q 67.34 109.48 67.86 108.08
  L 74.39 90.30
  Q 74.66 89.57 74.75 90.28
  C 75.70 97.39 73.92 105.02 73.01 111.01
  A 0.64 0.47 -81.3 0 0 73.38 111.72
  C 73.85 111.79 77.92 98.00 78.45 96.48
  C 79.90 92.28 78.90 86.58 81.47 83.20
  Q 82.90 81.32 84.59 79.67
  Q 85.00 79.26 84.33 79.43
  Q 77.80 81.02 71.67 78.36
  A 0.40 0.36 -77.6 0 0 71.16 78.72
  Q 70.84 85.46 67.70 90.71
  Q 60.93 102.02 50.66 112.16
  Q 50.32 112.50 50.59 112.65
  A 1.10 1.10 36.5 0 0 51.87 112.46
  C 58.94 105.51 66.75 98.82 71.08 90.33
  Q 71.19 90.11 71.38 90.05
  A 0.28 0.25 89.1 0 1 71.69 90.39
  L 70.38 96.56
  Q 67.85 95.95 68.00 98.75
  L 55.16 111.44
  Q 54.93 111.67 54.33 111.86
  Q 52.71 112.35 51.70 113.70
  Q 51.70 113.70 50.75 113.97
  Q 49.49 114.32 48.95 113.29
  A 1.17 0.28 -46.4 0 1 49.51 112.33
  Q 59.39 101.47 67.00 90.00
  Q 70.65 84.51 69.92 77.72
  A 1.14 1.12 15.9 0 0 69.47 76.93
  C 64.72 73.33 61.19 67.99 57.48 65.27
  Q 53.76 62.53 49.84 58.19
  C 47.56 55.65 45.15 57.10 42.90 57.04
  Q 27.24 56.61 13.32 57.82
  Q 11.87 57.94 12.25 59.46
  Q 11.21 58.91 11.03 59.76
  A 1.38 0.69 46.6 0 0 11.30 60.65
  Q 11.99 61.70 12.00 63.00
  L 11.65 63.00
  A 0.49 0.42 -78.0 0 0 11.22 63.33
  Q 9.72 67.40 10.01 71.73
  A 2.02 0.85 75.4 0 1 9.85 72.83
  Q 7.56 77.05 12.51 75.93
  Q 14.54 75.47 13.79 73.50
  Q 11.86 68.42 12.00 63.00
  C 13.29 63.88 13.79 69.77 14.13 71.57
  A 0.33 0.30 65.9 0 0 14.63 71.79
  Q 15.36 71.19 15.60 70.29
  A 1.43 1.00 44.0 0 0 15.42 69.37
  Q 13.99 66.85 14.71 64.00
  L 16.14 68.32
  A 0.85 0.48 76.9 0 0 16.68 68.91
  Q 18.39 69.04 20.13 65.93
  A 1.14 0.73 -57.7 0 1 21.44 65.32
  Q 21.89 65.67 21.73 66.25
  A 0.98 0.89 30.3 0 0 22.02 67.17
  C 25.88 70.77 31.41 74.28 25.88 79.94
  A 1.28 1.23 68.4 0 0 25.53 80.79
  Q 25.47 83.30 24.06 85.27
  C 17.33 94.67 4.85 93.96 0.00 83.19
  L -0.02 81.93
  C 1.81 74.12 6.05 68.13 8.71 60.75
  C 9.08 61.67 9.16 62.70 8.67 63.66
  Q 4.71 71.27 1.42 79.32
  A 1.44 0.99 -52.5 0 0 1.37 80.26
  Q 1.93 81.67 4.00 80.96
  Q 5.70 81.23 7.32 80.70
  A 0.82 0.78 85.6 0 0 7.86 80.04
  Q 8.76 73.82 8.23 67.44
  Q 10.98 64.02 9.00 60.37
  Q 11.21 57.20 7.82 56.55
  Q 7.33 56.45 7.72 56.16
  C 10.65 53.91 14.19 53.91 16.86 53.17
  Q 23.18 51.42 30.75 49.29
  A 2.20 1.82 88.4 0 0 32.10 47.57
  Q 32.72 43.42 35.29 46.72
  A 0.87 0.65 -25.7 0 0 36.17 46.89
  L 46.83 43.13
  A 4.37 2.96 -37.7 0 1 49.25 42.98
  Q 50.55 43.38 50.46 42.34
  A 0.91 0.30 85.7 0 1 50.70 41.37
  L 53.50 41.50
  A 1.05 0.34 71.4 0 1 54.07 42.27
  C 55.66 46.37 54.16 47.65 54.00 51.52
  A 1.44 1.31 -25.0 0 1 53.64 52.38
  Q 51.34 54.97 53.99 56.54
  C 58.87 59.43 64.63 64.90 70.46 65.15
  C 78.67 65.51 84.11 58.46 91.80 60.23
  C 97.87 61.62 101.47 64.83 108.17 63.58
  C 115.11 62.27 122.64 63.06 129.80 62.16
  C 132.01 61.88 135.17 62.09 133.45 65.39
  A 0.32 0.32 -74.3 0 0 133.71 65.86
  Q 142.66 66.54 144.93 65.66
  Q 149.72 63.81 154.02 66.26
  Z
  M 86.25 77.46
  Q 87.90 77.10 88.57 75.72
  A 0.67 0.63 32.3 0 0 88.37 74.94
  Q 82.41 70.20 75.75 66.54
  C 72.33 65.84 67.00 66.82 63.92 64.80
  Q 57.33 60.91 51.27 55.97
  A 0.83 0.77 32.5 0 1 51.02 55.01
  Q 53.19 50.48 53.75 45.51
  Q 54.07 42.71 51.52 43.17
  L 46.76 44.03
  A 0.53 0.51 -22.5 0 0 46.41 44.84
  Q 46.77 45.35 47.34 45.67
  A 1.04 0.94 15.3 0 1 47.88 46.51
  Q 47.91 49.51 46.70 46.54
  A 1.25 0.62 1.2 0 0 45.74 46.04
  Q 42.58 45.63 39.77 47.01
  Q 38.99 47.39 39.66 47.60
  L 41.47 48.16
  A 1.39 0.71 7.0 0 1 42.27 48.70
  Q 43.17 50.45 45.00 50.07
  Q 45.93 49.88 45.43 50.70
  L 45.05 51.32
  A 1.11 0.72 52.1 0 0 45.13 52.26
  Q 46.53 54.86 48.94 56.44
  C 53.35 59.32 56.86 63.23 60.90 66.62
  Q 62.62 68.07 65.03 71.00
  Q 72.85 80.53 86.25 77.46
  Z
  M 33.85 47.08
  C 34.06 43.47 31.87 48.93 33.45 47.87
  A 1.09 0.86 78.7 0 0 33.85 47.08
  Z
  M 37.5081 50.7396
  A 1.68 0.52 88.7 0 0 37.9899 49.0482
  A 1.68 0.52 88.7 0 0 37.4319 47.3804
  A 1.68 0.52 88.7 0 0 36.9501 49.0718
  A 1.68 0.52 88.7 0 0 37.5081 50.7396
  Z
  M 43.00 54.60
  Q 35.81 54.07 28.65 55.17
  C 28.41 55.21 28.25 55.35 28.22 55.58
  A 0.45 0.32 1.9 0 0 28.69 55.94
  L 43.75 55.79
  C 48.65 56.63 40.95 49.37 40.44 49.04
  A 0.89 0.83 22.2 0 0 39.09 49.55
  Q 38.50 53.03 36.26 50.81
  A 1.50 0.52 -85.7 0 1 35.98 49.76
  L 35.94 48.56
  A 0.63 0.34 -22.9 0 0 35.10 48.48
  Q 33.21 49.53 29.98 50.45
  Q 18.70 53.66 12.05 55.22
  C 9.46 55.83 12.45 55.99 12.53 55.98
  Q 19.02 55.04 25.56 54.62
  C 30.71 54.29 36.11 53.00 41.16 52.59
  A 1.37 1.22 -26.5 0 1 42.08 52.84
  Q 43.30 53.78 43.00 54.60
  Z
  M 132.8403 64.1155
  A 0.98 0.98 0.0 0 0 131.8007 63.1989
  L 106.2712 64.8051
  A 0.98 0.98 0.0 0 0 105.3547 65.8447
  L 105.3597 65.9245
  A 0.98 0.98 0.0 0 0 106.3993 66.8411
  L 131.9288 65.2349
  A 0.98 0.98 0.0 0 0 132.8453 64.1953
  L 132.8403 64.1155
  Z
  M 134.24 66.66
  C 127.92 65.68 121.97 67.36 115.60 67.28
  C 113.05 67.25 110.74 67.84 108.30 68.20
  Q 106.75 68.42 108.17 69.08
  C 110.13 69.99 111.68 69.00 113.28 69.00
  Q 126.45 68.99 139.62 69.01
  C 142.01 69.01 144.22 70.01 146.79 70.04
  A 1.25 1.04 18.0 0 0 147.69 69.68
  Q 149.47 67.63 152.25 67.75
  A 0.67 0.65 9.2 0 0 152.93 67.28
  Q 153.12 66.60 152.06 66.19
  A 4.00 3.96 -40.8 0 0 149.66 66.03
  C 144.46 67.26 139.79 67.53 134.24 66.66
  Z
  M 16.92 80.91
  C 20.75 81.56 24.95 81.06 26.60 77.02
  Q 28.76 71.73 21.97 69.53
  Q 18.64 68.54 16.44 71.35
  A 1.56 0.52 -46.3 0 0 15.99 72.30
  Q 16.04 74.63 14.33 76.06
  A 0.96 0.89 65.7 0 0 14.03 76.96
  Q 14.54 79.61 16.92 80.91
  Z
  M 9.21 80.09
  L 9.01 80.32
  Q 8.57 80.80 9.44 80.81
  L 14.51 80.91
  A 0.41 0.33 73.7 0 0 14.75 80.32
  C 13.65 78.24 8.89 73.63 9.41 79.65
  A 0.67 0.36 -37.5 0 1 9.21 80.09
  Z
  M 1.5000 83.7500
  A 0.87 0.53 90.0 0 0 2.0300 82.8800
  A 0.87 0.53 90.0 0 0 1.5000 82.0100
  A 0.87 0.53 90.0 0 0 0.9700 82.8800
  A 0.87 0.53 90.0 0 0 1.5000 83.7500
  Z
  M 12.5331 83.0763
  A 4.74 0.94 3.1 0 0 7.8508 81.8814
  A 4.74 0.94 3.1 0 0 3.0669 82.5637
  A 4.74 0.94 3.1 0 0 7.7492 83.7586
  A 4.74 0.94 3.1 0 0 12.5331 83.0763
  Z
  M 18.29 83.25
  Q 23.27 81.90 18.25 82.79
  C 17.04 82.12 14.39 81.40 13.24 82.49
  C 10.99 84.63 17.14 84.04 18.29 83.25
  Z
  M 22.12 82.65
  C 22.74 83.56 25.11 81.83 22.40 82.26
  A 0.33 0.24 -18.3 0 0 22.12 82.65
  Z
  M 23.7146 84.5795
  A 3.01 0.99 -8.8 0 0 20.5885 84.0617
  A 3.01 0.99 -8.8 0 0 17.7654 85.5005
  A 3.01 0.99 -8.8 0 0 20.8915 86.0183
  A 3.01 0.99 -8.8 0 0 23.7146 84.5795
  Z
  M 6.06 84.94
  Q 4.87 84.29 3.55 84.28
  A 0.56 0.52 1.1 0 0 2.99 84.78
  Q 2.87 87.50 5.77 87.01
  Q 8.88 86.47 6.06 84.94
  Z
  M 11.00 86.00
  L 10.88 86.51
  A 0.62 0.61 8.7 0 1 10.23 86.98
  Q 7.65 86.79 5.49 88.26
  A 0.31 0.30 44.8 0 0 5.50 88.77
  Q 5.84 88.99 6.25 89.00
  A 1.06 0.32 56.5 0 1 6.92 89.56
  Q 7.50 90.31 8.31 90.10
  A 0.79 0.15 -14.6 0 0 9.01 89.77
  L 8.94 89.06
  A 0.86 0.28 -13.9 0 0 8.00 88.99
  Q 7.33 89.16 6.99 88.78
  A 0.82 0.34 -18.6 0 1 7.77 88.10
  L 13.48 86.65
  A 0.91 0.89 -89.9 0 0 14.13 85.99
  C 14.66 83.88 11.44 85.72 11.00 86.00
  Q 10.05 84.66 8.31 84.76
  A 0.35 0.33 -16.0 0 0 8.02 85.26
  Q 8.84 86.67 11.00 86.00
  Z
  M 16.75 85.31
  Q 15.26 84.53 14.97 85.96
  A 0.77 0.61 -78.6 0 0 15.42 86.85
  Q 16.40 87.04 17.07 86.33
  A 0.74 0.60 33.4 0 0 16.75 85.31
  Z
  M 20.36 87.29
  C 19.07 86.51 15.90 87.23 16.14 89.20
  A 0.46 0.46 74.3 0 0 16.78 89.56
  L 20.41 87.89
  Q 20.95 87.65 20.36 87.29
  Z
  M 15.1777 88.5507
  A 2.76 1.24 -16.4 0 0 12.1799 88.1405
  A 2.76 1.24 -16.4 0 0 9.8823 90.1093
  A 2.76 1.24 -16.4 0 0 12.8801 90.5195
  A 2.76 1.24 -16.4 0 0 15.1777 88.5507
  Z"
/>
<path fill="#9e9e9e" d="
  M 63.92 64.80
  Q 64.71 71.51 70.98 73.71
  Q 77.42 75.96 84.75 75.96
  Q 85.94 76.32 86.25 77.46
  Q 72.85 80.53 65.03 71.00
  Q 62.62 68.07 60.90 66.62
  C 56.86 63.23 53.35 59.32 48.94 56.44
  Q 46.53 54.86 45.13 52.26
  A 1.11 0.72 52.1 0 1 45.05 51.32
  L 45.43 50.70
  Q 45.93 49.88 45.00 50.07
  Q 43.17 50.45 42.27 48.70
  A 1.39 0.71 7.0 0 0 41.47 48.16
  L 39.66 47.60
  Q 38.99 47.39 39.77 47.01
  Q 42.58 45.63 45.74 46.04
  A 1.25 0.62 1.2 0 1 46.70 46.54
  Q 47.91 49.51 47.88 46.51
  A 1.04 0.94 15.3 0 0 47.34 45.67
  Q 46.77 45.35 46.41 44.84
  A 0.53 0.51 -22.5 0 1 46.76 44.03
  L 51.52 43.17
  Q 54.07 42.71 53.75 45.51
  Q 53.19 50.48 51.02 55.01
  A 0.83 0.77 32.5 0 0 51.27 55.97
  Q 57.33 60.91 63.92 64.80
  Z
  M 43.1110 48.8108
  A 1.11 0.62 135.3 0 0 44.3361 48.4707
  A 1.11 0.62 135.3 0 0 44.6890 47.2492
  A 1.11 0.62 135.3 0 0 43.4639 47.5893
  A 1.11 0.62 135.3 0 0 43.1110 48.8108
  Z"
/>
<path fill="#dc710e" d="
  M 33.45 47.87
  C 31.87 48.93 34.06 43.47 33.85 47.08
  A 1.09 0.86 78.7 0 1 33.45 47.87
  Z"
/>
<ellipse fill="#000000" cx="0.00" cy="0.00" transform="translate(43.90,48.03) rotate(135.3)" rx="1.11" ry="0.62"/>
<ellipse fill="#9e9e9e" cx="0.00" cy="0.00" transform="translate(37.47,49.06) rotate(88.7)" rx="1.68" ry="0.52"/>
<path fill="#fec505" d="
  M 43.75 55.79
  Q 42.81 56.20 43.00 54.60
  Q 43.30 53.78 42.08 52.84
  A 1.37 1.22 -26.5 0 0 41.16 52.59
  C 36.11 53.00 30.71 54.29 25.56 54.62
  Q 19.02 55.04 12.53 55.98
  C 12.45 55.99 9.46 55.83 12.05 55.22
  Q 18.70 53.66 29.98 50.45
  Q 33.21 49.53 35.10 48.48
  A 0.63 0.34 -22.9 0 1 35.94 48.56
  L 35.98 49.76
  A 1.50 0.52 -85.7 0 0 36.26 50.81
  Q 38.50 53.03 39.09 49.55
  A 0.89 0.83 22.2 0 1 40.44 49.04
  C 40.95 49.37 48.65 56.63 43.75 55.79
  Z"
/>
<path fill="#f68e1f" d="
  M 43.00 54.60
  Q 42.81 56.20 43.75 55.79
  L 28.69 55.94
  A 0.45 0.32 1.9 0 1 28.22 55.58
  C 28.25 55.35 28.41 55.21 28.65 55.17
  Q 35.81 54.07 43.00 54.60
  Z"
/>
<path fill="#14325b" fill-opacity="0.996" d="
  M 12.25 59.46
  L 14.71 64.00
  Q 13.99 66.85 15.42 69.37
  A 1.43 1.00 44.0 0 1 15.60 70.29
  Q 15.36 71.19 14.63 71.79
  A 0.33 0.30 65.9 0 1 14.13 71.57
  C 13.79 69.77 13.29 63.88 12.00 63.00
  Q 11.99 61.70 11.30 60.65
  A 1.38 0.69 46.6 0 1 11.03 59.76
  Q 11.21 58.91 12.25 59.46
  Z"
/>
<path fill="#99cbcf" d="
  M 9.00 60.37
  Q 10.98 64.02 8.23 67.44
  Q 5.20 73.98 4.00 80.96
  Q 1.93 81.67 1.37 80.26
  A 1.44 0.99 -52.5 0 1 1.42 79.32
  Q 4.71 71.27 8.67 63.66
  C 9.16 62.70 9.08 61.67 8.71 60.75
  L 9.00 60.37
  Z"
/>
<path fill="#989797" d="
  M 103.87 80.08
  Q 103.03 79.13 101.68 78.83
  Q 99.99 78.46 101.03 79.96
  L 104.61 85.11
  A 0.57 0.39 56.6 0 1 104.60 85.84
  Q 103.93 86.22 103.00 86.04
  C 102.39 85.55 98.59 82.47 98.05 82.82
  A 0.60 0.43 51.3 0 0 98.09 83.60
  C 104.30 90.67 110.96 96.51 117.63 103.11
  A 0.25 0.14 50.6 0 1 117.69 103.44
  L 117.50 103.50
  A 0.60 0.38 52.4 0 1 117.01 103.32
  C 109.02 95.88 102.57 92.54 94.72 87.37
  C 94.24 87.06 93.37 87.20 93.93 87.98
  C 101.05 97.83 110.05 105.57 119.88 113.92
  A 2.58 2.55 -72.8 0 1 120.77 115.63
  C 120.82 116.28 119.93 116.01 119.59 115.71
  Q 111.72 108.67 102.82 102.94
  A 1.20 0.85 50.5 0 0 102.12 102.75
  L 101.75 102.79
  L 101.31 102.71
  Q 96.18 98.06 91.62 92.46
  C 91.43 92.23 90.94 92.11 90.79 92.42
  A 1.51 1.18 40.9 0 0 91.08 93.89
  Q 103.94 109.27 118.54 122.95
  A 0.69 0.43 34.9 0 1 118.78 123.51
  C 118.17 125.92 100.74 108.15 99.50 107.06
  Q 93.28 101.53 88.71 94.48
  A 0.48 0.39 51.2 0 0 88.03 94.33
  C 87.34 95.11 102.96 120.19 107.05 126.80
  A 0.52 0.40 63.8 0 1 106.91 127.52
  C 103.96 128.41 92.19 109.28 90.42 106.49
  C 88.95 104.18 87.99 101.50 86.71 98.91
  Q 86.38 98.25 86.52 98.97
  C 87.46 103.72 89.47 108.19 90.57 112.73
  Q 92.06 118.90 94.45 124.83
  C 94.88 125.89 93.78 125.39 93.58 124.98
  Q 86.73 111.62 83.13 97.02
  Q 83.01 96.53 83.00 97.03
  Q 82.77 104.40 82.91 117.43
  Q 82.92 117.82 82.68 117.94
  A 0.48 0.35 69.0 0 1 82.13 117.58
  C 81.17 114.28 81.05 110.89 80.42 107.51
  Q 79.60 103.06 80.25 98.50
  L 80.96 93.50
  Q 80.58 95.67 81.78 95.03
  A 1.07 0.88 82.9 0 0 82.27 94.26
  C 82.45 92.93 83.75 85.56 81.54 85.75
  Q 81.79 84.05 83.19 83.38
  Q 85.11 84.14 86.45 82.43
  Q 88.17 80.26 90.04 79.21
  A 1.54 0.95 -14.2 0 0 90.69 78.54
  Q 91.20 77.26 89.75 76.96
  L 90.71 75.75
  A 0.63 0.50 39.6 0 0 90.54 74.97
  Q 84.33 69.90 77.47 65.77
  Q 76.99 65.49 77.44 65.27
  C 86.16 61.03 88.97 59.41 98.86 63.89
  C 101.25 64.97 96.86 65.09 96.14 65.60
  Q 95.54 66.02 96.25 66.02
  L 102.75 66.00
  A 1.59 0.46 40.2 0 1 103.69 66.42
  C 109.73 70.54 101.57 68.17 100.94 69.46
  A 0.38 0.34 12.4 0 0 101.29 69.95
  Q 105.85 70.09 107.02 70.99
  C 107.77 71.56 113.09 74.91 112.46 75.74
  A 0.68 0.56 41.9 0 1 111.52 75.70
  Q 110.17 74.35 108.26 74.05
  Q 107.38 73.91 108.06 74.45
  L 116.14 80.87
  A 1.14 0.91 24.3 0 1 116.57 81.71
  C 116.52 83.58 109.71 78.99 109.10 78.57
  A 1.27 0.63 42.4 0 0 108.20 78.31
  C 107.70 78.46 108.53 79.28 108.81 79.46
  Q 115.20 83.61 119.38 90.04
  A 0.55 0.46 59.5 0 1 119.26 90.79
  Q 118.66 91.10 117.92 90.28
  Q 112.28 84.02 103.87 80.08
  Z"
/>
<rect fill="#898989" x="-13.77" y="-1.02" transform="translate(119.10,65.02) rotate(-3.6)" width="27.54" height="2.04" rx="0.98"/>
<path fill="#989797" d="
  M 63.92 64.80
  C 67.00 66.82 72.33 65.84 75.75 66.54
  C 75.78 68.03 76.28 68.88 77.66 69.61
  Q 81.99 71.91 84.75 75.96
  Q 77.42 75.96 70.98 73.71
  Q 64.71 71.51 63.92 64.80
  Z"
/>
<path fill="#989797" d="
  M 134.24 66.66
  C 139.79 67.53 144.46 67.26 149.66 66.03
  A 4.00 3.96 -40.8 0 1 152.06 66.19
  Q 153.12 66.60 152.93 67.28
  A 0.67 0.65 9.2 0 1 152.25 67.75
  Q 149.47 67.63 147.69 69.68
  A 1.25 1.04 18.0 0 1 146.79 70.04
  C 144.22 70.01 142.01 69.01 139.62 69.01
  Q 126.45 68.99 113.28 69.00
  C 111.68 69.00 110.13 69.99 108.17 69.08
  Q 106.75 68.42 108.30 68.20
  C 110.74 67.84 113.05 67.25 115.60 67.28
  C 121.97 67.36 127.92 65.68 134.24 66.66
  Z"
/>
<path fill="#898989" d="
  M 75.75 66.54
  Q 82.41 70.20 88.37 74.94
  A 0.67 0.63 32.3 0 1 88.57 75.72
  Q 87.90 77.10 86.25 77.46
  Q 85.94 76.32 84.75 75.96
  Q 81.99 71.91 77.66 69.61
  C 76.28 68.88 75.78 68.03 75.75 66.54
  Z"
/>
<path fill="#31669b" d="
  M 8.23 67.44
  Q 8.76 73.82 7.86 80.04
  A 0.82 0.78 85.6 0 1 7.32 80.70
  Q 5.70 81.23 4.00 80.96
  Q 5.20 73.98 8.23 67.44
  Z"
/>
<path fill="#ffcccb" d="
  M 21.97 69.53
  Q 23.13 75.13 19.66 78.93
  Q 17.16 78.25 16.94 76.80
  A 0.67 0.55 -15.6 0 1 17.40 76.15
  Q 19.90 75.31 18.20 75.24
  C 15.49 75.12 15.48 77.54 17.54 79.00
  Q 19.33 80.62 16.92 80.91
  Q 14.54 79.61 14.03 76.96
  A 0.96 0.89 65.7 0 1 14.33 76.06
  Q 16.04 74.63 15.99 72.30
  A 1.56 0.52 -46.3 0 1 16.44 71.35
  Q 18.64 68.54 21.97 69.53
  Z"
/>
<path fill="#ff9999" d="
  M 21.97 69.53
  Q 28.76 71.73 26.60 77.02
  C 24.95 81.06 20.75 81.56 16.92 80.91
  Q 19.33 80.62 17.54 79.00
  L 19.66 78.93
  Q 23.13 75.13 21.97 69.53
  Z"
/>
<path fill="#000000" d="
  M 19.66 78.93
  L 17.54 79.00
  C 15.48 77.54 15.49 75.12 18.20 75.24
  Q 19.90 75.31 17.40 76.15
  A 0.67 0.55 -15.6 0 0 16.94 76.80
  Q 17.16 78.25 19.66 78.93
  Z"
/>
<path fill="#31669b" d="
  M 9.41 79.65
  C 8.89 73.63 13.65 78.24 14.75 80.32
  A 0.41 0.33 73.7 0 1 14.51 80.91
  L 9.44 80.81
  Q 8.57 80.80 9.01 80.32
  L 9.21 80.09
  A 0.67 0.36 -37.5 0 0 9.41 79.65
  Z"
/>
<path fill="#99cbcf" d="
  M 89.75 76.96
  Q 91.20 77.26 90.69 78.54
  A 1.54 0.95 -14.2 0 1 90.04 79.21
  Q 88.17 80.26 86.45 82.43
  Q 85.11 84.14 83.19 83.38
  L 89.75 76.96
  Z"
/>
<path fill="#898989" d="
  M 70.21 97.00
  L 70.38 96.56
  L 71.69 90.39
  A 0.28 0.25 89.1 0 0 71.38 90.05
  Q 71.19 90.11 71.08 90.33
  C 66.75 98.82 58.94 105.51 51.87 112.46
  A 1.10 1.10 36.5 0 1 50.59 112.65
  Q 50.32 112.50 50.66 112.16
  Q 60.93 102.02 67.70 90.71
  Q 70.84 85.46 71.16 78.72
  A 0.40 0.36 -77.6 0 1 71.67 78.36
  Q 77.80 81.02 84.33 79.43
  Q 85.00 79.26 84.59 79.67
  Q 82.90 81.32 81.47 83.20
  C 78.90 86.58 79.90 92.28 78.45 96.48
  C 77.92 98.00 73.85 111.79 73.38 111.72
  A 0.64 0.47 -81.3 0 1 73.01 111.01
  C 73.92 105.02 75.70 97.39 74.75 90.28
  Q 74.66 89.57 74.39 90.30
  L 67.86 108.08
  Q 67.34 109.48 66.80 110.44
  Q 64.89 113.79 64.25 113.13
  A 0.92 0.56 -58.2 0 1 64.26 112.24
  C 66.83 106.96 69.98 101.76 70.21 97.00
  Z"
/>
<path fill="#898989" d="
  M 103.87 80.08
  Q 108.96 85.76 113.20 92.12
  A 1.04 0.62 48.7 0 1 113.37 93.02
  L 113.00 93.71
  L 112.21 93.25
  Q 108.87 89.06 104.00 86.79
  L 103.75 86.71
  L 103.00 86.04
  Q 103.93 86.22 104.60 85.84
  A 0.57 0.39 56.6 0 0 104.61 85.11
  L 101.03 79.96
  Q 99.99 78.46 101.68 78.83
  Q 103.03 79.13 103.87 80.08
  Z"
/>
<ellipse fill="#dc710e" cx="0.00" cy="0.00" transform="translate(1.50,82.88) rotate(90.0)" rx="0.87" ry="0.53"/>
<ellipse fill="#f68e1f" cx="0.00" cy="0.00" transform="translate(7.80,82.82) rotate(3.1)" rx="4.74" ry="0.94"/>
<path fill="#f68e1f" d="
  M 18.25 82.79
  L 18.29 83.25
  C 17.14 84.04 10.99 84.63 13.24 82.49
  C 14.39 81.40 17.04 82.12 18.25 82.79
  Z"
/>
<path fill="#dc710e" d="
  M 22.40 82.26
  C 25.11 81.83 22.74 83.56 22.12 82.65
  A 0.33 0.24 -18.3 0 1 22.40 82.26
  Z"
/>
<path fill="#dc710e" d="
  M 18.29 83.25
  L 18.25 82.79
  Q 23.27 81.90 18.29 83.25
  Z"
/>
<path fill="#000000" d="
  M 103.00 86.04
  L 103.75 86.71
  C 100.78 86.65 107.63 92.22 107.96 92.50
  Q 113.56 96.43 117.96 101.70
  C 121.28 105.68 117.62 105.31 115.44 103.43
  Q 108.07 97.05 99.75 91.96
  Q 96.97 89.95 99.21 92.75
  C 103.73 97.33 107.64 101.35 113.04 105.95
  Q 118.71 110.78 123.65 116.43
  A 1.10 0.87 34.6 0 1 123.92 117.30
  C 123.52 119.12 119.56 116.83 118.41 116.27
  C 113.86 114.05 110.68 108.55 105.75 106.96
  L 101.75 102.79
  L 102.12 102.75
  A 1.20 0.85 50.5 0 1 102.82 102.94
  Q 111.72 108.67 119.59 115.71
  C 119.93 116.01 120.82 116.28 120.77 115.63
  A 2.58 2.55 -72.8 0 0 119.88 113.92
  C 110.05 105.57 101.05 97.83 93.93 87.98
  C 93.37 87.20 94.24 87.06 94.72 87.37
  C 102.57 92.54 109.02 95.88 117.01 103.32
  A 0.60 0.38 52.4 0 0 117.50 103.50
  L 117.69 103.44
  A 0.25 0.14 50.6 0 0 117.63 103.11
  C 110.96 96.51 104.30 90.67 98.09 83.60
  A 0.60 0.43 51.3 0 1 98.05 82.82
  C 98.59 82.47 102.39 85.55 103.00 86.04
  Z"
/>
<ellipse fill="#f68e1f" cx="0.00" cy="0.00" transform="translate(20.74,85.04) rotate(-8.8)" rx="3.01" ry="0.99"/>
<path fill="#f68e1f" d="
  M 6.06 84.94
  Q 8.88 86.47 5.77 87.01
  Q 2.87 87.50 2.99 84.78
  A 0.56 0.52 1.1 0 1 3.55 84.28
  Q 4.87 84.29 6.06 84.94
  Z"
/>
<path fill="#dc710e" d="
  M 11.00 86.00
  Q 8.84 86.67 8.02 85.26
  A 0.35 0.33 -16.0 0 1 8.31 84.76
  Q 10.05 84.66 11.00 86.00
  Z"
/>
<path fill="#dc710e" d="
  M 11.00 86.00
  C 11.44 85.72 14.66 83.88 14.13 85.99
  A 0.91 0.89 -89.9 0 1 13.48 86.65
  L 7.77 88.10
  A 0.82 0.34 -18.6 0 0 6.99 88.78
  Q 7.33 89.16 8.00 88.99
  A 0.86 0.28 -13.9 0 1 8.94 89.06
  L 9.01 89.77
  A 0.79 0.15 -14.6 0 1 8.31 90.10
  Q 7.50 90.31 6.92 89.56
  A 1.06 0.32 56.5 0 0 6.25 89.00
  Q 5.84 88.99 5.50 88.77
  A 0.31 0.30 44.8 0 1 5.49 88.26
  Q 7.65 86.79 10.23 86.98
  A 0.62 0.61 8.7 0 0 10.88 86.51
  L 11.00 86.00
  Z"
/>
<path fill="#dc710e" d="
  M 16.75 85.31
  A 0.74 0.60 33.4 0 1 17.07 86.33
  Q 16.40 87.04 15.42 86.85
  A 0.77 0.61 -78.6 0 1 14.97 85.96
  Q 15.26 84.53 16.75 85.31
  Z"
/>
<path fill="#99cbcf" d="
  M 81.54 85.75
  C 83.75 85.56 82.45 92.93 82.27 94.26
  A 1.07 0.88 82.9 0 1 81.78 95.03
  Q 80.58 95.67 80.96 93.50
  Q 80.73 89.57 81.54 85.75
  Z"
/>
<path fill="#040400" fill-opacity="0.333" d="
  M 103.75 86.71
  L 104.00 86.79
  Q 105.80 89.78 108.75 91.71
  Q 107.82 91.57 107.96 92.50
  C 107.63 92.22 100.78 86.65 103.75 86.71
  Z"
/>
<path fill="#000000" d="
  M 104.00 86.79
  Q 108.87 89.06 112.21 93.25
  Q 110.32 92.89 108.75 91.71
  Q 105.80 89.78 104.00 86.79
  Z"
/>
<path fill="#f68e1f" d="
  M 16.14 89.20
  C 15.90 87.23 19.07 86.51 20.36 87.29
  Q 20.95 87.65 20.41 87.89
  L 16.78 89.56
  A 0.46 0.46 74.3 0 1 16.14 89.20
  Z"
/>
<ellipse fill="#f68e1f" cx="0.00" cy="0.00" transform="translate(12.53,89.33) rotate(-16.4)" rx="2.76" ry="1.24"/>
<path fill="#040400" fill-opacity="0.333" d="
  M 99.75 91.96
  L 99.21 92.75
  Q 96.97 89.95 99.75 91.96
  Z"
/>
<path fill="#000000" d="
  M 101.31 102.71
  Q 101.87 106.10 105.21 107.50
  Q 111.96 114.90 119.27 121.80
  C 120.91 123.36 123.25 127.77 117.45 125.06
  C 109.95 121.56 102.11 111.22 95.85 105.35
  A 0.71 0.43 42.4 0 0 95.03 105.19
  C 94.46 105.83 96.87 107.45 97.02 107.73
  Q 101.31 115.99 106.56 123.64
  C 107.41 124.90 111.53 130.44 107.29 129.74
  Q 105.69 129.47 104.56 128.31
  C 101.98 125.64 92.21 113.99 92.05 110.69
  A 0.68 0.39 82.1 0 0 91.51 109.99
  L 91.32 110.07
  A 0.60 0.46 75.5 0 0 91.05 110.70
  Q 91.27 111.89 91.70 113.09
  Q 93.89 119.18 95.93 125.30
  A 1.43 1.22 50.2 0 1 95.92 126.24
  C 94.66 129.31 92.73 126.66 92.03 125.18
  Q 87.75 116.23 84.54 105.97
  Q 84.25 105.05 83.92 105.96
  C 83.36 107.51 84.28 109.22 84.26 110.68
  Q 84.19 114.89 84.05 119.10
  A 0.52 0.49 -87.2 0 1 83.53 119.60
  C 79.96 119.45 79.14 105.58 78.90 102.32
  Q 78.73 99.99 80.25 98.50
  Q 79.60 103.06 80.42 107.51
  C 81.05 110.89 81.17 114.28 82.13 117.58
  A 0.48 0.35 69.0 0 0 82.68 117.94
  Q 82.92 117.82 82.91 117.43
  Q 82.77 104.40 83.00 97.03
  Q 83.01 96.53 83.13 97.02
  Q 86.73 111.62 93.58 124.98
  C 93.78 125.39 94.88 125.89 94.45 124.83
  Q 92.06 118.90 90.57 112.73
  C 89.47 108.19 87.46 103.72 86.52 98.97
  Q 86.38 98.25 86.71 98.91
  C 87.99 101.50 88.95 104.18 90.42 106.49
  C 92.19 109.28 103.96 128.41 106.91 127.52
  A 0.52 0.40 63.8 0 0 107.05 126.80
  C 102.96 120.19 87.34 95.11 88.03 94.33
  A 0.48 0.39 51.2 0 1 88.71 94.48
  Q 93.28 101.53 99.50 107.06
  C 100.74 108.15 118.17 125.92 118.78 123.51
  A 0.69 0.43 34.9 0 0 118.54 122.95
  Q 103.94 109.27 91.08 93.89
  A 1.51 1.18 40.9 0 1 90.79 92.42
  C 90.94 92.11 91.43 92.23 91.62 92.46
  Q 96.18 98.06 101.31 102.71
  Z"
/>
<path fill="#040400" fill-opacity="0.333" d="
  M 70.38 96.56
  L 70.21 97.00
  L 68.00 98.75
  Q 67.85 95.95 70.38 96.56
  Z"
/>
<path fill="#040400" fill-opacity="0.333" d="
  M 101.31 102.71
  L 101.75 102.79
  L 105.75 106.96
  L 105.21 107.50
  Q 101.87 106.10 101.31 102.71
  Z"
/>
</svg>
