<?xml version="1.0" encoding="UTF-8" standalone="no"?>
<svg xmlns="http://www.w3.org/2000/svg" version="1.2" baseProfile="tiny" viewBox="0 0 154 153">
<g stroke-width="2.00" fill="none" stroke-linecap="butt">
<path stroke="#0a192d" vector-effect="non-scaling-stroke" d="
  M 12.25 59.46
  Q 11.21 58.91 11.03 59.76
  A 1.38 0.69 46.6 0 0 11.30 60.65
  Q 11.99 61.70 12.00 63.00"
/>
<path stroke="#0a192d" vector-effect="non-scaling-stroke" d="
  M 12.00 63.00
  C 13.29 63.88 13.79 69.77 14.13 71.57
  A 0.33 0.30 65.9 0 0 14.63 71.79
  Q 15.36 71.19 15.60 70.29
  A 1.43 1.00 44.0 0 0 15.42 69.37
  Q 13.99 66.85 14.71 64.00"
/>
<path stroke="#4c6668" vector-effect="non-scaling-stroke" d="
  M 8.71 60.75
  C 9.08 61.67 9.16 62.70 8.67 63.66
  Q 4.71 71.27 1.42 79.32
  A 1.44 0.99 -52.5 0 0 1.37 80.26
  Q 1.93 81.67 4.00 80.96"
/>
<path stroke="#19334e" vector-effect="non-scaling-stroke" d="
  M 4.00 80.96
  Q 5.70 81.23 7.32 80.70
  A 0.82 0.78 85.6 0 0 7.86 80.04
  Q 8.76 73.82 8.23 67.44"
/>
<path stroke="#4c6668" vector-effect="non-scaling-stroke" d="
  M 8.23 67.44
  Q 10.98 64.02 9.00 60.37"
/>
<path stroke="#4d4d4d" vector-effect="non-scaling-stroke" d="
  M 47.18 47.45
  C 46.22 44.72 41.30 46.21 39.47 47.04
  A 0.34 0.14 -20.5 0 0 39.25 47.25
  L 39.25 47.50
  A 0.40 0.20 3.7 0 0 39.62 47.72
  C 42.20 47.92 42.83 50.56 45.20 50.15
  Q 45.64 50.08 45.46 50.49
  C 43.82 54.29 50.18 56.77 52.32 58.87
  Q 57.09 63.53 62.23 67.76
  C 65.79 70.68 66.74 74.49 71.65 76.33
  A 1.17 0.64 21.7 0 0 72.91 76.18
  Q 74.00 73.97 76.25 73.00
  A 0.86 0.63 -18.6 0 0 76.79 72.24
  L 75.96 67.00
  A 1.35 1.27 -5.8 0 0 74.57 65.94
  C 70.55 66.13 67.08 66.58 63.52 64.47
  Q 57.43 60.87 51.68 56.34
  A 1.54 1.53 31.8 0 1 51.24 54.47
  Q 53.31 50.07 53.77 45.25
  Q 54.01 42.74 51.51 43.18
  L 46.77 44.03
  A 0.43 0.41 67.6 0 0 46.51 44.69
  C 46.88 45.25 48.70 47.31 47.79 47.78
  A 0.50 0.41 67.5 0 1 47.18 47.45"
/>
<path stroke="#444444" vector-effect="non-scaling-stroke" d="
  M 33.88 47.09
  C 34.25 43.71 31.82 48.97 33.45 47.87
  A 1.15 0.88 81.5 0 0 33.88 47.09"
/>
<path stroke="#4d4d4d" vector-effect="non-scaling-stroke" d="
  M 37.5081 50.7396
  A 1.68 0.52 88.7 0 0 37.9899 49.0482
  A 1.68 0.52 88.7 0 0 37.4319 47.3804
  A 1.68 0.52 88.7 0 0 36.9501 49.0718
  A 1.68 0.52 88.7 0 0 37.5081 50.7396"
/>
<path stroke="#7b460f" vector-effect="non-scaling-stroke" d="
  M 43.00 54.60
  Q 35.81 54.06 28.65 55.16
  C 28.43 55.20 28.25 55.35 28.22 55.57
  A 0.47 0.33 2.2 0 0 28.71 55.94
  L 43.75 55.79"
/>
<path stroke="#7f6303" vector-effect="non-scaling-stroke" d="
  M 43.75 55.79
  C 48.65 56.63 40.95 49.37 40.44 49.04
  A 0.89 0.83 22.2 0 0 39.09 49.55
  Q 38.50 53.03 36.26 50.81
  A 1.50 0.52 -85.7 0 1 35.98 49.76
  L 35.94 48.56
  A 0.61 0.34 -23.6 0 0 35.11 48.48
  Q 33.53 49.41 31.31 50.07
  Q 20.84 53.20 12.04 55.22
  C 9.45 55.82 12.46 55.99 12.54 55.98
  Q 19.03 55.04 25.56 54.62
  C 30.71 54.29 36.12 53.05 41.16 52.59
  A 1.44 1.26 -25.9 0 1 42.08 52.84
  Q 43.30 53.78 43.00 54.60"
/>
<path stroke="#faa912" vector-effect="non-scaling-stroke" d="
  M 43.75 55.79
  Q 42.81 56.20 43.00 54.60"
/>
<path stroke="#5f5f5f" vector-effect="non-scaling-stroke" d="
  M 79.42 64.12
  Q 75.75 68.01 78.29 73.50"
/>
<path stroke="#4d4d4d" vector-effect="non-scaling-stroke" d="
  M 78.29 73.50
  L 85.49 81.86
  Q 85.82 82.25 85.80 81.75
  C 85.68 79.32 83.53 76.17 86.99 74.87
  A 1.31 1.18 46.9 0 1 88.02 74.96
  Q 93.55 77.98 96.35 83.63
  Q 96.62 84.17 96.76 83.53
  C 97.44 80.51 96.06 76.46 100.53 75.97
  A 1.01 0.94 64.4 0 1 101.37 76.30
  Q 103.52 78.78 104.79 81.75"
/>
<path stroke="#444444" vector-effect="non-scaling-stroke" d="
  M 104.79 81.75
  L 106.37 85.32
  Q 106.59 85.82 106.83 85.33
  Q 109.24 80.32 113.33 76.59
  Q 114.92 75.13 116.23 76.73
  Q 117.71 78.54 118.07 80.72
  A 1.47 0.57 73.0 0 1 118.00 81.69
  Q 117.71 82.16 117.31 82.56
  C 116.57 83.31 117.82 82.95 117.91 82.88
  Q 122.62 79.21 127.34 75.77
  Q 127.80 75.44 127.23 75.33
  Q 118.57 73.63 109.76 74.03
  A 1.31 0.72 -14.3 0 1 108.90 73.81
  C 108.39 73.35 109.15 73.13 109.49 73.12
  Q 115.39 72.91 121.30 73.02
  A 0.81 0.53 7.1 0 0 122.02 72.67
  C 122.65 71.04 104.23 71.99 101.73 71.77"
/>
<path stroke="#4d4d4d" vector-effect="non-scaling-stroke" d="
  M 101.73 71.77
  Q 106.09 70.94 110.51 70.61
  C 113.75 70.36 111.28 68.78 110.04 68.77
  Q 103.35 68.69 96.77 69.90
  A 0.66 0.45 -12.8 0 1 96.07 69.62
  C 95.82 68.81 99.11 67.94 99.98 67.76"
/>
<path stroke="#444444" vector-effect="non-scaling-stroke" d="
  M 99.98 67.76
  Q 115.57 66.34 131.18 65.06
  C 134.07 64.82 133.14 62.93 131.12 63.18
  Q 121.25 64.37 111.32 64.30
  C 108.02 64.27 104.72 65.10 101.34 65.35
  A 0.34 0.32 6.8 0 0 101.06 65.56
  L 101.00 65.75
  A 0.28 0.20 13.4 0 0 101.24 66.02
  Q 102.28 66.22 101.79 66.74
  A 1.08 0.24 -0.5 0 1 100.98 66.93
  L 99.00 67.04"
/>
<path stroke="#4d4d4d" vector-effect="non-scaling-stroke" d="
  M 99.00 67.04
  Q 85.79 67.39 96.72 65.57
  Q 97.21 65.49 96.73 65.36
  C 91.77 64.07 84.94 62.35 79.42 64.12"
/>
<path stroke="#919191" vector-effect="non-scaling-stroke" d="
  M 99.00 67.04
  Q 100.57 67.28 99.98 67.76"
/>
<path stroke="#919191" vector-effect="non-scaling-stroke" d="
  M 101.73 71.77
  Q 102.64 72.57 102.51 73.24
  A 0.63 0.62 19.8 0 0 102.83 73.90
  Q 103.73 74.39 104.25 75.25
  A 1.18 0.37 63.7 0 0 104.82 75.85
  C 106.02 76.21 108.79 76.47 107.46 78.53
  Q 107.17 78.99 107.06 79.43
  Q 106.61 81.27 104.79 81.75"
/>
<path stroke="#acabac" vector-effect="non-scaling-stroke" d="
  M 78.29 73.50
  C 79.68 71.72 79.25 69.68 79.42 68.01
  Q 79.60 66.15 79.42 64.12"
/>
<path stroke="#494848" vector-effect="non-scaling-stroke" d="
  M 64.47 72.51
  C 63.08 70.20 60.19 67.56 58.00 65.98
  Q 56.75 65.08 57.28 66.48
  Q 59.18 71.44 64.27 72.95
  Q 64.83 73.11 64.47 72.51"
/>
<path stroke="#494848" vector-effect="non-scaling-stroke" d="
  M 117.18 69.24
  C 126.88 68.60 137.27 68.50 146.78 70.06
  A 0.90 0.81 23.7 0 0 147.57 69.80
  Q 149.40 67.72 152.25 67.77
  A 0.85 0.67 9.4 0 0 153.01 67.35
  C 153.98 65.03 145.88 66.60 144.74 66.95
  Q 142.00 67.78 135.38 67.04
  C 132.79 66.75 130.73 65.90 127.48 66.44
  C 122.95 67.20 118.25 66.87 113.10 67.39
  C 106.37 68.07 116.19 69.30 117.18 69.24"
/>
<path stroke="#804d4d" vector-effect="non-scaling-stroke" d="
  M 18.25 80.96
  C 28.58 82.61 29.79 69.76 21.94 69.74"
/>
<path stroke="#806666" vector-effect="non-scaling-stroke" d="
  M 21.94 69.74
  Q 18.62 68.44 16.45 71.34
  A 1.55 0.48 -47.3 0 0 15.99 72.30
  Q 16.04 74.63 14.33 76.06
  A 1.05 0.60 74.8 0 0 14.11 76.90
  Q 14.51 80.77 18.25 80.96"
/>
<path stroke="#ffb3b2" vector-effect="non-scaling-stroke" d="
  M 21.94 69.74
  Q 23.14 75.23 19.64 78.91"
/>
<path stroke="#806666" vector-effect="non-scaling-stroke" d="
  M 19.64 78.91
  Q 17.17 78.27 16.93 76.78
  A 0.62 0.53 -11.2 0 1 17.41 76.17
  Q 19.53 75.66 18.44 75.26
  A 1.18 1.05 -47.1 0 0 17.51 75.35
  Q 14.00 77.26 18.25 79.04"
/>
<path stroke="#ffb3b2" vector-effect="non-scaling-stroke" d="
  M 18.25 79.04
  L 18.25 80.96"
/>
<path stroke="#804d4d" vector-effect="non-scaling-stroke" d="
  M 18.25 79.04
  L 19.64 78.91"
/>
<path stroke="#4d4d4d" vector-effect="non-scaling-stroke" d="
  M 80.00 87.79
  C 88.12 97.93 117.90 91.33 126.81 88.54
  Q 134.52 86.13 136.93 77.41
  A 0.56 0.53 -74.0 0 0 136.58 76.74
  C 134.20 76.01 125.74 85.72 124.83 84.69
  A 0.70 0.35 -46.8 0 1 125.04 83.98
  C 126.27 82.58 129.45 75.43 124.90 78.87
  Q 120.64 82.10 116.66 85.68
  Q 115.49 86.74 115.77 85.18
  C 116.13 83.25 117.06 81.15 116.49 79.31
  C 114.57 73.16 107.92 85.28 106.75 86.75
  A 0.59 0.56 -40.1 0 1 105.79 86.69
  L 101.03 77.49
  A 0.81 0.78 71.4 0 0 100.20 77.06
  C 95.49 77.74 99.13 86.72 97.73 87.98
  A 0.42 0.36 59.8 0 1 97.12 87.77
  Q 94.59 81.47 89.57 76.96
  C 83.43 71.45 87.46 85.17 87.69 86.25
  A 0.93 0.56 71.4 0 1 87.50 87.11
  Q 87.14 87.36 86.81 86.69
  Q 83.09 79.14 76.25 74.29"
/>
<path stroke="#5f5f5f" vector-effect="non-scaling-stroke" d="
  M 76.25 74.29
  C 70.46 75.57 77.76 85.52 80.00 87.79"
/>
<path stroke="#acabac" vector-effect="non-scaling-stroke" d="
  M 76.25 74.29
  Q 75.51 81.15 80.29 85.93
  C 80.92 86.56 81.12 87.58 80.00 87.79"
/>
<path stroke="#19334e" vector-effect="non-scaling-stroke" d="
  M 9.21 80.09
  L 9.01 80.32
  Q 8.57 80.80 9.44 80.81
  L 14.51 80.91
  A 0.41 0.33 73.7 0 0 14.75 80.32
  C 13.65 78.24 8.89 73.63 9.41 79.65
  A 0.67 0.36 -37.5 0 1 9.21 80.09"
/>
<path stroke="#444444" vector-effect="non-scaling-stroke" d="
  M 130.31 78.12
  C 129.12 77.57 128.29 79.39 128.35 80.27
  Q 128.39 81.00 128.94 80.42
  L 130.51 78.76
  A 0.45 0.37 32.7 0 0 130.31 78.12"
/>
<path stroke="#59270d" vector-effect="non-scaling-stroke" d="
  M 1.00 82.76
  Q 0.88 83.35 1.31 83.70
  A 0.76 0.38 -72.1 0 0 2.00 82.99
  Q 2.12 82.41 1.69 82.05
  A 0.76 0.37 -72.0 0 0 1.00 82.76"
/>
<path stroke="#7b460f" vector-effect="non-scaling-stroke" d="
  M 3.35 82.40
  C 2.71 83.61 13.32 84.98 12.05 82.60
  A 0.94 0.86 -12.3 0 0 11.26 82.14
  L 4.25 82.04
  A 1.11 0.64 8.3 0 0 3.35 82.40"
/>
<path stroke="#59270d" vector-effect="non-scaling-stroke" d="
  M 18.29 83.25
  Q 23.27 81.90 18.25 82.79"
/>
<path stroke="#7b460f" vector-effect="non-scaling-stroke" d="
  M 18.25 82.79
  C 17.04 82.12 14.39 81.40 13.24 82.49
  C 10.99 84.63 17.14 84.04 18.29 83.25"
/>
<path stroke="#d46d1c" vector-effect="non-scaling-stroke" d="
  M 18.25 82.79
  L 18.29 83.25"
/>
<path stroke="#59270d" vector-effect="non-scaling-stroke" d="
  M 22.12 82.65
  C 22.74 83.56 25.11 81.83 22.40 82.26
  A 0.33 0.24 -18.3 0 0 22.12 82.65"
/>
<path stroke="#7b460f" vector-effect="non-scaling-stroke" d="
  M 23.7146 84.5795
  A 3.01 0.99 -8.8 0 0 20.5885 84.0617
  A 3.01 0.99 -8.8 0 0 17.7654 85.5005
  A 3.01 0.99 -8.8 0 0 20.8915 86.0183
  A 3.01 0.99 -8.8 0 0 23.7146 84.5795"
/>
<path stroke="#7b460f" vector-effect="non-scaling-stroke" d="
  M 6.06 84.94
  Q 4.87 84.29 3.55 84.28
  A 0.56 0.52 1.1 0 0 2.99 84.78
  Q 2.87 87.50 5.77 87.01
  Q 8.88 86.47 6.06 84.94"
/>
<path stroke="#7b460f" vector-effect="non-scaling-stroke" d="
  M 11.00 86.00
  C 11.04 87.58 8.48 86.69 7.21 87.50"
/>
<path stroke="#59270d" vector-effect="non-scaling-stroke" d="
  M 7.21 87.50
  L 5.40 88.29
  Q 4.94 88.49 5.44 88.66
  Q 6.41 88.99 7.11 89.65
  A 1.11 0.17 45.6 0 0 7.81 90.18
  Q 8.68 90.29 9.05 89.53
  Q 9.37 88.86 8.34 89.06
  Q 6.60 89.41 7.29 88.00"
/>
<path stroke="#7b460f" vector-effect="non-scaling-stroke" d="
  M 7.29 88.00
  Q 10.42 87.94 13.34 86.72
  C 14.22 86.35 14.70 85.37 13.46 85.03
  A 1.31 1.23 -51.1 0 0 12.51 85.16
  L 11.00 86.00"
/>
<path stroke="#59270d" vector-effect="non-scaling-stroke" d="
  M 11.00 86.00
  Q 10.05 84.66 8.31 84.76
  A 0.35 0.33 -16.0 0 0 8.02 85.26
  Q 8.84 86.67 11.00 86.00"
/>
<path stroke="#d46d1c" vector-effect="non-scaling-stroke" d="
  M 7.29 88.00
  L 7.21 87.50"
/>
<path stroke="#7b460f" vector-effect="non-scaling-stroke" d="
  M 15.71 85.20
  A 0.79 0.79 74.7 0 0 15.05 86.36
  C 15.95 88.07 19.25 85.04 15.71 85.20"
/>
<path stroke="#7b460f" vector-effect="non-scaling-stroke" d="
  M 20.36 87.29
  C 19.07 86.51 15.90 87.23 16.14 89.20
  A 0.46 0.46 74.3 0 0 16.78 89.56
  L 20.41 87.89
  Q 20.95 87.65 20.36 87.29"
/>
<path stroke="#7b460f" vector-effect="non-scaling-stroke" d="
  M 15.02 89.39
  C 16.05 86.54 10.89 88.29 10.02 89.59
  Q 8.97 91.17 10.77 90.78
  L 14.26 90.03
  A 1.09 1.00 2.4 0 0 15.02 89.39"
/>
<path stroke="#4d4d4d" vector-effect="non-scaling-stroke" d="
  M 43.1159 48.8352
  A 1.11 0.60 133.5 0 0 44.3152 48.4430
  A 1.11 0.60 133.5 0 0 44.6441 47.2248
  A 1.11 0.60 133.5 0 0 43.4448 47.6170
  A 1.11 0.60 133.5 0 0 43.1159 48.8352"
/>
<path stroke="#6599b6" vector-effect="non-scaling-stroke" d="
  M 8.23 67.44
  Q 5.20 73.98 4.00 80.96"
/>
<path stroke="#919191" vector-effect="non-scaling-stroke" d="
  M 93.35 69.72
  Q 92.49 69.40 91.66 69.76
  Q 91.00 70.05 91.71 70.14
  L 94.38 70.45
  Q 95.24 70.55 94.95 70.16
  Q 94.73 69.87 94.24 70.02
  A 0.99 0.03 20.3 0 1 93.35 69.72"
/>
</g>
<path fill="#000000" d="
  M 154.02 66.26
  L 154.00 67.81
  Q 152.34 69.07 150.20 69.21
  A 1.66 1.63 24.5 0 0 149.32 69.53
  C 145.45 72.51 143.54 69.92 139.66 69.96
  Q 126.65 70.08 113.62 69.98
  A 0.63 0.27 0.3 0 0 113.00 70.24
  L 112.99 70.77
  A 0.68 0.38 0.3 0 0 113.68 71.16
  L 121.00 71.18
  A 1.31 0.46 -3.9 0 1 122.06 71.47
  L 123.25 73.24
  A 1.03 0.50 61.5 0 0 124.00 73.78
  Q 127.59 73.32 129.45 76.30
  A 1.16 0.88 -8.0 0 0 130.26 76.75
  Q 133.75 77.07 136.62 75.05
  A 0.62 0.51 52.4 0 1 137.38 75.23
  C 140.32 78.87 133.04 86.12 130.28 88.04
  C 126.84 90.43 122.02 90.79 117.79 91.80
  C 108.43 94.03 97.99 94.85 88.45 93.50
  C 80.79 92.42 75.71 86.76 73.63 79.47
  A 1.31 1.28 -82.6 0 0 73.07 78.73
  C 67.89 75.60 55.74 72.65 55.83 65.22
  A 1.44 1.26 -66.9 0 0 55.54 64.33
  C 53.71 62.13 48.67 55.53 45.46 56.87
  Q 44.95 57.08 44.52 57.07
  Q 27.90 56.56 13.32 57.81
  Q 11.87 57.94 12.25 59.46
  Q 11.21 58.91 11.03 59.76
  A 1.38 0.69 46.6 0 0 11.30 60.65
  Q 11.99 61.70 12.00 63.00
  L 11.65 63.00
  A 0.49 0.42 -78.0 0 0 11.22 63.33
  Q 9.72 67.40 10.01 71.73
  A 2.02 0.85 75.4 0 1 9.85 72.83
  Q 7.56 77.05 12.51 75.93
  Q 14.54 75.47 13.79 73.50
  Q 11.86 68.42 12.00 63.00
  C 13.29 63.88 13.79 69.77 14.13 71.57
  A 0.33 0.30 65.9 0 0 14.63 71.79
  Q 15.36 71.19 15.60 70.29
  A 1.43 1.00 44.0 0 0 15.42 69.37
  Q 13.99 66.85 14.71 64.00
  Q 15.85 65.98 16.14 68.32
  A 0.74 0.68 -87.5 0 0 16.67 68.95
  C 19.70 69.63 20.37 61.41 22.11 67.27
  A 1.22 1.20 -84.0 0 0 22.68 67.99
  C 27.23 70.63 30.39 75.36 25.88 79.93
  A 1.28 1.24 -23.1 0 0 25.52 80.78
  Q 25.47 83.41 23.98 85.43
  C 17.16 94.68 4.83 93.88 0.00 83.19
  L -0.02 81.93
  C 1.81 74.12 6.05 68.13 8.71 60.75
  C 9.08 61.67 9.16 62.70 8.67 63.66
  Q 4.71 71.27 1.42 79.32
  A 1.44 0.99 -52.5 0 0 1.37 80.26
  Q 1.93 81.67 4.00 80.96
  Q 5.70 81.23 7.32 80.70
  A 0.82 0.78 85.6 0 0 7.86 80.04
  Q 8.76 73.82 8.23 67.44
  Q 10.98 64.02 9.00 60.37
  Q 11.21 57.16 7.83 56.58
  Q 7.33 56.49 7.70 56.17
  Q 9.37 54.71 11.51 54.27
  Q 21.14 52.29 30.62 49.22
  A 1.78 1.76 -89.2 0 0 31.75 48.11
  Q 33.21 43.77 35.43 46.69
  A 0.69 0.68 62.3 0 0 36.20 46.94
  C 40.62 45.46 45.35 42.99 49.98 42.96
  A 0.50 0.32 -8.1 0 0 50.51 42.50
  Q 50.33 42.08 50.42 41.70
  A 0.72 0.52 17.7 0 1 51.31 41.41
  Q 52.16 41.72 52.99 41.51
  A 0.76 0.67 67.9 0 1 53.77 41.90
  C 55.99 45.94 54.23 48.15 53.81 52.22
  A 1.13 1.00 -17.5 0 1 53.35 52.99
  Q 51.52 54.32 53.20 55.79
  Q 56.03 58.24 62.68 62.09
  C 64.49 63.14 66.52 62.97 68.48 64.05
  C 70.91 65.39 74.75 65.49 77.25 64.24
  C 83.53 61.10 87.88 62.23 95.72 64.12
  Q 98.27 64.73 100.83 64.34
  C 110.84 62.79 119.90 63.22 129.52 62.15
  C 131.77 61.90 135.10 61.97 133.46 65.40
  A 0.34 0.33 -74.7 0 0 133.73 65.88
  Q 142.76 66.49 144.94 65.66
  Q 149.72 63.81 154.02 66.26
  Z
  M 47.18 47.45
  C 46.22 44.72 41.30 46.21 39.47 47.04
  A 0.34 0.14 -20.5 0 0 39.25 47.25
  L 39.25 47.50
  A 0.40 0.20 3.7 0 0 39.62 47.72
  C 42.20 47.92 42.83 50.56 45.20 50.15
  Q 45.64 50.08 45.46 50.49
  C 43.82 54.29 50.18 56.77 52.32 58.87
  Q 57.09 63.53 62.23 67.76
  C 65.79 70.68 66.74 74.49 71.65 76.33
  A 1.17 0.64 21.7 0 0 72.91 76.18
  Q 74.00 73.97 76.25 73.00
  A 0.86 0.63 -18.6 0 0 76.79 72.24
  L 75.96 67.00
  A 1.35 1.27 -5.8 0 0 74.57 65.94
  C 70.55 66.13 67.08 66.58 63.52 64.47
  Q 57.43 60.87 51.68 56.34
  A 1.54 1.53 31.8 0 1 51.24 54.47
  Q 53.31 50.07 53.77 45.25
  Q 54.01 42.74 51.51 43.18
  L 46.77 44.03
  A 0.43 0.41 67.6 0 0 46.51 44.69
  C 46.88 45.25 48.70 47.31 47.79 47.78
  A 0.50 0.41 67.5 0 1 47.18 47.45
  Z
  M 33.88 47.09
  C 34.25 43.71 31.82 48.97 33.45 47.87
  A 1.15 0.88 81.5 0 0 33.88 47.09
  Z
  M 37.5081 50.7396
  A 1.68 0.52 88.7 0 0 37.9899 49.0482
  A 1.68 0.52 88.7 0 0 37.4319 47.3804
  A 1.68 0.52 88.7 0 0 36.9501 49.0718
  A 1.68 0.52 88.7 0 0 37.5081 50.7396
  Z
  M 43.00 54.60
  Q 35.81 54.06 28.65 55.16
  C 28.43 55.20 28.25 55.35 28.22 55.57
  A 0.47 0.33 2.2 0 0 28.71 55.94
  L 43.75 55.79
  C 48.65 56.63 40.95 49.37 40.44 49.04
  A 0.89 0.83 22.2 0 0 39.09 49.55
  Q 38.50 53.03 36.26 50.81
  A 1.50 0.52 -85.7 0 1 35.98 49.76
  L 35.94 48.56
  A 0.61 0.34 -23.6 0 0 35.11 48.48
  Q 33.53 49.41 31.31 50.07
  Q 20.84 53.20 12.04 55.22
  C 9.45 55.82 12.46 55.99 12.54 55.98
  Q 19.03 55.04 25.56 54.62
  C 30.71 54.29 36.12 53.05 41.16 52.59
  A 1.44 1.26 -25.9 0 1 42.08 52.84
  Q 43.30 53.78 43.00 54.60
  Z
  M 79.42 64.12
  Q 75.75 68.01 78.29 73.50
  L 85.49 81.86
  Q 85.82 82.25 85.80 81.75
  C 85.68 79.32 83.53 76.17 86.99 74.87
  A 1.31 1.18 46.9 0 1 88.02 74.96
  Q 93.55 77.98 96.35 83.63
  Q 96.62 84.17 96.76 83.53
  C 97.44 80.51 96.06 76.46 100.53 75.97
  A 1.01 0.94 64.4 0 1 101.37 76.30
  Q 103.52 78.78 104.79 81.75
  L 106.37 85.32
  Q 106.59 85.82 106.83 85.33
  Q 109.24 80.32 113.33 76.59
  Q 114.92 75.13 116.23 76.73
  Q 117.71 78.54 118.07 80.72
  A 1.47 0.57 73.0 0 1 118.00 81.69
  Q 117.71 82.16 117.31 82.56
  C 116.57 83.31 117.82 82.95 117.91 82.88
  Q 122.62 79.21 127.34 75.77
  Q 127.80 75.44 127.23 75.33
  Q 118.57 73.63 109.76 74.03
  A 1.31 0.72 -14.3 0 1 108.90 73.81
  C 108.39 73.35 109.15 73.13 109.49 73.12
  Q 115.39 72.91 121.30 73.02
  A 0.81 0.53 7.1 0 0 122.02 72.67
  C 122.65 71.04 104.23 71.99 101.73 71.77
  Q 106.09 70.94 110.51 70.61
  C 113.75 70.36 111.28 68.78 110.04 68.77
  Q 103.35 68.69 96.77 69.90
  A 0.66 0.45 -12.8 0 1 96.07 69.62
  C 95.82 68.81 99.11 67.94 99.98 67.76
  Q 115.57 66.34 131.18 65.06
  C 134.07 64.82 133.14 62.93 131.12 63.18
  Q 121.25 64.37 111.32 64.30
  C 108.02 64.27 104.72 65.10 101.34 65.35
  A 0.34 0.32 6.8 0 0 101.06 65.56
  L 101.00 65.75
  A 0.28 0.20 13.4 0 0 101.24 66.02
  Q 102.28 66.22 101.79 66.74
  A 1.08 0.24 -0.5 0 1 100.98 66.93
  L 99.00 67.04
  Q 85.79 67.39 96.72 65.57
  Q 97.21 65.49 96.73 65.36
  C 91.77 64.07 84.94 62.35 79.42 64.12
  Z
  M 64.47 72.51
  C 63.08 70.20 60.19 67.56 58.00 65.98
  Q 56.75 65.08 57.28 66.48
  Q 59.18 71.44 64.27 72.95
  Q 64.83 73.11 64.47 72.51
  Z
  M 117.18 69.24
  C 126.88 68.60 137.27 68.50 146.78 70.06
  A 0.90 0.81 23.7 0 0 147.57 69.80
  Q 149.40 67.72 152.25 67.77
  A 0.85 0.67 9.4 0 0 153.01 67.35
  C 153.98 65.03 145.88 66.60 144.74 66.95
  Q 142.00 67.78 135.38 67.04
  C 132.79 66.75 130.73 65.90 127.48 66.44
  C 122.95 67.20 118.25 66.87 113.10 67.39
  C 106.37 68.07 116.19 69.30 117.18 69.24
  Z
  M 18.25 80.96
  C 28.58 82.61 29.79 69.76 21.94 69.74
  Q 18.62 68.44 16.45 71.34
  A 1.55 0.48 -47.3 0 0 15.99 72.30
  Q 16.04 74.63 14.33 76.06
  A 1.05 0.60 74.8 0 0 14.11 76.90
  Q 14.51 80.77 18.25 80.96
  Z
  M 80.00 87.79
  C 88.12 97.93 117.90 91.33 126.81 88.54
  Q 134.52 86.13 136.93 77.41
  A 0.56 0.53 -74.0 0 0 136.58 76.74
  C 134.20 76.01 125.74 85.72 124.83 84.69
  A 0.70 0.35 -46.8 0 1 125.04 83.98
  C 126.27 82.58 129.45 75.43 124.90 78.87
  Q 120.64 82.10 116.66 85.68
  Q 115.49 86.74 115.77 85.18
  C 116.13 83.25 117.06 81.15 116.49 79.31
  C 114.57 73.16 107.92 85.28 106.75 86.75
  A 0.59 0.56 -40.1 0 1 105.79 86.69
  L 101.03 77.49
  A 0.81 0.78 71.4 0 0 100.20 77.06
  C 95.49 77.74 99.13 86.72 97.73 87.98
  A 0.42 0.36 59.8 0 1 97.12 87.77
  Q 94.59 81.47 89.57 76.96
  C 83.43 71.45 87.46 85.17 87.69 86.25
  A 0.93 0.56 71.4 0 1 87.50 87.11
  Q 87.14 87.36 86.81 86.69
  Q 83.09 79.14 76.25 74.29
  C 70.46 75.57 77.76 85.52 80.00 87.79
  Z
  M 9.21 80.09
  L 9.01 80.32
  Q 8.57 80.80 9.44 80.81
  L 14.51 80.91
  A 0.41 0.33 73.7 0 0 14.75 80.32
  C 13.65 78.24 8.89 73.63 9.41 79.65
  A 0.67 0.36 -37.5 0 1 9.21 80.09
  Z
  M 130.31 78.12
  C 129.12 77.57 128.29 79.39 128.35 80.27
  Q 128.39 81.00 128.94 80.42
  L 130.51 78.76
  A 0.45 0.37 32.7 0 0 130.31 78.12
  Z
  M 1.00 82.76
  Q 0.88 83.35 1.31 83.70
  A 0.76 0.38 -72.1 0 0 2.00 82.99
  Q 2.12 82.41 1.69 82.05
  A 0.76 0.37 -72.0 0 0 1.00 82.76
  Z
  M 3.35 82.40
  C 2.71 83.61 13.32 84.98 12.05 82.60
  A 0.94 0.86 -12.3 0 0 11.26 82.14
  L 4.25 82.04
  A 1.11 0.64 8.3 0 0 3.35 82.40
  Z
  M 18.29 83.25
  Q 23.27 81.90 18.25 82.79
  C 17.04 82.12 14.39 81.40 13.24 82.49
  C 10.99 84.63 17.14 84.04 18.29 83.25
  Z
  M 22.12 82.65
  C 22.74 83.56 25.11 81.83 22.40 82.26
  A 0.33 0.24 -18.3 0 0 22.12 82.65
  Z
  M 23.7146 84.5795
  A 3.01 0.99 -8.8 0 0 20.5885 84.0617
  A 3.01 0.99 -8.8 0 0 17.7654 85.5005
  A 3.01 0.99 -8.8 0 0 20.8915 86.0183
  A 3.01 0.99 -8.8 0 0 23.7146 84.5795
  Z
  M 6.06 84.94
  Q 4.87 84.29 3.55 84.28
  A 0.56 0.52 1.1 0 0 2.99 84.78
  Q 2.87 87.50 5.77 87.01
  Q 8.88 86.47 6.06 84.94
  Z
  M 11.00 86.00
  C 11.04 87.58 8.48 86.69 7.21 87.50
  L 5.40 88.29
  Q 4.94 88.49 5.44 88.66
  Q 6.41 88.99 7.11 89.65
  A 1.11 0.17 45.6 0 0 7.81 90.18
  Q 8.68 90.29 9.05 89.53
  Q 9.37 88.86 8.34 89.06
  Q 6.60 89.41 7.29 88.00
  Q 10.42 87.94 13.34 86.72
  C 14.22 86.35 14.70 85.37 13.46 85.03
  A 1.31 1.23 -51.1 0 0 12.51 85.16
  L 11.00 86.00
  Q 10.05 84.66 8.31 84.76
  A 0.35 0.33 -16.0 0 0 8.02 85.26
  Q 8.84 86.67 11.00 86.00
  Z
  M 15.71 85.20
  A 0.79 0.79 74.7 0 0 15.05 86.36
  C 15.95 88.07 19.25 85.04 15.71 85.20
  Z
  M 20.36 87.29
  C 19.07 86.51 15.90 87.23 16.14 89.20
  A 0.46 0.46 74.3 0 0 16.78 89.56
  L 20.41 87.89
  Q 20.95 87.65 20.36 87.29
  Z
  M 15.02 89.39
  C 16.05 86.54 10.89 88.29 10.02 89.59
  Q 8.97 91.17 10.77 90.78
  L 14.26 90.03
  A 1.09 1.00 2.4 0 0 15.02 89.39
  Z"
/>
<path fill="#999999" d="
  M 47.79 47.78
  C 48.70 47.31 46.88 45.25 46.51 44.69
  A 0.43 0.41 67.6 0 1 46.77 44.03
  L 51.51 43.18
  Q 54.01 42.74 53.77 45.25
  Q 53.31 50.07 51.24 54.47
  A 1.54 1.53 31.8 0 0 51.68 56.34
  Q 57.43 60.87 63.52 64.47
  C 67.08 66.58 70.55 66.13 74.57 65.94
  A 1.35 1.27 -5.8 0 1 75.96 67.00
  L 76.79 72.24
  A 0.86 0.63 -18.6 0 1 76.25 73.00
  Q 74.00 73.97 72.91 76.18
  A 1.17 0.64 21.7 0 1 71.65 76.33
  C 66.74 74.49 65.79 70.68 62.23 67.76
  Q 57.09 63.53 52.32 58.87
  C 50.18 56.77 43.82 54.29 45.46 50.49
  Q 45.64 50.08 45.20 50.15
  C 42.83 50.56 42.20 47.92 39.62 47.72
  A 0.40 0.20 3.7 0 1 39.25 47.50
  L 39.25 47.25
  A 0.34 0.14 -20.5 0 1 39.47 47.04
  C 41.30 46.21 46.22 44.72 47.18 47.45
  A 0.50 0.41 67.5 0 0 47.79 47.78
  Z
  M 43.1159 48.8352
  A 1.11 0.60 133.5 0 0 44.3152 48.4430
  A 1.11 0.60 133.5 0 0 44.6441 47.2248
  A 1.11 0.60 133.5 0 0 43.4448 47.6170
  A 1.11 0.60 133.5 0 0 43.1159 48.8352
  Z"
/>
<path fill="#888888" d="
  M 33.45 47.87
  C 31.82 48.97 34.25 43.71 33.88 47.09
  A 1.15 0.88 81.5 0 1 33.45 47.87
  Z"
/>
<ellipse fill="#000000" cx="0.00" cy="0.00" transform="translate(43.88,48.03) rotate(133.5)" rx="1.11" ry="0.60"/>
<ellipse fill="#999999" cx="0.00" cy="0.00" transform="translate(37.47,49.06) rotate(88.7)" rx="1.68" ry="0.52"/>
<path fill="#fec506" d="
  M 43.75 55.79
  Q 42.81 56.20 43.00 54.60
  Q 43.30 53.78 42.08 52.84
  A 1.44 1.26 -25.9 0 0 41.16 52.59
  C 36.12 53.05 30.71 54.29 25.56 54.62
  Q 19.03 55.04 12.54 55.98
  C 12.46 55.99 9.45 55.82 12.04 55.22
  Q 20.84 53.20 31.31 50.07
  Q 33.53 49.41 35.11 48.48
  A 0.61 0.34 -23.6 0 1 35.94 48.56
  L 35.98 49.76
  A 1.50 0.52 -85.7 0 0 36.26 50.81
  Q 38.50 53.03 39.09 49.55
  A 0.89 0.83 22.2 0 1 40.44 49.04
  C 40.95 49.37 48.65 56.63 43.75 55.79
  Z"
/>
<path fill="#f58c1d" d="
  M 43.00 54.60
  Q 42.81 56.20 43.75 55.79
  L 28.71 55.94
  A 0.47 0.33 2.2 0 1 28.22 55.57
  C 28.25 55.35 28.43 55.20 28.65 55.16
  Q 35.81 54.06 43.00 54.60
  Z"
/>
<path fill="#14325b" fill-opacity="0.996" d="
  M 12.25 59.46
  L 14.71 64.00
  Q 13.99 66.85 15.42 69.37
  A 1.43 1.00 44.0 0 1 15.60 70.29
  Q 15.36 71.19 14.63 71.79
  A 0.33 0.30 65.9 0 1 14.13 71.57
  C 13.79 69.77 13.29 63.88 12.00 63.00
  Q 11.99 61.70 11.30 60.65
  A 1.38 0.69 46.6 0 1 11.03 59.76
  Q 11.21 58.91 12.25 59.46
  Z"
/>
<path fill="#98ccd0" d="
  M 9.00 60.37
  Q 10.98 64.02 8.23 67.44
  Q 5.20 73.98 4.00 80.96
  Q 1.93 81.67 1.37 80.26
  A 1.44 0.99 -52.5 0 1 1.42 79.32
  Q 4.71 71.27 8.67 63.66
  C 9.16 62.70 9.08 61.67 8.71 60.75
  L 9.00 60.37
  Z"
/>
<path fill="#999999" d="
  M 99.00 67.04
  Q 100.57 67.28 99.98 67.76
  C 99.11 67.94 95.82 68.81 96.07 69.62
  A 0.66 0.45 -12.8 0 0 96.77 69.90
  Q 103.35 68.69 110.04 68.77
  C 111.28 68.78 113.75 70.36 110.51 70.61
  Q 106.09 70.94 101.73 71.77
  Q 102.64 72.57 102.51 73.24
  A 0.63 0.62 19.8 0 0 102.83 73.90
  Q 103.73 74.39 104.25 75.25
  A 1.18 0.37 63.7 0 0 104.82 75.85
  C 106.02 76.21 108.79 76.47 107.46 78.53
  Q 107.17 78.99 107.06 79.43
  Q 106.61 81.27 104.79 81.75
  Q 103.52 78.78 101.37 76.30
  A 1.01 0.94 64.4 0 0 100.53 75.97
  C 96.06 76.46 97.44 80.51 96.76 83.53
  Q 96.62 84.17 96.35 83.63
  Q 93.55 77.98 88.02 74.96
  A 1.31 1.18 46.9 0 0 86.99 74.87
  C 83.53 76.17 85.68 79.32 85.80 81.75
  Q 85.82 82.25 85.49 81.86
  L 78.29 73.50
  C 79.68 71.72 79.25 69.68 79.42 68.01
  Q 79.60 66.15 79.42 64.12
  C 84.94 62.35 91.77 64.07 96.73 65.36
  Q 97.21 65.49 96.72 65.57
  Q 85.79 67.39 99.00 67.04
  Z
  M 93.35 69.72
  Q 92.49 69.40 91.66 69.76
  Q 91.00 70.05 91.71 70.14
  L 94.38 70.45
  Q 95.24 70.55 94.95 70.16
  Q 94.73 69.87 94.24 70.02
  A 0.99 0.03 20.3 0 1 93.35 69.72
  Z"
/>
<path fill="#888888" d="
  M 99.98 67.76
  Q 100.57 67.28 99.00 67.04
  L 100.98 66.93
  A 1.08 0.24 -0.5 0 0 101.79 66.74
  Q 102.28 66.22 101.24 66.02
  A 0.28 0.20 13.4 0 1 101.00 65.75
  L 101.06 65.56
  A 0.34 0.32 6.8 0 1 101.34 65.35
  C 104.72 65.10 108.02 64.27 111.32 64.30
  Q 121.25 64.37 131.12 63.18
  C 133.14 62.93 134.07 64.82 131.18 65.06
  Q 115.57 66.34 99.98 67.76
  Z"
/>
<path fill="#bebdbe" d="
  M 79.42 64.12
  Q 79.60 66.15 79.42 68.01
  C 79.25 69.68 79.68 71.72 78.29 73.50
  Q 75.75 68.01 79.42 64.12
  Z"
/>
<path fill="#91908f" d="
  M 58.00 65.98
  C 60.19 67.56 63.08 70.20 64.47 72.51
  Q 64.83 73.11 64.27 72.95
  Q 59.18 71.44 57.28 66.48
  Q 56.75 65.08 58.00 65.98
  Z"
/>
<path fill="#91908f" d="
  M 117.18 69.24
  C 116.19 69.30 106.37 68.07 113.10 67.39
  C 118.25 66.87 122.95 67.20 127.48 66.44
  C 130.73 65.90 132.79 66.75 135.38 67.04
  Q 142.00 67.78 144.74 66.95
  C 145.88 66.60 153.98 65.03 153.01 67.35
  A 0.85 0.67 9.4 0 1 152.25 67.77
  Q 149.40 67.72 147.57 69.80
  A 0.90 0.81 23.7 0 1 146.78 70.06
  C 137.27 68.50 126.88 68.60 117.18 69.24
  Z"
/>
<path fill="#31669b" d="
  M 8.23 67.44
  Q 8.76 73.82 7.86 80.04
  A 0.82 0.78 85.6 0 1 7.32 80.70
  Q 5.70 81.23 4.00 80.96
  Q 5.20 73.98 8.23 67.44
  Z"
/>
<path fill="#ffcccb" d="
  M 21.94 69.74
  Q 23.14 75.23 19.64 78.91
  Q 17.17 78.27 16.93 76.78
  A 0.62 0.53 -11.2 0 1 17.41 76.17
  Q 19.53 75.66 18.44 75.26
  A 1.18 1.05 -47.1 0 0 17.51 75.35
  Q 14.00 77.26 18.25 79.04
  L 18.25 80.96
  Q 14.51 80.77 14.11 76.90
  A 1.05 0.60 74.8 0 1 14.33 76.06
  Q 16.04 74.63 15.99 72.30
  A 1.55 0.48 -47.3 0 1 16.45 71.34
  Q 18.62 68.44 21.94 69.74
  Z"
/>
<path fill="#888888" d="
  M 94.24 70.02
  Q 94.73 69.87 94.95 70.16
  Q 95.24 70.55 94.38 70.45
  L 91.71 70.14
  Q 91.00 70.05 91.66 69.76
  Q 92.49 69.40 93.35 69.72
  A 0.99 0.03 20.3 0 0 94.24 70.02
  Z"
/>
<path fill="#ff9999" d="
  M 21.94 69.74
  C 29.79 69.76 28.58 82.61 18.25 80.96
  L 18.25 79.04
  L 19.64 78.91
  Q 23.14 75.23 21.94 69.74
  Z"
/>
<path fill="#888888" d="
  M 104.79 81.75
  Q 106.61 81.27 107.06 79.43
  Q 107.17 78.99 107.46 78.53
  C 108.79 76.47 106.02 76.21 104.82 75.85
  A 1.18 0.37 63.7 0 1 104.25 75.25
  Q 103.73 74.39 102.83 73.90
  A 0.63 0.62 19.8 0 1 102.51 73.24
  Q 102.64 72.57 101.73 71.77
  C 104.23 71.99 122.65 71.04 122.02 72.67
  A 0.81 0.53 7.1 0 1 121.30 73.02
  Q 115.39 72.91 109.49 73.12
  C 109.15 73.13 108.39 73.35 108.90 73.81
  A 1.31 0.72 -14.3 0 0 109.76 74.03
  Q 118.57 73.63 127.23 75.33
  Q 127.80 75.44 127.34 75.77
  Q 122.62 79.21 117.91 82.88
  C 117.82 82.95 116.57 83.31 117.31 82.56
  Q 117.71 82.16 118.00 81.69
  A 1.47 0.57 73.0 0 0 118.07 80.72
  Q 117.71 78.54 116.23 76.73
  Q 114.92 75.13 113.33 76.59
  Q 109.24 80.32 106.83 85.33
  Q 106.59 85.82 106.37 85.32
  L 104.79 81.75
  Z"
/>
<path fill="#bebdbe" d="
  M 76.25 74.29
  Q 75.51 81.15 80.29 85.93
  C 80.92 86.56 81.12 87.58 80.00 87.79
  C 77.76 85.52 70.46 75.57 76.25 74.29
  Z"
/>
<path fill="#999999" d="
  M 76.25 74.29
  Q 83.09 79.14 86.81 86.69
  Q 87.14 87.36 87.50 87.11
  A 0.93 0.56 71.4 0 0 87.69 86.25
  C 87.46 85.17 83.43 71.45 89.57 76.96
  Q 94.59 81.47 97.12 87.77
  A 0.42 0.36 59.8 0 0 97.73 87.98
  C 99.13 86.72 95.49 77.74 100.20 77.06
  A 0.81 0.78 71.4 0 1 101.03 77.49
  L 105.79 86.69
  A 0.59 0.56 -40.1 0 0 106.75 86.75
  C 107.92 85.28 114.57 73.16 116.49 79.31
  C 117.06 81.15 116.13 83.25 115.77 85.18
  Q 115.49 86.74 116.66 85.68
  Q 120.64 82.10 124.90 78.87
  C 129.45 75.43 126.27 82.58 125.04 83.98
  A 0.70 0.35 -46.8 0 0 124.83 84.69
  C 125.74 85.72 134.20 76.01 136.58 76.74
  A 0.56 0.53 -74.0 0 1 136.93 77.41
  Q 134.52 86.13 126.81 88.54
  C 117.90 91.33 88.12 97.93 80.00 87.79
  C 81.12 87.58 80.92 86.56 80.29 85.93
  Q 75.51 81.15 76.25 74.29
  Z"
/>
<path fill="#000000" d="
  M 19.64 78.91
  L 18.25 79.04
  Q 14.00 77.26 17.51 75.35
  A 1.18 1.05 -47.1 0 1 18.44 75.26
  Q 19.53 75.66 17.41 76.17
  A 0.62 0.53 -11.2 0 0 16.93 76.78
  Q 17.17 78.27 19.64 78.91
  Z"
/>
<path fill="#31669b" d="
  M 9.41 79.65
  C 8.89 73.63 13.65 78.24 14.75 80.32
  A 0.41 0.33 73.7 0 1 14.51 80.91
  L 9.44 80.81
  Q 8.57 80.80 9.01 80.32
  L 9.21 80.09
  A 0.67 0.36 -37.5 0 0 9.41 79.65
  Z"
/>
<path fill="#888888" d="
  M 128.35 80.27
  C 128.29 79.39 129.12 77.57 130.31 78.12
  A 0.45 0.37 32.7 0 1 130.51 78.76
  L 128.94 80.42
  Q 128.39 81.00 128.35 80.27
  Z"
/>
<path fill="#b24e1a" d="
  M 1.69 82.05
  Q 2.12 82.41 2.00 82.99
  A 0.76 0.38 -72.1 0 1 1.31 83.70
  Q 0.88 83.35 1.00 82.76
  A 0.76 0.37 -72.0 0 1 1.69 82.05
  Z"
/>
<path fill="#f58c1d" d="
  M 12.05 82.60
  C 13.32 84.98 2.71 83.61 3.35 82.40
  A 1.11 0.64 8.3 0 1 4.25 82.04
  L 11.26 82.14
  A 0.94 0.86 -12.3 0 1 12.05 82.60
  Z"
/>
<path fill="#f58c1d" d="
  M 18.25 82.79
  L 18.29 83.25
  C 17.14 84.04 10.99 84.63 13.24 82.49
  C 14.39 81.40 17.04 82.12 18.25 82.79
  Z"
/>
<path fill="#b24e1a" d="
  M 22.40 82.26
  C 25.11 81.83 22.74 83.56 22.12 82.65
  A 0.33 0.24 -18.3 0 1 22.40 82.26
  Z"
/>
<path fill="#b24e1a" d="
  M 18.29 83.25
  L 18.25 82.79
  Q 23.27 81.90 18.29 83.25
  Z"
/>
<ellipse fill="#f58c1d" cx="0.00" cy="0.00" transform="translate(20.74,85.04) rotate(-8.8)" rx="3.01" ry="0.99"/>
<path fill="#f58c1d" d="
  M 6.06 84.94
  Q 8.88 86.47 5.77 87.01
  Q 2.87 87.50 2.99 84.78
  A 0.56 0.52 1.1 0 1 3.55 84.28
  Q 4.87 84.29 6.06 84.94
  Z"
/>
<path fill="#b24e1a" d="
  M 11.00 86.00
  Q 8.84 86.67 8.02 85.26
  A 0.35 0.33 -16.0 0 1 8.31 84.76
  Q 10.05 84.66 11.00 86.00
  Z"
/>
<path fill="#f58c1d" d="
  M 7.29 88.00
  L 7.21 87.50
  C 8.48 86.69 11.04 87.58 11.00 86.00
  L 12.51 85.16
  A 1.31 1.23 -51.1 0 1 13.46 85.03
  C 14.70 85.37 14.22 86.35 13.34 86.72
  Q 10.42 87.94 7.29 88.00
  Z"
/>
<path fill="#f58c1d" d="
  M 15.71 85.20
  C 19.25 85.04 15.95 88.07 15.05 86.36
  A 0.79 0.79 74.7 0 1 15.71 85.20
  Z"
/>
<path fill="#f58c1d" d="
  M 16.14 89.20
  C 15.90 87.23 19.07 86.51 20.36 87.29
  Q 20.95 87.65 20.41 87.89
  L 16.78 89.56
  A 0.46 0.46 74.3 0 1 16.14 89.20
  Z"
/>
<path fill="#b24e1a" d="
  M 7.21 87.50
  L 7.29 88.00
  Q 6.60 89.41 8.34 89.06
  Q 9.37 88.86 9.05 89.53
  Q 8.68 90.29 7.81 90.18
  A 1.11 0.17 45.6 0 1 7.11 89.65
  Q 6.41 88.99 5.44 88.66
  Q 4.94 88.49 5.40 88.29
  L 7.21 87.50
  Z"
/>
<path fill="#f58c1d" d="
  M 10.02 89.59
  C 10.89 88.29 16.05 86.54 15.02 89.39
  A 1.09 1.00 2.4 0 1 14.26 90.03
  L 10.77 90.78
  Q 8.97 91.17 10.02 89.59
  Z"
/>
</svg>
