<?xml version="1.0" encoding="UTF-8" standalone="no"?>
<svg xmlns="http://www.w3.org/2000/svg" version="1.2" baseProfile="tiny" viewBox="0 0 154 153">
<g stroke-width="2.00" fill="none" stroke-linecap="butt">
<path stroke="#454545" vector-effect="non-scaling-stroke" d="
  M 94.46 15.25
  Q 88.48 20.53 83.60 26.85
  Q 83.41 27.09 83.19 26.97
  A 0.35 0.29 -55.9 0 1 83.15 26.49
  Q 89.25 18.31 95.07 9.93
  C 95.73 8.98 102.48 2.00 101.85 1.53
  A 0.79 0.54 -45.5 0 0 101.00 1.70
  Q 91.06 10.40 83.09 20.90
  C 81.43 23.09 78.82 25.16 77.20 27.80
  A 1.19 0.94 56.0 0 0 77.13 28.71
  Q 81.12 41.07 84.05 53.74
  Q 84.57 56.03 82.74 57.48
  Q 80.24 59.45 79.24 62.46
  Q 79.07 62.95 79.48 62.67
  C 85.14 58.77 86.01 54.34 86.06 47.20
  C 86.14 35.12 85.95 27.01 93.37 19.11
  Q 101.19 10.78 108.20 5.19
  C 110.34 3.48 107.64 4.08 106.99 4.64
  Q 101.29 9.60 95.29 14.25"
/>
<path stroke="#454545" vector-effect="non-scaling-stroke" d="
  M 112.25 41.21
  L 103.73 39.83
  A 0.87 0.56 3.8 0 1 103.02 39.30
  C 102.88 38.44 121.04 40.33 122.55 37.63
  A 0.32 0.31 15.8 0 0 122.28 37.16
  Q 111.09 36.78 100.09 35.09
  Q 97.99 34.77 98.72 32.25"
/>
<path stroke="#4d4d4d" vector-effect="non-scaling-stroke" d="
  M 98.72 32.25
  Q 110.34 32.27 117.01 31.32
  C 124.34 30.28 129.48 30.07 133.48 28.62
  Q 133.96 28.45 133.46 28.38
  Q 126.67 27.52 119.94 28.39
  C 113.39 29.23 106.86 28.67 100.82 29.83
  Q 99.42 30.10 98.51 29.85
  Q 97.96 29.70 98.51 29.51
  Q 103.04 27.93 107.45 26.05
  C 115.09 22.80 123.04 20.57 130.64 17.24
  C 132.84 16.28 130.88 15.99 130.18 16.18
  Q 118.78 19.24 107.51 22.78
  C 104.66 23.68 99.26 24.70 95.41 26.58
  Q 94.92 26.82 95.11 26.23
  A 0.92 0.73 -9.0 0 1 95.54 25.76
  C 100.60 23.18 121.48 12.26 123.02 7.59
  Q 123.61 5.80 121.96 6.70
  L 96.63 20.58"
/>
<path stroke="#565656" vector-effect="non-scaling-stroke" d="
  M 96.63 20.58
  C 100.63 16.59 105.47 13.14 109.17 9.43
  C 109.65 8.94 117.61 1.98 114.01 1.98
  Q 112.23 1.98 110.92 3.43
  C 108.27 6.38 104.71 8.67 102.27 11.10
  C 97.64 15.69 89.83 22.32 88.44 28.74
  Q 86.49 37.73 86.96 52.50"
/>
<path stroke="#4d4d4d" vector-effect="non-scaling-stroke" d="
  M 86.96 52.50
  Q 85.81 58.50 81.40 62.33
  C 70.78 71.55 59.66 62.99 51.28 55.96
  A 0.97 0.90 -57.7 0 1 51.07 54.83
  Q 53.30 50.28 53.78 45.25
  Q 54.02 42.70 51.51 43.17
  L 46.58 44.08
  A 0.47 0.31 64.5 0 0 46.49 44.73
  C 46.86 45.30 48.75 47.22 47.76 47.84
  A 0.46 0.34 69.4 0 1 47.21 47.49
  C 46.50 44.70 41.30 46.18 39.62 47.17
  Q 38.90 47.60 39.78 47.71
  Q 42.03 48.00 43.34 49.91
  A 1.15 0.49 -8.0 0 0 44.25 50.16
  L 45.07 50.12
  A 0.42 0.36 -81.2 0 1 45.40 50.66
  Q 44.67 53.05 46.98 54.77
  Q 56.77 62.06 65.97 71.94"
/>
<path stroke="#5f5f5f" vector-effect="non-scaling-stroke" d="
  M 65.97 71.94
  C 72.07 79.28 82.60 79.73 90.80 76.05"
/>
<path stroke="#4d4d4d" vector-effect="non-scaling-stroke" d="
  M 90.80 76.05
  C 96.35 74.60 101.21 71.35 106.53 70.24
  C 117.26 68.02 126.78 68.61 139.38 68.96
  C 141.81 69.03 144.16 69.96 146.78 70.04
  A 1.22 1.02 18.2 0 0 147.69 69.68
  Q 149.47 67.63 152.25 67.75
  A 0.69 0.64 9.7 0 0 152.94 67.30
  Q 153.17 66.60 151.99 66.13
  A 3.74 3.70 48.4 0 0 149.69 65.98
  Q 142.07 67.96 134.21 66.80
  Q 130.48 66.25 127.76 66.46
  Q 116.40 67.34 104.99 67.78"
/>
<path stroke="#454545" vector-effect="non-scaling-stroke" d="
  M 104.99 67.78
  C 105.14 66.46 128.69 65.25 131.42 65.08
  C 132.28 65.03 134.06 64.37 132.43 63.35
  A 1.62 1.25 -26.4 0 0 131.48 63.16
  C 122.78 64.12 114.01 63.69 105.58 64.84
  C 103.92 65.07 88.31 67.12 88.05 66.67
  A 0.68 0.31 -13.8 0 1 88.70 66.16
  L 96.54 64.71"
/>
<path stroke="#0a192d" vector-effect="non-scaling-stroke" d="
  M 12.25 59.46
  Q 11.21 58.91 11.03 59.76
  A 1.38 0.69 46.6 0 0 11.30 60.65
  Q 11.99 61.70 12.00 63.00"
/>
<path stroke="#0a192d" vector-effect="non-scaling-stroke" d="
  M 12.00 63.00
  C 13.29 63.88 13.79 69.77 14.13 71.57
  A 0.33 0.30 65.9 0 0 14.63 71.79
  Q 15.36 71.19 15.60 70.29
  A 1.43 1.00 44.0 0 0 15.42 69.37
  Q 13.99 66.85 14.71 64.00"
/>
<path stroke="#4c6668" vector-effect="non-scaling-stroke" d="
  M 8.71 60.75
  C 9.08 61.67 9.16 62.70 8.67 63.66
  Q 4.71 71.27 1.42 79.32
  A 1.44 0.99 -52.5 0 0 1.37 80.26
  Q 1.93 81.67 4.00 80.96"
/>
<path stroke="#19334e" vector-effect="non-scaling-stroke" d="
  M 4.00 80.96
  Q 5.70 81.23 7.32 80.70
  A 0.82 0.78 85.6 0 0 7.86 80.04
  Q 8.76 73.82 8.23 67.44"
/>
<path stroke="#4c6668" vector-effect="non-scaling-stroke" d="
  M 8.23 67.44
  Q 10.98 64.02 9.00 60.37"
/>
<path stroke="#0a192d" vector-effect="non-scaling-stroke" d="
  M 33.85 47.08
  C 34.06 43.47 31.87 48.93 33.45 47.87
  A 1.09 0.86 78.7 0 0 33.85 47.08"
/>
<path stroke="#565656" vector-effect="non-scaling-stroke" d="
  M 37.5081 50.7396
  A 1.68 0.52 88.7 0 0 37.9899 49.0482
  A 1.68 0.52 88.7 0 0 37.4319 47.3804
  A 1.68 0.52 88.7 0 0 36.9501 49.0718
  A 1.68 0.52 88.7 0 0 37.5081 50.7396"
/>
<path stroke="#79460e" vector-effect="non-scaling-stroke" d="
  M 42.75 55.04
  Q 40.83 53.74 39.75 53.94
  C 38.49 54.17 28.23 55.31 28.22 55.60
  A 0.49 0.36 1.1 0 0 28.72 55.98
  L 42.50 55.96"
/>
<path stroke="#7f6303" vector-effect="non-scaling-stroke" d="
  M 42.50 55.96
  Q 44.15 56.29 45.06 55.20
  A 0.79 0.69 53.1 0 0 45.12 54.39
  Q 43.47 51.17 40.43 49.04
  A 0.87 0.83 22.9 0 0 39.09 49.55
  Q 38.50 53.03 36.26 50.81
  A 1.50 0.52 -85.7 0 1 35.98 49.76
  L 35.94 48.56
  A 0.63 0.34 -22.9 0 0 35.10 48.48
  Q 33.21 49.53 29.98 50.45
  Q 18.70 53.66 12.05 55.22
  C 9.46 55.83 12.45 55.99 12.53 55.98
  Q 19.00 55.05 25.52 54.63
  C 27.64 54.49 29.98 53.71 32.38 53.69
  Q 34.80 53.68 36.55 53.29
  C 37.71 53.03 44.59 51.30 42.75 55.04"
/>
<path stroke="#f8a811" vector-effect="non-scaling-stroke" d="
  M 42.50 55.96
  L 42.75 55.04"
/>
<path stroke="#804d4d" vector-effect="non-scaling-stroke" d="
  M 16.92 80.91
  C 20.75 81.56 24.95 81.06 26.60 77.02
  Q 28.76 71.73 21.97 69.53"
/>
<path stroke="#806666" vector-effect="non-scaling-stroke" d="
  M 21.97 69.53
  Q 18.64 68.54 16.44 71.35
  A 1.56 0.52 -46.3 0 0 15.99 72.30
  Q 16.04 74.63 14.33 76.06
  A 0.96 0.89 65.7 0 0 14.03 76.96
  Q 14.54 79.61 16.92 80.91"
/>
<path stroke="#ffb3b2" vector-effect="non-scaling-stroke" d="
  M 21.97 69.53
  Q 23.13 75.13 19.66 78.93"
/>
<path stroke="#806666" vector-effect="non-scaling-stroke" d="
  M 19.66 78.93
  Q 17.16 78.25 16.94 76.80
  A 0.67 0.55 -15.6 0 1 17.40 76.15
  Q 19.90 75.31 18.20 75.24
  C 15.49 75.12 15.48 77.54 17.54 79.00"
/>
<path stroke="#ffb3b2" vector-effect="non-scaling-stroke" d="
  M 17.54 79.00
  Q 19.33 80.62 16.92 80.91"
/>
<path stroke="#804d4d" vector-effect="non-scaling-stroke" d="
  M 17.54 79.00
  L 19.66 78.93"
/>
<path stroke="#19334e" vector-effect="non-scaling-stroke" d="
  M 9.21 80.09
  L 9.01 80.32
  Q 8.57 80.80 9.44 80.81
  L 14.51 80.91
  A 0.41 0.33 73.7 0 0 14.75 80.32
  C 13.65 78.24 8.89 73.63 9.41 79.65
  A 0.67 0.36 -37.5 0 1 9.21 80.09"
/>
<path stroke="#79460e" vector-effect="non-scaling-stroke" d="
  M 1.5000 83.7500
  A 0.87 0.53 90.0 0 0 2.0300 82.8800
  A 0.87 0.53 90.0 0 0 1.5000 82.0100
  A 0.87 0.53 90.0 0 0 0.9700 82.8800
  A 0.87 0.53 90.0 0 0 1.5000 83.7500"
/>
<path stroke="#79460e" vector-effect="non-scaling-stroke" d="
  M 12.5331 83.0763
  A 4.74 0.94 3.1 0 0 7.8508 81.8814
  A 4.74 0.94 3.1 0 0 3.0669 82.5637
  A 4.74 0.94 3.1 0 0 7.7492 83.7586
  A 4.74 0.94 3.1 0 0 12.5331 83.0763"
/>
<path stroke="#79460e" vector-effect="non-scaling-stroke" d="
  M 17.53 82.43
  C 14.00 80.86 10.81 84.01 14.38 84.04
  Q 17.46 84.06 20.28 82.72
  C 21.67 82.06 18.01 82.65 17.53 82.43"
/>
<path stroke="#79460e" vector-effect="non-scaling-stroke" d="
  M 22.12 82.65
  C 22.74 83.56 25.11 81.83 22.40 82.26
  A 0.33 0.24 -18.3 0 0 22.12 82.65"
/>
<path stroke="#79460e" vector-effect="non-scaling-stroke" d="
  M 23.7146 84.5795
  A 3.01 0.99 -8.8 0 0 20.5885 84.0617
  A 3.01 0.99 -8.8 0 0 17.7654 85.5005
  A 3.01 0.99 -8.8 0 0 20.8915 86.0183
  A 3.01 0.99 -8.8 0 0 23.7146 84.5795"
/>
<path stroke="#79460e" vector-effect="non-scaling-stroke" d="
  M 6.06 84.94
  Q 4.87 84.29 3.55 84.28
  A 0.56 0.52 1.1 0 0 2.99 84.78
  Q 2.87 87.50 5.77 87.01
  Q 8.88 86.47 6.06 84.94"
/>
<path stroke="#79460e" vector-effect="non-scaling-stroke" d="
  M 11.00 86.00
  L 10.88 86.51
  A 0.62 0.61 8.7 0 1 10.23 86.98
  Q 7.65 86.79 5.49 88.26
  A 0.31 0.30 44.8 0 0 5.50 88.77
  Q 5.84 88.99 6.25 89.00
  A 1.06 0.32 56.5 0 1 6.92 89.56
  Q 7.50 90.31 8.31 90.10
  A 0.79 0.15 -14.6 0 0 9.01 89.77
  L 8.94 89.06
  A 0.86 0.28 -13.9 0 0 8.00 88.99
  Q 7.33 89.16 6.99 88.78
  A 0.82 0.34 -18.6 0 1 7.77 88.10
  L 13.48 86.65
  A 0.91 0.89 -89.9 0 0 14.13 85.99
  C 14.66 83.88 11.44 85.72 11.00 86.00"
/>
<path stroke="#79460e" vector-effect="non-scaling-stroke" d="
  M 11.00 86.00
  Q 10.05 84.66 8.31 84.76
  A 0.35 0.33 -16.0 0 0 8.02 85.26
  Q 8.84 86.67 11.00 86.00"
/>
<path stroke="#79460e" vector-effect="non-scaling-stroke" d="
  M 15.71 85.20
  A 0.79 0.79 74.7 0 0 15.05 86.36
  C 15.95 88.07 19.25 85.04 15.71 85.20"
/>
<path stroke="#79460e" vector-effect="non-scaling-stroke" d="
  M 20.36 87.29
  C 19.07 86.51 15.90 87.23 16.14 89.20
  A 0.46 0.46 74.3 0 0 16.78 89.56
  L 20.41 87.89
  Q 20.95 87.65 20.36 87.29"
/>
<path stroke="#79460e" vector-effect="non-scaling-stroke" d="
  M 15.1777 88.5507
  A 2.76 1.24 -16.4 0 0 12.1799 88.1405
  A 2.76 1.24 -16.4 0 0 9.8823 90.1093
  A 2.76 1.24 -16.4 0 0 12.8801 90.5195
  A 2.76 1.24 -16.4 0 0 15.1777 88.5507"
/>
<path stroke="#a3a2a3" vector-effect="non-scaling-stroke" d="
  M 96.63 20.58
  Q 91.32 23.28 89.55 28.91
  C 87.07 36.78 89.92 45.27 88.22 53.06
  A 0.91 0.76 -88.8 0 1 87.64 53.72
  Q 86.64 53.97 86.96 52.50"
/>
<path stroke="#919191" vector-effect="non-scaling-stroke" d="
  M 98.72 32.25
  Q 93.75 33.36 97.34 35.23
  A 1.46 0.42 32.5 0 0 98.25 35.50
  Q 100.54 35.21 99.95 37.53
  A 0.90 0.66 -0.6 0 1 99.24 38.06
  L 96.29 38.51
  Q 95.80 38.58 96.25 38.75
  L 102.23 41.04
  A 0.73 0.42 20.2 0 1 102.76 41.67
  C 102.60 42.13 93.74 42.23 92.75 42.26
  A 1.40 0.86 11.4 0 0 91.86 42.59
  Q 91.25 43.21 92.61 43.41
  Q 97.22 44.09 99.58 46.34
  A 0.40 0.40 -39.8 0 1 99.52 46.97
  Q 96.92 48.60 93.83 48.57
  Q 93.28 48.56 93.68 48.84
  L 97.52 51.50
  Q 97.95 51.80 97.28 51.88
  C 95.17 52.16 91.39 51.77 90.16 53.78
  A 0.49 0.46 28.8 0 0 90.38 54.44
  Q 93.49 56.01 94.04 59.45"
/>
<path stroke="#4d4d4d" vector-effect="non-scaling-stroke" d="
  M 94.04 59.45
  Q 98.02 60.32 102.26 60.19
  Q 102.61 60.18 102.72 60.40
  A 0.43 0.32 -19.4 0 1 102.39 60.88
  Q 96.69 62.50 90.73 62.50"
/>
<path stroke="#919191" vector-effect="non-scaling-stroke" d="
  M 90.73 62.50
  Q 88.16 63.04 87.70 65.31
  A 0.82 0.38 -81.5 0 1 87.25 65.99
  Q 85.24 66.17 83.78 67.53
  A 1.73 0.67 3.0 0 1 82.78 67.86
  C 82.67 67.87 77.58 68.11 78.34 68.67
  A 0.55 0.36 -20.1 0 0 78.69 68.75
  Q 80.11 68.65 81.51 69.03
  C 86.29 70.33 90.13 70.29 95.44 69.28
  Q 100.20 68.38 104.99 67.78"
/>
<path stroke="#acabac" vector-effect="non-scaling-stroke" d="
  M 90.80 76.05
  Q 88.34 75.49 85.86 75.80
  C 80.54 76.47 75.96 75.54 70.89 74.00
  A 2.02 1.39 68.0 0 1 70.09 73.47
  Q 68.39 71.63 65.97 71.94"
/>
<path stroke="#4d4d4d" vector-effect="non-scaling-stroke" d="
  M 43.1110 48.8108
  A 1.11 0.62 135.3 0 0 44.3361 48.4707
  A 1.11 0.62 135.3 0 0 44.6890 47.2492
  A 1.11 0.62 135.3 0 0 43.4639 47.5893
  A 1.11 0.62 135.3 0 0 43.1110 48.8108"
/>
<path stroke="#454545" vector-effect="non-scaling-stroke" d="
  M 113.25 41.29
  L 120.98 42.31
  A 0.75 0.61 1.4 0 1 121.60 42.84
  C 121.80 44.10 119.92 43.90 118.97 43.91
  Q 110.39 44.06 101.80 44.02
  Q 98.30 44.00 101.49 45.44
  C 106.20 47.56 113.67 46.28 119.08 47.14
  A 1.00 0.62 -1.5 0 1 119.78 47.55
  C 120.47 48.93 98.80 47.41 98.15 49.50
  A 0.67 0.30 12.1 0 0 98.76 49.95
  L 114.28 52.87
  A 0.66 0.57 -5.5 0 1 114.73 53.19
  C 115.73 55.18 96.27 55.04 96.04 55.26
  Q 95.58 55.71 96.26 55.76
  Q 100.56 56.08 104.19 58.33
  A 0.55 0.30 34.6 0 1 104.50 58.94
  Q 104.31 59.13 104.01 59.11
  Q 98.15 58.73 94.04 59.45"
/>
<path stroke="#454545" vector-effect="non-scaling-stroke" d="
  M 96.36 63.60
  L 90.73 62.50"
/>
<path stroke="#6599b6" vector-effect="non-scaling-stroke" d="
  M 8.23 67.44
  Q 5.20 73.98 4.00 80.96"
/>
</g>
<path fill="#000000" d="
  M 101.06 0.00
  L 102.56 0.00
  Q 103.62 3.06 101.57 5.11
  C 100.59 6.09 90.63 16.52 94.46 15.25
  Q 88.48 20.53 83.60 26.85
  Q 83.41 27.09 83.19 26.97
  A 0.35 0.29 -55.9 0 1 83.15 26.49
  Q 89.25 18.31 95.07 9.93
  C 95.73 8.98 102.48 2.00 101.85 1.53
  A 0.79 0.54 -45.5 0 0 101.00 1.70
  Q 91.06 10.40 83.09 20.90
  C 81.43 23.09 78.82 25.16 77.20 27.80
  A 1.19 0.94 56.0 0 0 77.13 28.71
  Q 81.12 41.07 84.05 53.74
  Q 84.57 56.03 82.74 57.48
  Q 80.24 59.45 79.24 62.46
  Q 79.07 62.95 79.48 62.67
  C 85.14 58.77 86.01 54.34 86.06 47.20
  C 86.14 35.12 85.95 27.01 93.37 19.11
  Q 101.19 10.78 108.20 5.19
  C 110.34 3.48 107.64 4.08 106.99 4.64
  Q 101.29 9.60 95.29 14.25
  Q 100.09 8.69 106.00 4.35
  C 108.27 2.69 110.92 2.34 113.56 1.16
  A 1.37 1.05 -42.2 0 1 114.49 1.08
  C 119.87 2.91 110.39 10.24 109.00 10.99
  C 106.59 12.29 105.59 14.12 103.50 15.13
  A 0.65 0.45 -26.5 0 0 103.12 15.83
  C 103.33 16.24 104.22 16.00 104.61 15.71
  C 110.14 11.45 116.58 8.76 122.44 5.19
  A 1.05 1.04 -17.4 0 1 124.03 6.02
  Q 124.25 9.67 121.34 11.35
  C 116.50 14.12 112.11 17.86 107.07 20.23
  Q 105.24 21.09 103.44 22.01
  A 0.62 0.52 -25.0 0 0 103.11 22.72
  Q 103.40 23.40 104.28 23.08
  Q 116.85 18.46 129.86 15.21
  C 133.19 14.38 134.77 16.25 131.17 17.97
  C 123.83 21.46 116.03 23.24 108.70 26.58
  A 1.45 0.50 -30.8 0 1 107.74 26.78
  Q 106.45 26.40 106.22 27.47
  A 0.74 0.46 5.5 0 0 106.96 28.04
  C 113.33 28.30 119.60 26.99 125.55 27.00
  C 127.22 27.00 134.83 26.18 134.91 28.60
  A 0.85 0.75 -16.5 0 1 134.45 29.33
  C 131.14 31.04 127.15 30.90 124.59 31.36
  Q 112.30 33.60 99.81 32.86
  A 0.79 0.43 3.4 0 0 98.99 33.25
  Q 98.94 34.64 100.07 34.08
  A 1.26 0.69 32.5 0 1 101.00 34.14
  C 104.48 35.56 107.60 34.84 110.96 35.47
  C 112.54 35.77 126.65 35.77 126.11 37.95
  A 0.98 0.78 -4.6 0 1 125.46 38.56
  Q 119.90 40.25 113.28 39.70
  Q 111.29 39.53 112.25 41.21
  L 103.73 39.83
  A 0.87 0.56 3.8 0 1 103.02 39.30
  C 102.88 38.44 121.04 40.33 122.55 37.63
  A 0.32 0.31 15.8 0 0 122.28 37.16
  Q 111.09 36.78 100.09 35.09
  Q 97.99 34.77 98.72 32.25
  Q 110.34 32.27 117.01 31.32
  C 124.34 30.28 129.48 30.07 133.48 28.62
  Q 133.96 28.45 133.46 28.38
  Q 126.67 27.52 119.94 28.39
  C 113.39 29.23 106.86 28.67 100.82 29.83
  Q 99.42 30.10 98.51 29.85
  Q 97.96 29.70 98.51 29.51
  Q 103.04 27.93 107.45 26.05
  C 115.09 22.80 123.04 20.57 130.64 17.24
  C 132.84 16.28 130.88 15.99 130.18 16.18
  Q 118.78 19.24 107.51 22.78
  C 104.66 23.68 99.26 24.70 95.41 26.58
  Q 94.92 26.82 95.11 26.23
  A 0.92 0.73 -9.0 0 1 95.54 25.76
  C 100.60 23.18 121.48 12.26 123.02 7.59
  Q 123.61 5.80 121.96 6.70
  L 96.63 20.58
  C 100.63 16.59 105.47 13.14 109.17 9.43
  C 109.65 8.94 117.61 1.98 114.01 1.98
  Q 112.23 1.98 110.92 3.43
  C 108.27 6.38 104.71 8.67 102.27 11.10
  C 97.64 15.69 89.83 22.32 88.44 28.74
  Q 86.49 37.73 86.96 52.50
  Q 85.81 58.50 81.40 62.33
  C 70.78 71.55 59.66 62.99 51.28 55.96
  A 0.97 0.90 -57.7 0 1 51.07 54.83
  Q 53.30 50.28 53.78 45.25
  Q 54.02 42.70 51.51 43.17
  L 46.58 44.08
  A 0.47 0.31 64.5 0 0 46.49 44.73
  C 46.86 45.30 48.75 47.22 47.76 47.84
  A 0.46 0.34 69.4 0 1 47.21 47.49
  C 46.50 44.70 41.30 46.18 39.62 47.17
  Q 38.90 47.60 39.78 47.71
  Q 42.03 48.00 43.34 49.91
  A 1.15 0.49 -8.0 0 0 44.25 50.16
  L 45.07 50.12
  A 0.42 0.36 -81.2 0 1 45.40 50.66
  Q 44.67 53.05 46.98 54.77
  Q 56.77 62.06 65.97 71.94
  C 72.07 79.28 82.60 79.73 90.80 76.05
  C 96.35 74.60 101.21 71.35 106.53 70.24
  C 117.26 68.02 126.78 68.61 139.38 68.96
  C 141.81 69.03 144.16 69.96 146.78 70.04
  A 1.22 1.02 18.2 0 0 147.69 69.68
  Q 149.47 67.63 152.25 67.75
  A 0.69 0.64 9.7 0 0 152.94 67.30
  Q 153.17 66.60 151.99 66.13
  A 3.74 3.70 48.4 0 0 149.69 65.98
  Q 142.07 67.96 134.21 66.80
  Q 130.48 66.25 127.76 66.46
  Q 116.40 67.34 104.99 67.78
  C 105.14 66.46 128.69 65.25 131.42 65.08
  C 132.28 65.03 134.06 64.37 132.43 63.35
  A 1.62 1.25 -26.4 0 0 131.48 63.16
  C 122.78 64.12 114.01 63.69 105.58 64.84
  C 103.92 65.07 88.31 67.12 88.05 66.67
  A 0.68 0.31 -13.8 0 1 88.70 66.16
  L 96.54 64.71
  Q 106.32 63.33 116.18 63.03
  C 121.19 62.88 125.50 62.50 130.15 62.09
  C 132.39 61.89 135.22 62.41 133.27 65.53
  Q 133.00 65.96 133.51 65.98
  C 138.34 66.12 142.08 65.93 147.09 65.03
  Q 150.68 64.39 154.02 66.26
  L 154.00 67.81
  Q 152.25 69.08 150.03 69.25
  A 1.65 1.63 23.2 0 0 149.14 69.60
  C 145.82 72.33 143.40 70.20 140.14 70.04
  Q 126.69 69.41 113.26 70.08
  C 111.14 70.19 108.75 71.15 106.25 71.02
  A 2.04 1.75 28.8 0 0 105.30 71.22
  C 93.30 77.52 75.03 85.15 64.83 72.76
  C 60.31 67.28 54.77 63.59 49.84 58.19
  C 47.52 55.64 45.21 57.10 42.92 57.04
  Q 27.25 56.61 13.32 57.82
  Q 11.87 57.94 12.25 59.46
  Q 11.21 58.91 11.03 59.76
  A 1.38 0.69 46.6 0 0 11.30 60.65
  Q 11.99 61.70 12.00 63.00
  Q 11.14 62.78 11.04 63.26
  Q 9.97 68.20 9.34 75.45
  A 0.51 0.43 -87.0 0 0 9.76 76.00
  L 12.31 76.04
  Q 14.81 76.07 13.86 73.60
  Q 11.83 68.32 12.00 63.00
  C 13.29 63.88 13.79 69.77 14.13 71.57
  A 0.33 0.30 65.9 0 0 14.63 71.79
  Q 15.36 71.19 15.60 70.29
  A 1.43 1.00 44.0 0 0 15.42 69.37
  Q 13.99 66.85 14.71 64.00
  L 16.14 68.32
  A 0.85 0.48 76.9 0 0 16.68 68.91
  Q 18.39 69.04 20.13 65.93
  A 1.14 0.73 -57.7 0 1 21.44 65.32
  Q 21.89 65.67 21.73 66.25
  A 0.98 0.89 30.3 0 0 22.02 67.17
  C 25.88 70.77 31.41 74.28 25.88 79.94
  A 1.28 1.23 68.4 0 0 25.53 80.79
  Q 25.47 83.30 24.06 85.27
  C 17.33 94.67 4.85 93.96 0.00 83.19
  L -0.02 81.93
  C 1.81 74.12 6.05 68.13 8.71 60.75
  C 9.08 61.67 9.16 62.70 8.67 63.66
  Q 4.71 71.27 1.42 79.32
  A 1.44 0.99 -52.5 0 0 1.37 80.26
  Q 1.93 81.67 4.00 80.96
  Q 5.70 81.23 7.32 80.70
  A 0.82 0.78 85.6 0 0 7.86 80.04
  Q 8.76 73.82 8.23 67.44
  Q 10.98 64.02 9.00 60.37
  Q 11.21 57.20 7.82 56.55
  Q 7.33 56.45 7.72 56.16
  C 10.65 53.91 14.19 53.91 16.86 53.17
  Q 23.18 51.42 30.75 49.29
  A 2.20 1.82 88.4 0 0 32.10 47.57
  Q 32.72 43.42 35.29 46.72
  A 0.87 0.65 -25.7 0 0 36.17 46.89
  L 46.83 43.13
  A 4.33 3.04 -38.7 0 1 49.24 42.98
  Q 50.72 43.41 50.36 42.21
  A 0.50 0.44 79.1 0 1 50.73 41.58
  L 53.05 41.43
  A 0.92 0.66 70.8 0 1 53.78 41.94
  Q 55.26 44.76 54.17 51.55
  A 1.24 1.18 -18.9 0 1 53.81 52.24
  Q 51.13 54.87 53.95 56.52
  C 57.91 58.84 61.58 61.63 65.59 63.91
  C 68.51 65.55 71.48 65.03 74.68 64.97
  A 1.66 1.60 24.9 0 0 75.64 64.64
  Q 78.02 62.81 79.47 60.21
  Q 79.75 59.70 80.12 59.47
  Q 83.70 57.23 82.97 53.27
  Q 81.83 47.06 76.09 28.45
  A 1.17 1.16 -39.0 0 1 76.19 27.53
  C 78.54 23.34 82.38 19.99 84.94 16.55
  Q 91.88 7.23 101.06 0.00
  Z
  M 33.85 47.08
  C 34.06 43.47 31.87 48.93 33.45 47.87
  A 1.09 0.86 78.7 0 0 33.85 47.08
  Z
  M 37.5081 50.7396
  A 1.68 0.52 88.7 0 0 37.9899 49.0482
  A 1.68 0.52 88.7 0 0 37.4319 47.3804
  A 1.68 0.52 88.7 0 0 36.9501 49.0718
  A 1.68 0.52 88.7 0 0 37.5081 50.7396
  Z
  M 42.75 55.04
  Q 40.83 53.74 39.75 53.94
  C 38.49 54.17 28.23 55.31 28.22 55.60
  A 0.49 0.36 1.1 0 0 28.72 55.98
  L 42.50 55.96
  Q 44.15 56.29 45.06 55.20
  A 0.79 0.69 53.1 0 0 45.12 54.39
  Q 43.47 51.17 40.43 49.04
  A 0.87 0.83 22.9 0 0 39.09 49.55
  Q 38.50 53.03 36.26 50.81
  A 1.50 0.52 -85.7 0 1 35.98 49.76
  L 35.94 48.56
  A 0.63 0.34 -22.9 0 0 35.10 48.48
  Q 33.21 49.53 29.98 50.45
  Q 18.70 53.66 12.05 55.22
  C 9.46 55.83 12.45 55.99 12.53 55.98
  Q 19.00 55.05 25.52 54.63
  C 27.64 54.49 29.98 53.71 32.38 53.69
  Q 34.80 53.68 36.55 53.29
  C 37.71 53.03 44.59 51.30 42.75 55.04
  Z
  M 16.92 80.91
  C 20.75 81.56 24.95 81.06 26.60 77.02
  Q 28.76 71.73 21.97 69.53
  Q 18.64 68.54 16.44 71.35
  A 1.56 0.52 -46.3 0 0 15.99 72.30
  Q 16.04 74.63 14.33 76.06
  A 0.96 0.89 65.7 0 0 14.03 76.96
  Q 14.54 79.61 16.92 80.91
  Z
  M 9.21 80.09
  L 9.01 80.32
  Q 8.57 80.80 9.44 80.81
  L 14.51 80.91
  A 0.41 0.33 73.7 0 0 14.75 80.32
  C 13.65 78.24 8.89 73.63 9.41 79.65
  A 0.67 0.36 -37.5 0 1 9.21 80.09
  Z
  M 1.5000 83.7500
  A 0.87 0.53 90.0 0 0 2.0300 82.8800
  A 0.87 0.53 90.0 0 0 1.5000 82.0100
  A 0.87 0.53 90.0 0 0 0.9700 82.8800
  A 0.87 0.53 90.0 0 0 1.5000 83.7500
  Z
  M 12.5331 83.0763
  A 4.74 0.94 3.1 0 0 7.8508 81.8814
  A 4.74 0.94 3.1 0 0 3.0669 82.5637
  A 4.74 0.94 3.1 0 0 7.7492 83.7586
  A 4.74 0.94 3.1 0 0 12.5331 83.0763
  Z
  M 17.53 82.43
  C 14.00 80.86 10.81 84.01 14.38 84.04
  Q 17.46 84.06 20.28 82.72
  C 21.67 82.06 18.01 82.65 17.53 82.43
  Z
  M 22.12 82.65
  C 22.74 83.56 25.11 81.83 22.40 82.26
  A 0.33 0.24 -18.3 0 0 22.12 82.65
  Z
  M 23.7146 84.5795
  A 3.01 0.99 -8.8 0 0 20.5885 84.0617
  A 3.01 0.99 -8.8 0 0 17.7654 85.5005
  A 3.01 0.99 -8.8 0 0 20.8915 86.0183
  A 3.01 0.99 -8.8 0 0 23.7146 84.5795
  Z
  M 6.06 84.94
  Q 4.87 84.29 3.55 84.28
  A 0.56 0.52 1.1 0 0 2.99 84.78
  Q 2.87 87.50 5.77 87.01
  Q 8.88 86.47 6.06 84.94
  Z
  M 11.00 86.00
  L 10.88 86.51
  A 0.62 0.61 8.7 0 1 10.23 86.98
  Q 7.65 86.79 5.49 88.26
  A 0.31 0.30 44.8 0 0 5.50 88.77
  Q 5.84 88.99 6.25 89.00
  A 1.06 0.32 56.5 0 1 6.92 89.56
  Q 7.50 90.31 8.31 90.10
  A 0.79 0.15 -14.6 0 0 9.01 89.77
  L 8.94 89.06
  A 0.86 0.28 -13.9 0 0 8.00 88.99
  Q 7.33 89.16 6.99 88.78
  A 0.82 0.34 -18.6 0 1 7.77 88.10
  L 13.48 86.65
  A 0.91 0.89 -89.9 0 0 14.13 85.99
  C 14.66 83.88 11.44 85.72 11.00 86.00
  Q 10.05 84.66 8.31 84.76
  A 0.35 0.33 -16.0 0 0 8.02 85.26
  Q 8.84 86.67 11.00 86.00
  Z
  M 15.71 85.20
  A 0.79 0.79 74.7 0 0 15.05 86.36
  C 15.95 88.07 19.25 85.04 15.71 85.20
  Z
  M 20.36 87.29
  C 19.07 86.51 15.90 87.23 16.14 89.20
  A 0.46 0.46 74.3 0 0 16.78 89.56
  L 20.41 87.89
  Q 20.95 87.65 20.36 87.29
  Z
  M 15.1777 88.5507
  A 2.76 1.24 -16.4 0 0 12.1799 88.1405
  A 2.76 1.24 -16.4 0 0 9.8823 90.1093
  A 2.76 1.24 -16.4 0 0 12.8801 90.5195
  A 2.76 1.24 -16.4 0 0 15.1777 88.5507
  Z"
/>
<path fill="#898989" d="
  M 94.46 15.25
  L 95.29 14.25
  Q 101.29 9.60 106.99 4.64
  C 107.64 4.08 110.34 3.48 108.20 5.19
  Q 101.19 10.78 93.37 19.11
  C 85.95 27.01 86.14 35.12 86.06 47.20
  C 86.01 54.34 85.14 58.77 79.48 62.67
  Q 79.07 62.95 79.24 62.46
  Q 80.24 59.45 82.74 57.48
  Q 84.57 56.03 84.05 53.74
  Q 81.12 41.07 77.13 28.71
  A 1.19 0.94 56.0 0 1 77.20 27.80
  C 78.82 25.16 81.43 23.09 83.09 20.90
  Q 91.06 10.40 101.00 1.70
  A 0.79 0.54 -45.5 0 1 101.85 1.53
  C 102.48 2.00 95.73 8.98 95.07 9.93
  Q 89.25 18.31 83.15 26.49
  A 0.35 0.29 -55.9 0 0 83.19 26.97
  Q 83.41 27.09 83.60 26.85
  Q 88.48 20.53 94.46 15.25
  Z"
/>
<path fill="#acabac" d="
  M 96.63 20.58
  Q 91.32 23.28 89.55 28.91
  C 87.07 36.78 89.92 45.27 88.22 53.06
  A 0.91 0.76 -88.8 0 1 87.64 53.72
  Q 86.64 53.97 86.96 52.50
  Q 86.49 37.73 88.44 28.74
  C 89.83 22.32 97.64 15.69 102.27 11.10
  C 104.71 8.67 108.27 6.38 110.92 3.43
  Q 112.23 1.98 114.01 1.98
  C 117.61 1.98 109.65 8.94 109.17 9.43
  C 105.47 13.14 100.63 16.59 96.63 20.58
  Z"
/>
<path fill="#999999" d="
  M 98.72 32.25
  Q 93.75 33.36 97.34 35.23
  A 1.46 0.42 32.5 0 0 98.25 35.50
  Q 100.54 35.21 99.95 37.53
  A 0.90 0.66 -0.6 0 1 99.24 38.06
  L 96.29 38.51
  Q 95.80 38.58 96.25 38.75
  L 102.23 41.04
  A 0.73 0.42 20.2 0 1 102.76 41.67
  C 102.60 42.13 93.74 42.23 92.75 42.26
  A 1.40 0.86 11.4 0 0 91.86 42.59
  Q 91.25 43.21 92.61 43.41
  Q 97.22 44.09 99.58 46.34
  A 0.40 0.40 -39.8 0 1 99.52 46.97
  Q 96.92 48.60 93.83 48.57
  Q 93.28 48.56 93.68 48.84
  L 97.52 51.50
  Q 97.95 51.80 97.28 51.88
  C 95.17 52.16 91.39 51.77 90.16 53.78
  A 0.49 0.46 28.8 0 0 90.38 54.44
  Q 93.49 56.01 94.04 59.45
  Q 98.02 60.32 102.26 60.19
  Q 102.61 60.18 102.72 60.40
  A 0.43 0.32 -19.4 0 1 102.39 60.88
  Q 96.69 62.50 90.73 62.50
  Q 88.16 63.04 87.70 65.31
  A 0.82 0.38 -81.5 0 1 87.25 65.99
  Q 85.24 66.17 83.78 67.53
  A 1.73 0.67 3.0 0 1 82.78 67.86
  C 82.67 67.87 77.58 68.11 78.34 68.67
  A 0.55 0.36 -20.1 0 0 78.69 68.75
  Q 80.11 68.65 81.51 69.03
  C 86.29 70.33 90.13 70.29 95.44 69.28
  Q 100.20 68.38 104.99 67.78
  Q 116.40 67.34 127.76 66.46
  Q 130.48 66.25 134.21 66.80
  Q 142.07 67.96 149.69 65.98
  A 3.74 3.70 48.4 0 1 151.99 66.13
  Q 153.17 66.60 152.94 67.30
  A 0.69 0.64 9.7 0 1 152.25 67.75
  Q 149.47 67.63 147.69 69.68
  A 1.22 1.02 18.2 0 1 146.78 70.04
  C 144.16 69.96 141.81 69.03 139.38 68.96
  C 126.78 68.61 117.26 68.02 106.53 70.24
  C 101.21 71.35 96.35 74.60 90.80 76.05
  Q 88.34 75.49 85.86 75.80
  C 80.54 76.47 75.96 75.54 70.89 74.00
  A 2.02 1.39 68.0 0 1 70.09 73.47
  Q 68.39 71.63 65.97 71.94
  Q 56.77 62.06 46.98 54.77
  Q 44.67 53.05 45.40 50.66
  A 0.42 0.36 -81.2 0 0 45.07 50.12
  L 44.25 50.16
  A 1.15 0.49 -8.0 0 1 43.34 49.91
  Q 42.03 48.00 39.78 47.71
  Q 38.90 47.60 39.62 47.17
  C 41.30 46.18 46.50 44.70 47.21 47.49
  A 0.46 0.34 69.4 0 0 47.76 47.84
  C 48.75 47.22 46.86 45.30 46.49 44.73
  A 0.47 0.31 64.5 0 1 46.58 44.08
  L 51.51 43.17
  Q 54.02 42.70 53.78 45.25
  Q 53.30 50.28 51.07 54.83
  A 0.97 0.90 -57.7 0 0 51.28 55.96
  C 59.66 62.99 70.78 71.55 81.40 62.33
  Q 85.81 58.50 86.96 52.50
  Q 86.64 53.97 87.64 53.72
  A 0.91 0.76 -88.8 0 0 88.22 53.06
  C 89.92 45.27 87.07 36.78 89.55 28.91
  Q 91.32 23.28 96.63 20.58
  L 121.96 6.70
  Q 123.61 5.80 123.02 7.59
  C 121.48 12.26 100.60 23.18 95.54 25.76
  A 0.92 0.73 -9.0 0 0 95.11 26.23
  Q 94.92 26.82 95.41 26.58
  C 99.26 24.70 104.66 23.68 107.51 22.78
  Q 118.78 19.24 130.18 16.18
  C 130.88 15.99 132.84 16.28 130.64 17.24
  C 123.04 20.57 115.09 22.80 107.45 26.05
  Q 103.04 27.93 98.51 29.51
  Q 97.96 29.70 98.51 29.85
  Q 99.42 30.10 100.82 29.83
  C 106.86 28.67 113.39 29.23 119.94 28.39
  Q 126.67 27.52 133.46 28.38
  Q 133.96 28.45 133.48 28.62
  C 129.48 30.07 124.34 30.28 117.01 31.32
  Q 110.34 32.27 98.72 32.25
  Z
  M 43.1110 48.8108
  A 1.11 0.62 135.3 0 0 44.3361 48.4707
  A 1.11 0.62 135.3 0 0 44.6890 47.2492
  A 1.11 0.62 135.3 0 0 43.4639 47.5893
  A 1.11 0.62 135.3 0 0 43.1110 48.8108
  Z"
/>
<path fill="#898989" d="
  M 98.72 32.25
  Q 97.99 34.77 100.09 35.09
  Q 111.09 36.78 122.28 37.16
  A 0.32 0.31 15.8 0 1 122.55 37.63
  C 121.04 40.33 102.88 38.44 103.02 39.30
  A 0.87 0.56 3.8 0 0 103.73 39.83
  L 112.25 41.21
  L 113.25 41.29
  L 120.98 42.31
  A 0.75 0.61 1.4 0 1 121.60 42.84
  C 121.80 44.10 119.92 43.90 118.97 43.91
  Q 110.39 44.06 101.80 44.02
  Q 98.30 44.00 101.49 45.44
  C 106.20 47.56 113.67 46.28 119.08 47.14
  A 1.00 0.62 -1.5 0 1 119.78 47.55
  C 120.47 48.93 98.80 47.41 98.15 49.50
  A 0.67 0.30 12.1 0 0 98.76 49.95
  L 114.28 52.87
  A 0.66 0.57 -5.5 0 1 114.73 53.19
  C 115.73 55.18 96.27 55.04 96.04 55.26
  Q 95.58 55.71 96.26 55.76
  Q 100.56 56.08 104.19 58.33
  A 0.55 0.30 34.6 0 1 104.50 58.94
  Q 104.31 59.13 104.01 59.11
  Q 98.15 58.73 94.04 59.45
  Q 93.49 56.01 90.38 54.44
  A 0.49 0.46 28.8 0 1 90.16 53.78
  C 91.39 51.77 95.17 52.16 97.28 51.88
  Q 97.95 51.80 97.52 51.50
  L 93.68 48.84
  Q 93.28 48.56 93.83 48.57
  Q 96.92 48.60 99.52 46.97
  A 0.40 0.40 -39.8 0 0 99.58 46.34
  Q 97.22 44.09 92.61 43.41
  Q 91.25 43.21 91.86 42.59
  A 1.40 0.86 11.4 0 1 92.75 42.26
  C 93.74 42.23 102.60 42.13 102.76 41.67
  A 0.73 0.42 20.2 0 0 102.23 41.04
  L 96.25 38.75
  Q 95.80 38.58 96.29 38.51
  L 99.24 38.06
  A 0.90 0.66 -0.6 0 0 99.95 37.53
  Q 100.54 35.21 98.25 35.50
  A 1.46 0.42 32.5 0 1 97.34 35.23
  Q 93.75 33.36 98.72 32.25
  Z"
/>
<path fill="#000000" d="
  M 96.36 63.60
  L 90.73 62.50
  Q 96.69 62.50 102.39 60.88
  A 0.43 0.32 -19.4 0 0 102.72 60.40
  Q 102.61 60.18 102.26 60.19
  Q 98.02 60.32 94.04 59.45
  Q 98.15 58.73 104.01 59.11
  Q 104.31 59.13 104.50 58.94
  A 0.55 0.30 34.6 0 0 104.19 58.33
  Q 100.56 56.08 96.26 55.76
  Q 95.58 55.71 96.04 55.26
  C 96.27 55.04 115.73 55.18 114.73 53.19
  A 0.66 0.57 -5.5 0 0 114.28 52.87
  L 98.76 49.95
  A 0.67 0.30 12.1 0 1 98.15 49.50
  C 98.80 47.41 120.47 48.93 119.78 47.55
  A 1.00 0.62 -1.5 0 0 119.08 47.14
  C 113.67 46.28 106.20 47.56 101.49 45.44
  Q 98.30 44.00 101.80 44.02
  Q 110.39 44.06 118.97 43.91
  C 119.92 43.90 121.80 44.10 121.60 42.84
  A 0.75 0.61 1.4 0 0 120.98 42.31
  L 113.25 41.29
  L 121.01 41.01
  A 1.40 1.35 -25.6 0 1 121.94 41.32
  Q 123.95 42.96 121.85 44.60
  A 1.69 1.08 -54.4 0 1 120.93 44.97
  Q 113.05 45.03 105.17 44.97
  C 103.87 44.96 103.98 46.22 105.18 46.23
  C 107.11 46.24 119.71 45.74 120.40 46.80
  Q 121.70 48.80 119.31 48.76
  C 117.57 48.73 101.55 48.39 102.00 49.56
  A 0.70 0.49 -1.5 0 0 102.52 49.90
  C 104.95 50.28 106.84 50.85 109.53 50.95
  Q 112.52 51.06 115.24 52.50
  Q 118.34 54.13 115.01 54.78
  Q 109.05 55.94 103.01 56.04
  A 0.89 0.46 5.6 0 0 102.31 56.32
  Q 102.21 56.52 102.25 56.75
  A 0.30 0.27 -2.4 0 0 102.51 56.97
  Q 105.16 57.15 107.32 58.66
  Q 108.98 59.82 106.99 59.99
  C 105.75 60.09 104.71 60.34 103.55 61.04
  Q 100.22 63.02 96.36 63.60
  Z"
/>
<path fill="#14325b" fill-opacity="0.996" d="
  M 33.45 47.87
  C 31.87 48.93 34.06 43.47 33.85 47.08
  A 1.09 0.86 78.7 0 1 33.45 47.87
  Z"
/>
<ellipse fill="#000000" cx="0.00" cy="0.00" transform="translate(43.90,48.03) rotate(135.3)" rx="1.11" ry="0.62"/>
<ellipse fill="#acabac" cx="0.00" cy="0.00" transform="translate(37.47,49.06) rotate(88.7)" rx="1.68" ry="0.52"/>
<path fill="#fec505" d="
  M 42.50 55.96
  L 42.75 55.04
  C 44.59 51.30 37.71 53.03 36.55 53.29
  Q 34.80 53.68 32.38 53.69
  C 29.98 53.71 27.64 54.49 25.52 54.63
  Q 19.00 55.05 12.53 55.98
  C 12.45 55.99 9.46 55.83 12.05 55.22
  Q 18.70 53.66 29.98 50.45
  Q 33.21 49.53 35.10 48.48
  A 0.63 0.34 -22.9 0 1 35.94 48.56
  L 35.98 49.76
  A 1.50 0.52 -85.7 0 0 36.26 50.81
  Q 38.50 53.03 39.09 49.55
  A 0.87 0.83 22.9 0 1 40.43 49.04
  Q 43.47 51.17 45.12 54.39
  A 0.79 0.69 53.1 0 1 45.06 55.20
  Q 44.15 56.29 42.50 55.96
  Z"
/>
<path fill="#f28b1c" d="
  M 42.75 55.04
  L 42.50 55.96
  L 28.72 55.98
  A 0.49 0.36 1.1 0 1 28.22 55.60
  C 28.23 55.31 38.49 54.17 39.75 53.94
  Q 40.83 53.74 42.75 55.04
  Z"
/>
<path fill="#14325b" fill-opacity="0.996" d="
  M 12.25 59.46
  L 14.71 64.00
  Q 13.99 66.85 15.42 69.37
  A 1.43 1.00 44.0 0 1 15.60 70.29
  Q 15.36 71.19 14.63 71.79
  A 0.33 0.30 65.9 0 1 14.13 71.57
  C 13.79 69.77 13.29 63.88 12.00 63.00
  Q 11.99 61.70 11.30 60.65
  A 1.38 0.69 46.6 0 1 11.03 59.76
  Q 11.21 58.91 12.25 59.46
  Z"
/>
<path fill="#98ccd0" d="
  M 9.00 60.37
  Q 10.98 64.02 8.23 67.44
  Q 5.20 73.98 4.00 80.96
  Q 1.93 81.67 1.37 80.26
  A 1.44 0.99 -52.5 0 1 1.42 79.32
  Q 4.71 71.27 8.67 63.66
  C 9.16 62.70 9.08 61.67 8.71 60.75
  L 9.00 60.37
  Z"
/>
<path fill="#898989" d="
  M 90.73 62.50
  L 96.36 63.60
  L 96.54 64.71
  L 88.70 66.16
  A 0.68 0.31 -13.8 0 0 88.05 66.67
  C 88.31 67.12 103.92 65.07 105.58 64.84
  C 114.01 63.69 122.78 64.12 131.48 63.16
  A 1.62 1.25 -26.4 0 1 132.43 63.35
  C 134.06 64.37 132.28 65.03 131.42 65.08
  C 128.69 65.25 105.14 66.46 104.99 67.78
  Q 100.20 68.38 95.44 69.28
  C 90.13 70.29 86.29 70.33 81.51 69.03
  Q 80.11 68.65 78.69 68.75
  A 0.55 0.36 -20.1 0 1 78.34 68.67
  C 77.58 68.11 82.67 67.87 82.78 67.86
  A 1.73 0.67 3.0 0 0 83.78 67.53
  Q 85.24 66.17 87.25 65.99
  A 0.82 0.38 -81.5 0 0 87.70 65.31
  Q 88.16 63.04 90.73 62.50
  Z"
/>
<path fill="#31669b" d="
  M 8.23 67.44
  Q 8.76 73.82 7.86 80.04
  A 0.82 0.78 85.6 0 1 7.32 80.70
  Q 5.70 81.23 4.00 80.96
  Q 5.20 73.98 8.23 67.44
  Z"
/>
<path fill="#ffcccb" d="
  M 21.97 69.53
  Q 23.13 75.13 19.66 78.93
  Q 17.16 78.25 16.94 76.80
  A 0.67 0.55 -15.6 0 1 17.40 76.15
  Q 19.90 75.31 18.20 75.24
  C 15.49 75.12 15.48 77.54 17.54 79.00
  Q 19.33 80.62 16.92 80.91
  Q 14.54 79.61 14.03 76.96
  A 0.96 0.89 65.7 0 1 14.33 76.06
  Q 16.04 74.63 15.99 72.30
  A 1.56 0.52 -46.3 0 1 16.44 71.35
  Q 18.64 68.54 21.97 69.53
  Z"
/>
<path fill="#ff9999" d="
  M 21.97 69.53
  Q 28.76 71.73 26.60 77.02
  C 24.95 81.06 20.75 81.56 16.92 80.91
  Q 19.33 80.62 17.54 79.00
  L 19.66 78.93
  Q 23.13 75.13 21.97 69.53
  Z"
/>
<path fill="#bebdbe" d="
  M 90.80 76.05
  C 82.60 79.73 72.07 79.28 65.97 71.94
  Q 68.39 71.63 70.09 73.47
  A 2.02 1.39 68.0 0 0 70.89 74.00
  C 75.96 75.54 80.54 76.47 85.86 75.80
  Q 88.34 75.49 90.80 76.05
  Z"
/>
<path fill="#000000" d="
  M 19.66 78.93
  L 17.54 79.00
  C 15.48 77.54 15.49 75.12 18.20 75.24
  Q 19.90 75.31 17.40 76.15
  A 0.67 0.55 -15.6 0 0 16.94 76.80
  Q 17.16 78.25 19.66 78.93
  Z"
/>
<path fill="#31669b" d="
  M 9.41 79.65
  C 8.89 73.63 13.65 78.24 14.75 80.32
  A 0.41 0.33 73.7 0 1 14.51 80.91
  L 9.44 80.81
  Q 8.57 80.80 9.01 80.32
  L 9.21 80.09
  A 0.67 0.36 -37.5 0 0 9.41 79.65
  Z"
/>
<ellipse fill="#f28b1c" cx="0.00" cy="0.00" transform="translate(1.50,82.88) rotate(90.0)" rx="0.87" ry="0.53"/>
<ellipse fill="#f28b1c" cx="0.00" cy="0.00" transform="translate(7.80,82.82) rotate(3.1)" rx="4.74" ry="0.94"/>
<path fill="#f28b1c" d="
  M 17.53 82.43
  C 18.01 82.65 21.67 82.06 20.28 82.72
  Q 17.46 84.06 14.38 84.04
  C 10.81 84.01 14.00 80.86 17.53 82.43
  Z"
/>
<path fill="#f28b1c" d="
  M 22.40 82.26
  C 25.11 81.83 22.74 83.56 22.12 82.65
  A 0.33 0.24 -18.3 0 1 22.40 82.26
  Z"
/>
<ellipse fill="#f28b1c" cx="0.00" cy="0.00" transform="translate(20.74,85.04) rotate(-8.8)" rx="3.01" ry="0.99"/>
<path fill="#f28b1c" d="
  M 6.06 84.94
  Q 8.88 86.47 5.77 87.01
  Q 2.87 87.50 2.99 84.78
  A 0.56 0.52 1.1 0 1 3.55 84.28
  Q 4.87 84.29 6.06 84.94
  Z"
/>
<path fill="#f28b1c" d="
  M 11.00 86.00
  Q 8.84 86.67 8.02 85.26
  A 0.35 0.33 -16.0 0 1 8.31 84.76
  Q 10.05 84.66 11.00 86.00
  Z"
/>
<path fill="#f28b1c" d="
  M 11.00 86.00
  C 11.44 85.72 14.66 83.88 14.13 85.99
  A 0.91 0.89 -89.9 0 1 13.48 86.65
  L 7.77 88.10
  A 0.82 0.34 -18.6 0 0 6.99 88.78
  Q 7.33 89.16 8.00 88.99
  A 0.86 0.28 -13.9 0 1 8.94 89.06
  L 9.01 89.77
  A 0.79 0.15 -14.6 0 1 8.31 90.10
  Q 7.50 90.31 6.92 89.56
  A 1.06 0.32 56.5 0 0 6.25 89.00
  Q 5.84 88.99 5.50 88.77
  A 0.31 0.30 44.8 0 1 5.49 88.26
  Q 7.65 86.79 10.23 86.98
  A 0.62 0.61 8.7 0 0 10.88 86.51
  L 11.00 86.00
  Z"
/>
<path fill="#f28b1c" d="
  M 15.71 85.20
  C 19.25 85.04 15.95 88.07 15.05 86.36
  A 0.79 0.79 74.7 0 1 15.71 85.20
  Z"
/>
<path fill="#f28b1c" d="
  M 16.14 89.20
  C 15.90 87.23 19.07 86.51 20.36 87.29
  Q 20.95 87.65 20.41 87.89
  L 16.78 89.56
  A 0.46 0.46 74.3 0 1 16.14 89.20
  Z"
/>
<ellipse fill="#f28b1c" cx="0.00" cy="0.00" transform="translate(12.53,89.33) rotate(-16.4)" rx="2.76" ry="1.24"/>
</svg>
